Hubballi-Regular-exp.ufo
<glyph name="exclam" format="1">
  <advance width="337"/>
  <unicode hex="0021"/>
  <outline>
    <contour>
      <point x="134" y="270" type="curve" smooth="yes"/>
      <point x="141" y="548" type="line" smooth="yes"/>
      <point x="141" y="566"/>
      <point x="157" y="580"/>
      <point x="175" y="580" type="curve" smooth="yes"/>
      <point x="193" y="580"/>
      <point x="207" y="564"/>
      <point x="207" y="546" type="curve" smooth="yes"/>
      <point x="200" y="268" type="line" smooth="yes"/>
      <point x="200" y="250"/>
      <point x="184" y="236"/>
      <point x="166" y="236" type="curve" smooth="yes"/>
      <point x="148" y="236"/>
      <point x="134" y="252"/>
    </contour>
    <component base="period" xOffset="49"/>
    <component base="period" xOffset="49"/>
  </outline>
</glyph>
<glyph name="plus" format="1">
  <advance width="491"/>
  <unicode hex="002B"/>
  <outline>
    <contour>
      <point x="92" y="286" type="curve" smooth="yes"/>
      <point x="398" y="286" type="line" smooth="yes"/>
      <point x="416" y="286"/>
      <point x="431" y="271"/>
      <point x="431" y="253" type="curve" smooth="yes"/>
      <point x="431" y="235"/>
      <point x="416" y="220"/>
      <point x="398" y="220" type="curve" smooth="yes"/>
      <point x="92" y="220" type="line" smooth="yes"/>
      <point x="74" y="220"/>
      <point x="59" y="235"/>
      <point x="59" y="253" type="curve" smooth="yes"/>
      <point x="59" y="271"/>
      <point x="74" y="286"/>
    </contour>
    <contour>
      <point x="212" y="104" type="curve" smooth="yes"/>
      <point x="212" y="401" type="line" smooth="yes"/>
      <point x="212" y="419"/>
      <point x="227" y="434"/>
      <point x="245" y="434" type="curve" smooth="yes"/>
      <point x="263" y="434"/>
      <point x="278" y="419"/>
      <point x="278" y="401" type="curve" smooth="yes"/>
      <point x="278" y="104" type="line" smooth="yes"/>
      <point x="278" y="86"/>
      <point x="263" y="71"/>
      <point x="245" y="71" type="curve" smooth="yes"/>
      <point x="227" y="71"/>
      <point x="212" y="86"/>
    </contour>
  </outline>
</glyph>
<glyph name="slash" format="1">
  <advance width="325"/>
  <unicode hex="002F"/>
  <outline>
    <contour>
      <point x="312" y="596" type="curve" smooth="yes"/>
      <point x="63" y="-84" type="line" smooth="yes"/>
      <point x="57" y="-101"/>
      <point x="37" y="-110"/>
      <point x="21" y="-104" type="curve" smooth="yes"/>
      <point x="4" y="-98"/>
      <point x="-5" y="-78"/>
      <point x="1" y="-62" type="curve" smooth="yes"/>
      <point x="250" y="618" type="line" smooth="yes"/>
      <point x="256" y="635"/>
      <point x="276" y="644"/>
      <point x="292" y="638" type="curve" smooth="yes"/>
      <point x="309" y="632"/>
      <point x="318" y="612"/>
    </contour>
  </outline>
</glyph>
<glyph name="one" format="1">
  <advance width="330"/>
  <unicode hex="0031"/>
  <outline>
    <contour>
      <point x="235" y="500" type="curve" smooth="yes"/>
      <point x="235" y="27" type="line" smooth="yes"/>
      <point x="235" y="9"/>
      <point x="220" y="-6"/>
      <point x="202" y="-6" type="curve" smooth="yes"/>
      <point x="184" y="-6"/>
      <point x="169" y="9"/>
      <point x="169" y="27" type="curve" smooth="yes"/>
      <point x="169" y="500" type="line" smooth="yes"/>
      <point x="169" y="518"/>
      <point x="184" y="533"/>
      <point x="202" y="533" type="curve" smooth="yes"/>
      <point x="220" y="533"/>
      <point x="235" y="518"/>
    </contour>
    <contour>
      <point x="217" y="478" type="curve" smooth="yes"/>
      <point x="87" y="412" type="line" smooth="yes"/>
      <point x="71" y="404"/>
      <point x="51" y="410"/>
      <point x="43" y="426" type="curve" smooth="yes"/>
      <point x="35" y="442"/>
      <point x="41" y="462"/>
      <point x="57" y="470" type="curve" smooth="yes"/>
      <point x="187" y="536" type="line" smooth="yes"/>
      <point x="203" y="544"/>
      <point x="223" y="538"/>
      <point x="231" y="522" type="curve" smooth="yes"/>
      <point x="239" y="506"/>
      <point x="233" y="486"/>
    </contour>
  </outline>
</glyph>
<glyph name="two" format="1">
  <advance width="518"/>
  <unicode hex="0032"/>
  <outline>
    <contour>
      <point x="68" y="60" type="curve" smooth="yes"/>
      <point x="234" y="219" type="line" smooth="yes"/>
      <point x="331" y="311"/>
      <point x="367" y="348"/>
      <point x="367" y="404" type="curve" smooth="yes"/>
      <point x="367" y="448"/>
      <point x="328" y="485"/>
      <point x="263" y="485" type="curve" smooth="yes"/>
      <point x="217" y="485"/>
      <point x="171" y="472"/>
      <point x="129" y="446" type="curve" smooth="yes"/>
      <point x="114" y="437"/>
      <point x="93" y="442"/>
      <point x="84" y="457" type="curve" smooth="yes"/>
      <point x="75" y="472"/>
      <point x="80" y="493"/>
      <point x="95" y="502" type="curve" smooth="yes"/>
      <point x="147" y="534"/>
      <point x="205" y="551"/>
      <point x="263" y="551" type="curve" smooth="yes"/>
      <point x="382" y="551"/>
      <point x="433" y="476"/>
      <point x="433" y="404" type="curve" smooth="yes"/>
      <point x="433" y="336"/>
      <point x="401" y="287"/>
      <point x="280" y="171" type="curve" smooth="yes"/>
      <point x="114" y="12" type="line" smooth="yes"/>
      <point x="101" y="0"/>
      <point x="79" y="0"/>
      <point x="67" y="13" type="curve" smooth="yes"/>
      <point x="55" y="26"/>
      <point x="55" y="48"/>
    </contour>
    <contour>
      <point x="433" y="-6" type="curve" smooth="yes"/>
      <point x="81" y="-6" type="line" smooth="yes"/>
      <point x="63" y="-6"/>
      <point x="48" y="9"/>
      <point x="48" y="27" type="curve" smooth="yes"/>
      <point x="48" y="45"/>
      <point x="63" y="60"/>
      <point x="81" y="60" type="curve" smooth="yes"/>
      <point x="433" y="60" type="line" smooth="yes"/>
      <point x="451" y="60"/>
      <point x="466" y="45"/>
      <point x="466" y="27" type="curve" smooth="yes"/>
      <point x="466" y="9"/>
      <point x="451" y="-6"/>
    </contour>
  </outline>
</glyph>
<glyph name="three" format="1">
  <advance width="522"/>
  <unicode hex="0033"/>
  <outline>
    <contour>
      <point x="120" y="545" type="curve" smooth="yes"/>
      <point x="417" y="545" type="line" smooth="yes"/>
      <point x="435" y="545"/>
      <point x="450" y="530"/>
      <point x="450" y="512" type="curve" smooth="yes"/>
      <point x="450" y="494"/>
      <point x="435" y="479"/>
      <point x="417" y="479" type="curve" smooth="yes"/>
      <point x="120" y="479" type="line" smooth="yes"/>
      <point x="102" y="479"/>
      <point x="87" y="494"/>
      <point x="87" y="512" type="curve" smooth="yes"/>
      <point x="87" y="530"/>
      <point x="102" y="545"/>
    </contour>
    <contour>
      <point x="116" y="84" type="curve" smooth="yes"/>
      <point x="155" y="68"/>
      <point x="203" y="56"/>
      <point x="260" y="56" type="curve" smooth="yes"/>
      <point x="348" y="56"/>
      <point x="399" y="96"/>
      <point x="399" y="159" type="curve" smooth="yes"/>
      <point x="399" y="220"/>
      <point x="346" y="256"/>
      <point x="271" y="256" type="curve" smooth="yes"/>
      <point x="228" y="256"/>
      <point x="194" y="249"/>
      <point x="174" y="243" type="curve" smooth="yes"/>
      <point x="157" y="237"/>
      <point x="138" y="247"/>
      <point x="133" y="264" type="curve" smooth="yes"/>
      <point x="127" y="281"/>
      <point x="137" y="300"/>
      <point x="154" y="305" type="curve" smooth="yes"/>
      <point x="178" y="313"/>
      <point x="220" y="322"/>
      <point x="271" y="322" type="curve" smooth="yes"/>
      <point x="398" y="322"/>
      <point x="465" y="252"/>
      <point x="465" y="159" type="curve" smooth="yes"/>
      <point x="465" y="66"/>
      <point x="404" y="-10"/>
      <point x="260" y="-10" type="curve" smooth="yes"/>
      <point x="193" y="-10"/>
      <point x="135" y="4"/>
      <point x="90" y="24" type="curve" smooth="yes"/>
      <point x="74" y="31"/>
      <point x="66" y="51"/>
      <point x="73" y="67" type="curve" smooth="yes"/>
      <point x="80" y="83"/>
      <point x="100" y="91"/>
    </contour>
    <contour>
      <point x="431" y="480" type="curve" smooth="yes"/>
      <point x="192" y="254" type="line" smooth="yes"/>
      <point x="179" y="242"/>
      <point x="157" y="242"/>
      <point x="145" y="255" type="curve" smooth="yes"/>
      <point x="133" y="268"/>
      <point x="133" y="290"/>
      <point x="146" y="302" type="curve" smooth="yes"/>
      <point x="385" y="528" type="line" smooth="yes"/>
      <point x="398" y="540"/>
      <point x="420" y="540"/>
      <point x="432" y="527" type="curve" smooth="yes"/>
      <point x="444" y="514"/>
      <point x="444" y="492"/>
    </contour>
  </outline>
</glyph>
<glyph name="five" format="1">
  <advance width="531"/>
  <unicode hex="0035"/>
  <outline>
    <contour>
      <point x="149" y="545" type="curve" smooth="yes"/>
      <point x="406" y="545" type="line" smooth="yes"/>
      <point x="424" y="545"/>
      <point x="439" y="530"/>
      <point x="439" y="512" type="curve" smooth="yes"/>
      <point x="439" y="494"/>
      <point x="424" y="479"/>
      <point x="406" y="479" type="curve" smooth="yes"/>
      <point x="149" y="479" type="line" smooth="yes"/>
      <point x="131" y="479"/>
      <point x="116" y="494"/>
      <point x="116" y="512" type="curve" smooth="yes"/>
      <point x="116" y="530"/>
      <point x="131" y="545"/>
    </contour>
    <contour>
      <point x="115" y="88" type="curve" smooth="yes"/>
      <point x="154" y="70"/>
      <point x="210" y="56"/>
      <point x="271" y="56" type="curve" smooth="yes"/>
      <point x="360" y="56"/>
      <point x="404" y="105"/>
      <point x="404" y="171" type="curve" smooth="yes"/>
      <point x="404" y="233"/>
      <point x="351" y="274"/>
      <point x="275" y="274" type="curve" smooth="yes"/>
      <point x="215" y="274"/>
      <point x="172" y="259"/>
      <point x="143" y="245" type="curve" smooth="yes"/>
      <point x="127" y="238"/>
      <point x="107" y="245"/>
      <point x="99" y="261" type="curve" smooth="yes"/>
      <point x="92" y="277"/>
      <point x="99" y="297"/>
      <point x="115" y="305" type="curve" smooth="yes"/>
      <point x="150" y="321"/>
      <point x="203" y="340"/>
      <point x="275" y="340" type="curve" smooth="yes"/>
      <point x="401" y="340"/>
      <point x="470" y="265"/>
      <point x="470" y="171" type="curve" smooth="yes"/>
      <point x="470" y="72"/>
      <point x="410" y="-10"/>
      <point x="271" y="-10" type="curve" smooth="yes"/>
      <point x="200" y="-10"/>
      <point x="134" y="6"/>
      <point x="87" y="28" type="curve" smooth="yes"/>
      <point x="71" y="36"/>
      <point x="64" y="56"/>
      <point x="71" y="72" type="curve" smooth="yes"/>
      <point x="79" y="88"/>
      <point x="99" y="95"/>
    </contour>
    <contour>
      <point x="181" y="502" type="curve" smooth="yes"/>
      <point x="162" y="277" type="line" smooth="yes"/>
      <point x="160" y="259"/>
      <point x="144" y="246"/>
      <point x="126" y="247" type="curve" smooth="yes"/>
      <point x="108" y="249"/>
      <point x="95" y="265"/>
      <point x="96" y="283" type="curve" smooth="yes"/>
      <point x="115" y="508" type="line" smooth="yes"/>
      <point x="117" y="526"/>
      <point x="133" y="539"/>
      <point x="151" y="538" type="curve" smooth="yes"/>
      <point x="169" y="536"/>
      <point x="182" y="520"/>
    </contour>
  </outline>
</glyph>
<glyph name="six" format="1">
  <advance width="549"/>
  <unicode hex="0036"/>
  <outline>
    <contour>
      <point x="383" y="471" type="curve" smooth="yes"/>
      <point x="359" y="479"/>
      <point x="340" y="483"/>
      <point x="311" y="483" type="curve" smooth="yes"/>
      <point x="196" y="483"/>
      <point x="133" y="391"/>
      <point x="133" y="251" type="curve" smooth="yes"/>
      <point x="133" y="125"/>
      <point x="194" y="56"/>
      <point x="290" y="56" type="curve" smooth="yes"/>
      <point x="383" y="56"/>
      <point x="424" y="116"/>
      <point x="424" y="175" type="curve" smooth="yes"/>
      <point x="424" y="239"/>
      <point x="376" y="280"/>
      <point x="310" y="280" type="curve" smooth="yes"/>
      <point x="233" y="280"/>
      <point x="173" y="225"/>
      <point x="148" y="135" type="curve" smooth="yes"/>
      <point x="143" y="118"/>
      <point x="124" y="107"/>
      <point x="107" y="112" type="curve" smooth="yes"/>
      <point x="90" y="117"/>
      <point x="79" y="136"/>
      <point x="84" y="153" type="curve" smooth="yes"/>
      <point x="119" y="279"/>
      <point x="207" y="346"/>
      <point x="310" y="346" type="curve" smooth="yes"/>
      <point x="418" y="346"/>
      <point x="490" y="275"/>
      <point x="490" y="175" type="curve" smooth="yes"/>
      <point x="490" y="86"/>
      <point x="435" y="-10"/>
      <point x="290" y="-10" type="curve" smooth="yes"/>
      <point x="162" y="-10"/>
      <point x="67" y="71"/>
      <point x="67" y="251" type="curve" smooth="yes"/>
      <point x="67" y="443"/>
      <point x="164" y="549"/>
      <point x="311" y="549" type="curve" smooth="yes"/>
      <point x="348" y="549"/>
      <point x="373" y="543"/>
      <point x="403" y="533" type="curve" smooth="yes"/>
      <point x="420" y="528"/>
      <point x="430" y="508"/>
      <point x="424" y="492" type="curve" smooth="yes"/>
      <point x="419" y="475"/>
      <point x="399" y="465"/>
    </contour>
  </outline>
</glyph>
<glyph name="question" format="1">
  <advance width="381"/>
  <unicode hex="003F"/>
  <outline>
    <contour>
      <point x="58" y="534" type="curve" smooth="yes"/>
      <point x="98" y="559"/>
      <point x="136" y="574"/>
      <point x="199" y="574" type="curve" smooth="yes"/>
      <point x="298" y="574"/>
      <point x="352" y="510"/>
      <point x="352" y="443" type="curve" smooth="yes"/>
      <point x="352" y="374"/>
      <point x="318" y="334"/>
      <point x="239" y="290" type="curve" smooth="yes"/>
      <point x="204" y="270"/>
      <point x="195" y="251"/>
      <point x="193" y="220" type="curve" smooth="yes"/>
      <point x="192" y="204"/>
      <point x="177" y="191"/>
      <point x="161" y="192" type="curve" smooth="yes"/>
      <point x="145" y="193"/>
      <point x="132" y="208"/>
      <point x="133" y="224" type="curve" smooth="yes"/>
      <point x="137" y="275"/>
      <point x="150" y="308"/>
      <point x="209" y="342" type="curve" smooth="yes"/>
      <point x="262" y="372"/>
      <point x="292" y="394"/>
      <point x="292" y="443" type="curve" smooth="yes"/>
      <point x="292" y="484"/>
      <point x="252" y="514"/>
      <point x="199" y="514" type="curve" smooth="yes"/>
      <point x="150" y="514"/>
      <point x="120" y="503"/>
      <point x="90" y="484" type="curve" smooth="yes"/>
      <point x="76" y="475"/>
      <point x="57" y="479"/>
      <point x="49" y="493" type="curve" smooth="yes"/>
      <point x="40" y="507"/>
      <point x="44" y="526"/>
    </contour>
    <component base="period" xOffset="50"/>
    <component base="period" xOffset="50"/>
  </outline>
</glyph>
<glyph name="V" format="1">
  <advance width="595"/>
  <unicode hex="0056"/>
  <outline>
    <contour>
      <point x="111" y="523" type="curve" smooth="yes"/>
      <point x="151" y="401"/>
      <point x="284" y="112"/>
      <point x="324" y="39" type="curve" smooth="yes"/>
      <point x="333" y="23"/>
      <point x="326" y="2"/>
      <point x="311" y="-6" type="curve" smooth="yes"/>
      <point x="295" y="-15"/>
      <point x="274" y="-8"/>
      <point x="266" y="7" type="curve" smooth="yes"/>
      <point x="226" y="82"/>
      <point x="89" y="377"/>
      <point x="49" y="503" type="curve" smooth="yes"/>
      <point x="43" y="520"/>
      <point x="53" y="539"/>
      <point x="70" y="544" type="curve" smooth="yes"/>
      <point x="87" y="550"/>
      <point x="106" y="540"/>
    </contour>
    <contour>
      <point x="269" y="32" type="curve" smooth="yes"/>
      <point x="312" y="116"/>
      <point x="435" y="381"/>
      <point x="484" y="523" type="curve" smooth="yes"/>
      <point x="490" y="540"/>
      <point x="509" y="549"/>
      <point x="526" y="543" type="curve" smooth="yes"/>
      <point x="543" y="537"/>
      <point x="552" y="518"/>
      <point x="546" y="501" type="curve" smooth="yes"/>
      <point x="497" y="357"/>
      <point x="372" y="86"/>
      <point x="327" y="2" type="curve" smooth="yes"/>
      <point x="319" y="-14"/>
      <point x="298" y="-21"/>
      <point x="283" y="-12" type="curve" smooth="yes"/>
      <point x="267" y="-4"/>
      <point x="260" y="17"/>
    </contour>
  </outline>
</glyph>
<glyph name="underscore" format="1">
  <advance width="545"/>
  <unicode hex="005F"/>
  <outline>
    <contour>
      <point x="65" y="-64" type="curve" smooth="yes"/>
      <point x="480" y="-64" type="line" smooth="yes"/>
      <point x="498" y="-64"/>
      <point x="513" y="-79"/>
      <point x="513" y="-97" type="curve" smooth="yes"/>
      <point x="513" y="-115"/>
      <point x="498" y="-130"/>
      <point x="480" y="-130" type="curve" smooth="yes"/>
      <point x="65" y="-130" type="line" smooth="yes"/>
      <point x="47" y="-130"/>
      <point x="32" y="-115"/>
      <point x="32" y="-97" type="curve" smooth="yes"/>
      <point x="32" y="-79"/>
      <point x="47" y="-64"/>
    </contour>
  </outline>
</glyph>
<glyph name="w" format="1">
  <advance width="709"/>
  <unicode hex="0077"/>
  <outline>
    <contour>
      <point x="110" y="377" type="curve" smooth="yes"/>
      <point x="146" y="246"/>
      <point x="193" y="123"/>
      <point x="234" y="38" type="curve"/>
      <point x="204" y="57" type="line"/>
      <point x="206" y="57" type="line"/>
      <point x="176" y="39" type="line"/>
      <point x="219" y="123"/>
      <point x="286" y="260"/>
      <point x="319" y="368" type="curve" smooth="yes"/>
      <point x="325" y="385"/>
      <point x="344" y="395"/>
      <point x="361" y="390" type="curve" smooth="yes"/>
      <point x="378" y="384"/>
      <point x="388" y="365"/>
      <point x="383" y="348" type="curve" smooth="yes"/>
      <point x="348" y="238"/>
      <point x="279" y="97"/>
      <point x="236" y="9" type="curve" smooth="yes"/>
      <point x="230" y="-1"/>
      <point x="217" y="-9"/>
      <point x="206" y="-9" type="curve" smooth="yes"/>
      <point x="204" y="-9" type="line" smooth="yes"/>
      <point x="192" y="-9"/>
      <point x="179" y="-1"/>
      <point x="174" y="10" type="curve" smooth="yes"/>
      <point x="133" y="97"/>
      <point x="84" y="224"/>
      <point x="46" y="359" type="curve" smooth="yes"/>
      <point x="41" y="376"/>
      <point x="52" y="395"/>
      <point x="69" y="400" type="curve" smooth="yes"/>
      <point x="86" y="405"/>
      <point x="105" y="394"/>
    </contour>
    <contour>
      <point x="389" y="369" type="curve" smooth="yes"/>
      <point x="435" y="238"/>
      <point x="488" y="123"/>
      <point x="533" y="39" type="curve"/>
      <point x="504" y="56" type="line"/>
      <point x="506" y="56" type="line"/>
      <point x="476" y="37" type="line"/>
      <point x="514" y="121"/>
      <point x="568" y="257"/>
      <point x="600" y="376" type="curve" smooth="yes"/>
      <point x="605" y="393"/>
      <point x="624" y="404"/>
      <point x="641" y="399" type="curve" smooth="yes"/>
      <point x="658" y="394"/>
      <point x="669" y="375"/>
      <point x="664" y="358" type="curve" smooth="yes"/>
      <point x="630" y="237"/>
      <point x="576" y="97"/>
      <point x="536" y="9" type="curve" smooth="yes"/>
      <point x="531" y="-1"/>
      <point x="518" y="-10"/>
      <point x="506" y="-10" type="curve" smooth="yes"/>
      <point x="504" y="-10" type="line" smooth="yes"/>
      <point x="493" y="-10"/>
      <point x="480" y="-2"/>
      <point x="475" y="7" type="curve" smooth="yes"/>
      <point x="428" y="95"/>
      <point x="375" y="212"/>
      <point x="327" y="347" type="curve" smooth="yes"/>
      <point x="321" y="364"/>
      <point x="330" y="383"/>
      <point x="347" y="389" type="curve" smooth="yes"/>
      <point x="364" y="395"/>
      <point x="383" y="386"/>
    </contour>
  </outline>
</glyph>
<glyph name="cent" format="1">
  <advance width="443"/>
  <unicode hex="00A2"/>
  <outline>
    <contour>
      <point x="277" y="511" type="curve" smooth="yes"/>
      <point x="277" y="27" type="line" smooth="yes"/>
      <point x="277" y="9"/>
      <point x="262" y="-6"/>
      <point x="244" y="-6" type="curve" smooth="yes"/>
      <point x="226" y="-6"/>
      <point x="211" y="9"/>
      <point x="211" y="27" type="curve" smooth="yes"/>
      <point x="211" y="511" type="line" smooth="yes"/>
      <point x="211" y="529"/>
      <point x="226" y="544"/>
      <point x="244" y="544" type="curve" smooth="yes"/>
      <point x="262" y="544"/>
      <point x="277" y="529"/>
    </contour>
    <contour>
      <point x="345" y="384" type="curve" smooth="yes"/>
      <point x="320" y="392"/>
      <point x="291" y="397"/>
      <point x="265" y="397" type="curve" smooth="yes"/>
      <point x="170" y="397"/>
      <point x="112" y="340"/>
      <point x="112" y="259" type="curve" smooth="yes"/>
      <point x="112" y="188"/>
      <point x="170" y="137"/>
      <point x="264" y="137" type="curve" smooth="yes"/>
      <point x="301" y="137"/>
      <point x="330" y="144"/>
      <point x="355" y="153" type="curve" smooth="yes"/>
      <point x="372" y="159"/>
      <point x="391" y="150"/>
      <point x="397" y="133" type="curve" smooth="yes"/>
      <point x="403" y="116"/>
      <point x="394" y="97"/>
      <point x="377" y="91" type="curve" smooth="yes"/>
      <point x="346" y="80"/>
      <point x="309" y="71"/>
      <point x="264" y="71" type="curve" smooth="yes"/>
      <point x="120" y="71"/>
      <point x="46" y="156"/>
      <point x="46" y="259" type="curve"/>
      <point x="46" y="376"/>
      <point x="124" y="463"/>
      <point x="265" y="463" type="curve" smooth="yes"/>
      <point x="297" y="463"/>
      <point x="334" y="456"/>
      <point x="363" y="448" type="curve" smooth="yes"/>
      <point x="380" y="443"/>
      <point x="391" y="424"/>
      <point x="386" y="407" type="curve" smooth="yes"/>
      <point x="381" y="390"/>
      <point x="362" y="379"/>
    </contour>
  </outline>
</glyph>
<glyph name="dieresis" format="1">
  <advance width="500"/>
  <unicode hex="00A8"/>
  <outline>
    <contour>
      <point x="156" y="613" type="curve" smooth="yes"/>
      <point x="179" y="613"/>
      <point x="204" y="596"/>
      <point x="204" y="554" type="curve" smooth="yes"/>
      <point x="204" y="512"/>
      <point x="180" y="497"/>
      <point x="156" y="497" type="curve" smooth="yes"/>
      <point x="130" y="497"/>
      <point x="105" y="517"/>
      <point x="105" y="554" type="curve" smooth="yes"/>
      <point x="105" y="591"/>
      <point x="131" y="613"/>
    </contour>
    <contour>
      <point x="334" y="613" type="curve" smooth="yes"/>
      <point x="357" y="613"/>
      <point x="382" y="596"/>
      <point x="382" y="554" type="curve" smooth="yes"/>
      <point x="382" y="512"/>
      <point x="358" y="497"/>
      <point x="334" y="497" type="curve" smooth="yes"/>
      <point x="308" y="497"/>
      <point x="283" y="517"/>
      <point x="283" y="554" type="curve" smooth="yes"/>
      <point x="283" y="591"/>
      <point x="309" y="613"/>
    </contour>
    <contour>
      <point x="156" y="547" type="curve" smooth="yes"/>
      <point x="159" y="547"/>
      <point x="171" y="543"/>
      <point x="171" y="554" type="curve" smooth="yes"/>
      <point x="171" y="565"/>
      <point x="160" y="563"/>
      <point x="156" y="563" type="curve" smooth="yes"/>
      <point x="152" y="563"/>
      <point x="138" y="570"/>
      <point x="138" y="554" type="curve" smooth="yes"/>
      <point x="138" y="538"/>
      <point x="153" y="547"/>
    </contour>
    <contour>
      <point x="334" y="547" type="curve" smooth="yes"/>
      <point x="337" y="547"/>
      <point x="349" y="543"/>
      <point x="349" y="554" type="curve" smooth="yes"/>
      <point x="349" y="565"/>
      <point x="338" y="563"/>
      <point x="334" y="563" type="curve" smooth="yes"/>
      <point x="330" y="563"/>
      <point x="316" y="570"/>
      <point x="316" y="554" type="curve" smooth="yes"/>
      <point x="316" y="538"/>
      <point x="331" y="547"/>
    </contour>
  </outline>
</glyph>
<glyph name="guillemotleft" format="1">
  <advance width="448"/>
  <unicode hex="00AB"/>
  <outline>
    <contour>
      <point x="271" y="214" type="curve" smooth="yes"/>
      <point x="382" y="90" type="line" smooth="yes"/>
      <point x="393" y="77"/>
      <point x="392" y="55"/>
      <point x="379" y="43" type="curve" smooth="yes"/>
      <point x="366" y="32"/>
      <point x="344" y="33"/>
      <point x="332" y="46" type="curve" smooth="yes"/>
      <point x="221" y="170" type="line" smooth="yes"/>
      <point x="210" y="183"/>
      <point x="211" y="205"/>
      <point x="224" y="217" type="curve" smooth="yes"/>
      <point x="237" y="228"/>
      <point x="259" y="227"/>
    </contour>
    <contour>
      <point x="382" y="298" type="curve" smooth="yes"/>
      <point x="271" y="174" type="line" smooth="yes"/>
      <point x="259" y="161"/>
      <point x="237" y="160"/>
      <point x="224" y="171" type="curve" smooth="yes"/>
      <point x="211" y="183"/>
      <point x="210" y="205"/>
      <point x="221" y="218" type="curve" smooth="yes"/>
      <point x="332" y="342" type="line" smooth="yes"/>
      <point x="344" y="355"/>
      <point x="366" y="356"/>
      <point x="379" y="345" type="curve" smooth="yes"/>
      <point x="392" y="333"/>
      <point x="393" y="311"/>
    </contour>
    <contour>
      <point x="101" y="214" type="curve" smooth="yes"/>
      <point x="212" y="90" type="line" smooth="yes"/>
      <point x="223" y="77"/>
      <point x="222" y="55"/>
      <point x="209" y="43" type="curve" smooth="yes"/>
      <point x="196" y="32"/>
      <point x="174" y="33"/>
      <point x="162" y="46" type="curve" smooth="yes"/>
      <point x="51" y="170" type="line" smooth="yes"/>
      <point x="40" y="183"/>
      <point x="41" y="205"/>
      <point x="54" y="217" type="curve" smooth="yes"/>
      <point x="67" y="228"/>
      <point x="89" y="227"/>
    </contour>
    <contour>
      <point x="212" y="298" type="curve" smooth="yes"/>
      <point x="101" y="174" type="line" smooth="yes"/>
      <point x="89" y="161"/>
      <point x="67" y="160"/>
      <point x="54" y="171" type="curve" smooth="yes"/>
      <point x="41" y="183"/>
      <point x="40" y="205"/>
      <point x="51" y="218" type="curve" smooth="yes"/>
      <point x="162" y="342" type="line" smooth="yes"/>
      <point x="174" y="355"/>
      <point x="196" y="356"/>
      <point x="209" y="345" type="curve" smooth="yes"/>
      <point x="222" y="333"/>
      <point x="223" y="311"/>
    </contour>
  </outline>
</glyph>
<glyph name="degree" format="1">
  <advance width="369"/>
  <unicode hex="00B0"/>
  <outline>
    <contour>
      <point x="185" y="550" type="curve" smooth="yes"/>
      <point x="269" y="550"/>
      <point x="321" y="490"/>
      <point x="321" y="413" type="curve" smooth="yes"/>
      <point x="321" y="340"/>
      <point x="269" y="281"/>
      <point x="185" y="281" type="curve" smooth="yes"/>
      <point x="100" y="281"/>
      <point x="48" y="339"/>
      <point x="48" y="413" type="curve"/>
      <point x="48" y="488"/>
      <point x="98" y="550"/>
    </contour>
    <contour>
      <point x="185" y="484" type="curve" smooth="yes"/>
      <point x="140" y="484"/>
      <point x="114" y="452"/>
      <point x="114" y="413" type="curve" smooth="yes"/>
      <point x="114" y="375"/>
      <point x="142" y="347"/>
      <point x="185" y="347" type="curve" smooth="yes"/>
      <point x="227" y="347"/>
      <point x="255" y="376"/>
      <point x="255" y="413" type="curve" smooth="yes"/>
      <point x="255" y="452"/>
      <point x="229" y="484"/>
    </contour>
  </outline>
</glyph>
<glyph name="dotaccent" format="1">
  <advance width="500"/>
  <unicode hex="02D9"/>
  <outline>
    <contour>
      <point x="241" y="594" type="curve" smooth="yes"/>
      <point x="266" y="594"/>
      <point x="291" y="573"/>
      <point x="291" y="535" type="curve" smooth="yes"/>
      <point x="291" y="497"/>
      <point x="267" y="478"/>
      <point x="241" y="478" type="curve" smooth="yes"/>
      <point x="213" y="478"/>
      <point x="189" y="499"/>
      <point x="189" y="535" type="curve" smooth="yes"/>
      <point x="189" y="571"/>
      <point x="214" y="594"/>
    </contour>
    <contour>
      <point x="241" y="528" type="curve" smooth="yes"/>
      <point x="244" y="528"/>
      <point x="255" y="525"/>
      <point x="255" y="535" type="curve" smooth="yes"/>
      <point x="255" y="545"/>
      <point x="246" y="544"/>
      <point x="241" y="544" type="curve" smooth="yes"/>
      <point x="237" y="544"/>
      <point x="225" y="547"/>
      <point x="225" y="535" type="curve" smooth="yes"/>
      <point x="225" y="523"/>
      <point x="238" y="528"/>
    </contour>
  </outline>
</glyph>
<glyph name="ogonek" format="1">
  <advance width="500"/>
  <unicode hex="02DB"/>
  <outline>
    <contour>
      <point x="284" y="3" type="curve" smooth="yes"/>
      <point x="243" y="-34"/>
      <point x="230" y="-62"/>
      <point x="230" y="-85" type="curve" smooth="yes"/>
      <point x="230" y="-95"/>
      <point x="234" y="-103"/>
      <point x="240" y="-110" type="curve" smooth="yes"/>
      <point x="250" y="-119"/>
      <point x="264" y="-122"/>
      <point x="276" y="-122" type="curve" smooth="yes"/>
      <point x="291" y="-122"/>
      <point x="307" y="-118"/>
      <point x="317" y="-114" type="curve" smooth="yes"/>
      <point x="334" y="-109"/>
      <point x="353" y="-119"/>
      <point x="359" y="-136" type="curve" smooth="yes"/>
      <point x="364" y="-153"/>
      <point x="354" y="-172"/>
      <point x="337" y="-178" type="curve" smooth="yes"/>
      <point x="321" y="-182"/>
      <point x="299" y="-188"/>
      <point x="276" y="-188" type="curve" smooth="yes"/>
      <point x="248" y="-188"/>
      <point x="216" y="-179"/>
      <point x="194" y="-156" type="curve" smooth="yes"/>
      <point x="174" y="-137"/>
      <point x="164" y="-113"/>
      <point x="164" y="-85" type="curve" smooth="yes"/>
      <point x="164" y="-50"/>
      <point x="177" y="-6"/>
      <point x="240" y="51" type="curve" smooth="yes"/>
      <point x="253" y="63"/>
      <point x="275" y="62"/>
      <point x="286" y="49" type="curve" smooth="yes"/>
      <point x="298" y="36"/>
      <point x="297" y="14"/>
    </contour>
  </outline>
</glyph>
<glyph name="hungarumlaut" format="1">
  <advance width="500"/>
  <unicode hex="02DD"/>
  <outline>
    <contour>
      <point x="218" y="576" type="curve" smooth="yes"/>
      <point x="197" y="543"/>
      <point x="183" y="515"/>
      <point x="172" y="487" type="curve" smooth="yes"/>
      <point x="165" y="470"/>
      <point x="145" y="462"/>
      <point x="129" y="468" type="curve" smooth="yes"/>
      <point x="112" y="475"/>
      <point x="104" y="495"/>
      <point x="110" y="511" type="curve" smooth="yes"/>
      <point x="123" y="543"/>
      <point x="139" y="575"/>
      <point x="162" y="612" type="curve" smooth="yes"/>
      <point x="172" y="627"/>
      <point x="192" y="631"/>
      <point x="208" y="622" type="curve" smooth="yes"/>
      <point x="223" y="612"/>
      <point x="227" y="592"/>
    </contour>
    <contour>
      <point x="383" y="576" type="curve" smooth="yes"/>
      <point x="362" y="543"/>
      <point x="348" y="515"/>
      <point x="337" y="487" type="curve" smooth="yes"/>
      <point x="330" y="470"/>
      <point x="310" y="462"/>
      <point x="294" y="468" type="curve" smooth="yes"/>
      <point x="277" y="475"/>
      <point x="269" y="495"/>
      <point x="275" y="511" type="curve" smooth="yes"/>
      <point x="288" y="543"/>
      <point x="304" y="575"/>
      <point x="327" y="612" type="curve" smooth="yes"/>
      <point x="337" y="627"/>
      <point x="357" y="631"/>
      <point x="373" y="622" type="curve" smooth="yes"/>
      <point x="388" y="612"/>
      <point x="392" y="592"/>
    </contour>
  </outline>
</glyph>
<glyph name="mu" format="1">
  <advance width="507"/>
  <unicode hex="03BC"/>
  <outline>
    <contour>
      <point x="138" y="201" type="curve" smooth="yes"/>
      <point x="138" y="-123" type="line" smooth="yes"/>
      <point x="138" y="-141"/>
      <point x="123" y="-156"/>
      <point x="105" y="-156" type="curve" smooth="yes"/>
      <point x="87" y="-156"/>
      <point x="72" y="-141"/>
      <point x="72" y="-123" type="curve" smooth="yes"/>
      <point x="72" y="201" type="line" smooth="yes"/>
      <point x="72" y="219"/>
      <point x="87" y="234"/>
      <point x="105" y="234" type="curve" smooth="yes"/>
      <point x="123" y="234"/>
      <point x="138" y="219"/>
    </contour>
    <component base="u"/>
    <component base="u"/>
  </outline>
</glyph>
<glyph name="knCandrabindu" format="1">
  <advance width="11"/>
  <unicode hex="0C81"/>
  <outline>
    <contour>
      <point x="2" y="606" type="curve" smooth="yes"/>
      <point x="-28" y="606"/>
      <point x="-51" y="629"/>
      <point x="-51" y="658" type="curve"/>
      <point x="-51" y="685"/>
      <point x="-28" y="710"/>
      <point x="2" y="710" type="curve" smooth="yes"/>
      <point x="32" y="710"/>
      <point x="56" y="684"/>
      <point x="56" y="658" type="curve" smooth="yes"/>
      <point x="56" y="630"/>
      <point x="32" y="606"/>
    </contour>
    <contour>
      <point x="-94" y="610" type="curve" smooth="yes"/>
      <point x="-76" y="581"/>
      <point x="-44" y="554"/>
      <point x="4" y="554" type="curve" smooth="yes"/>
      <point x="55" y="554"/>
      <point x="78" y="580"/>
      <point x="94" y="606" type="curve" smooth="yes"/>
      <point x="103" y="622"/>
      <point x="124" y="626"/>
      <point x="139" y="617" type="curve" smooth="yes"/>
      <point x="155" y="608"/>
      <point x="159" y="587"/>
      <point x="150" y="572" type="curve" smooth="yes"/>
      <point x="124" y="530"/>
      <point x="87" y="488"/>
      <point x="4" y="488" type="curve" smooth="yes"/>
      <point x="-72" y="488"/>
      <point x="-122" y="529"/>
      <point x="-150" y="576" type="curve" smooth="yes"/>
      <point x="-159" y="591"/>
      <point x="-154" y="612"/>
      <point x="-139" y="621" type="curve" smooth="yes"/>
      <point x="-124" y="630"/>
      <point x="-103" y="625"/>
    </contour>
  </outline>
</glyph>
<glyph name="knAnusvara" format="1">
  <advance width="554"/>
  <unicode hex="0C82"/>
  <outline>
    <contour>
      <point x="47" y="224" type="curve"/>
      <point x="47" y="347"/>
      <point x="149" y="456"/>
      <point x="278" y="456" type="curve" smooth="yes"/>
      <point x="406" y="456"/>
      <point x="507" y="344"/>
      <point x="507" y="224" type="curve" smooth="yes"/>
      <point x="507" y="101"/>
      <point x="408" y="-10"/>
      <point x="278" y="-10" type="curve" smooth="yes"/>
      <point x="146" y="-10"/>
      <point x="47" y="100"/>
    </contour>
    <contour>
      <point x="113" y="224" type="curve" smooth="yes"/>
      <point x="113" y="136"/>
      <point x="184" y="56"/>
      <point x="278" y="56" type="curve" smooth="yes"/>
      <point x="372" y="56"/>
      <point x="441" y="137"/>
      <point x="441" y="224" type="curve" smooth="yes"/>
      <point x="441" y="310"/>
      <point x="370" y="390"/>
      <point x="278" y="390" type="curve" smooth="yes"/>
      <point x="185" y="390"/>
      <point x="113" y="312"/>
    </contour>
  </outline>
</glyph>
<glyph name="knVisarga" format="1">
  <advance width="346"/>
  <unicode hex="0C83"/>
  <outline>
    <contour>
      <point x="173" y="486" type="curve" smooth="yes"/>
      <point x="245" y="486"/>
      <point x="290" y="429"/>
      <point x="290" y="372" type="curve" smooth="yes"/>
      <point x="290" y="309"/>
      <point x="245" y="258"/>
      <point x="173" y="258" type="curve" smooth="yes"/>
      <point x="101" y="258"/>
      <point x="56" y="309"/>
      <point x="56" y="372" type="curve"/>
      <point x="56" y="428"/>
      <point x="104" y="486"/>
    </contour>
    <contour>
      <point x="173" y="223" type="curve" smooth="yes"/>
      <point x="245" y="223"/>
      <point x="290" y="167"/>
      <point x="290" y="108" type="curve" smooth="yes"/>
      <point x="290" y="48"/>
      <point x="245" y="-5"/>
      <point x="173" y="-5" type="curve" smooth="yes"/>
      <point x="101" y="-5"/>
      <point x="56" y="48"/>
      <point x="56" y="109" type="curve"/>
      <point x="56" y="165"/>
      <point x="104" y="223"/>
    </contour>
    <contour>
      <point x="173" y="420" type="curve" smooth="yes"/>
      <point x="144" y="420"/>
      <point x="122" y="396"/>
      <point x="122" y="372" type="curve" smooth="yes"/>
      <point x="122" y="345"/>
      <point x="143" y="324"/>
      <point x="173" y="324" type="curve" smooth="yes"/>
      <point x="203" y="324"/>
      <point x="224" y="345"/>
      <point x="224" y="372" type="curve" smooth="yes"/>
      <point x="224" y="397"/>
      <point x="203" y="420"/>
    </contour>
    <contour>
      <point x="173" y="157" type="curve" smooth="yes"/>
      <point x="144" y="157"/>
      <point x="122" y="133"/>
      <point x="122" y="109" type="curve" smooth="yes"/>
      <point x="122" y="82"/>
      <point x="143" y="61"/>
      <point x="173" y="61" type="curve" smooth="yes"/>
      <point x="203" y="61"/>
      <point x="224" y="82"/>
      <point x="224" y="108" type="curve" smooth="yes"/>
      <point x="224" y="134"/>
      <point x="203" y="157"/>
    </contour>
  </outline>
</glyph>
<glyph name="knA" format="1">
  <advance width="758"/>
  <unicode hex="0C85"/>
  <outline>
    <contour>
      <point x="328" y="241" type="curve" smooth="yes"/>
      <point x="540" y="241" type="line" smooth="yes"/>
      <point x="558" y="241"/>
      <point x="573" y="226"/>
      <point x="573" y="208" type="curve" smooth="yes"/>
      <point x="573" y="190"/>
      <point x="558" y="175"/>
      <point x="540" y="175" type="curve" smooth="yes"/>
      <point x="328" y="175" type="line" smooth="yes"/>
      <point x="310" y="175"/>
      <point x="295" y="190"/>
      <point x="295" y="208" type="curve" smooth="yes"/>
      <point x="295" y="226"/>
      <point x="310" y="241"/>
    </contour>
    <contour>
      <point x="129" y="366" type="curve" smooth="yes"/>
      <point x="152" y="334"/>
      <point x="180" y="313"/>
      <point x="211" y="313" type="curve" smooth="yes"/>
      <point x="241" y="313"/>
      <point x="265" y="331"/>
      <point x="265" y="363" type="curve" smooth="yes"/>
      <point x="265" y="394"/>
      <point x="244" y="419"/>
      <point x="209" y="419" type="curve" smooth="yes"/>
      <point x="151" y="419"/>
      <point x="118" y="329"/>
      <point x="118" y="253" type="curve" smooth="yes"/>
      <point x="118" y="144"/>
      <point x="210" y="60"/>
      <point x="366" y="60" type="curve" smooth="yes"/>
      <point x="554" y="60"/>
      <point x="640" y="146"/>
      <point x="640" y="263" type="curve" smooth="yes"/>
      <point x="640" y="352"/>
      <point x="595" y="408"/>
      <point x="547" y="408" type="curve" smooth="yes"/>
      <point x="509" y="408"/>
      <point x="489" y="378"/>
      <point x="489" y="347" type="curve" smooth="yes"/>
      <point x="489" y="306"/>
      <point x="519" y="271"/>
      <point x="556" y="239" type="curve" smooth="yes"/>
      <point x="569" y="227"/>
      <point x="571" y="206"/>
      <point x="559" y="192" type="curve" smooth="yes"/>
      <point x="547" y="179"/>
      <point x="526" y="177"/>
      <point x="512" y="189" type="curve" smooth="yes"/>
      <point x="459" y="235"/>
      <point x="423" y="290"/>
      <point x="423" y="347" type="curve" smooth="yes"/>
      <point x="423" y="414"/>
      <point x="467" y="474"/>
      <point x="547" y="474" type="curve" smooth="yes"/>
      <point x="617" y="474"/>
      <point x="706" y="416"/>
      <point x="706" y="263" type="curve" smooth="yes"/>
      <point x="706" y="118"/>
      <point x="616" y="-6"/>
      <point x="366" y="-6" type="curve" smooth="yes"/>
      <point x="156" y="-6"/>
      <point x="52" y="116"/>
      <point x="52" y="253" type="curve"/>
      <point x="52" y="383"/>
      <point x="129" y="485"/>
      <point x="209" y="485" type="curve" smooth="yes"/>
      <point x="286" y="485"/>
      <point x="331" y="430"/>
      <point x="331" y="363" type="curve" smooth="yes"/>
      <point x="331" y="293"/>
      <point x="279" y="247"/>
      <point x="211" y="247" type="curve" smooth="yes"/>
      <point x="162" y="247"/>
      <point x="114" y="274"/>
      <point x="75" y="326" type="curve" smooth="yes"/>
      <point x="65" y="341"/>
      <point x="68" y="362"/>
      <point x="82" y="373" type="curve" smooth="yes"/>
      <point x="97" y="383"/>
      <point x="118" y="380"/>
    </contour>
  </outline>
</glyph>
<glyph name="knI" format="1">
  <advance width="689"/>
  <unicode hex="0C87"/>
  <outline>
    <contour>
      <point x="529" y="-30" type="curve" smooth="yes"/>
      <point x="485" y="98"/>
      <point x="408" y="173"/>
      <point x="324" y="173" type="curve" smooth="yes"/>
      <point x="282" y="173"/>
      <point x="252" y="151"/>
      <point x="252" y="126" type="curve" smooth="yes"/>
      <point x="252" y="100"/>
      <point x="282" y="80"/>
      <point x="325" y="80" type="curve" smooth="yes"/>
      <point x="472" y="80"/>
      <point x="580" y="221"/>
      <point x="580" y="316" type="curve" smooth="yes"/>
      <point x="580" y="373"/>
      <point x="548" y="410"/>
      <point x="497" y="410" type="curve" smooth="yes"/>
      <point x="440" y="410"/>
      <point x="409" y="368"/>
      <point x="378" y="314" type="curve" smooth="yes"/>
      <point x="372" y="304"/>
      <point x="360" y="297"/>
      <point x="349" y="297" type="curve" smooth="yes"/>
      <point x="344" y="297" type="line" smooth="yes"/>
      <point x="333" y="297"/>
      <point x="320" y="305"/>
      <point x="315" y="314" type="curve" smooth="yes"/>
      <point x="285" y="369"/>
      <point x="248" y="411"/>
      <point x="188" y="411" type="curve" smooth="yes"/>
      <point x="139" y="411"/>
      <point x="110" y="375"/>
      <point x="110" y="332" type="curve" smooth="yes"/>
      <point x="110" y="314"/>
      <point x="116" y="295"/>
      <point x="128" y="275" type="curve" smooth="yes"/>
      <point x="137" y="260"/>
      <point x="132" y="239"/>
      <point x="117" y="230" type="curve" smooth="yes"/>
      <point x="102" y="221"/>
      <point x="81" y="226"/>
      <point x="72" y="241" type="curve" smooth="yes"/>
      <point x="52" y="273"/>
      <point x="44" y="302"/>
      <point x="44" y="332" type="curve"/>
      <point x="44" y="411"/>
      <point x="99" y="477"/>
      <point x="188" y="477" type="curve" smooth="yes"/>
      <point x="272" y="477"/>
      <point x="329" y="425"/>
      <point x="373" y="346" type="curve"/>
      <point x="344" y="363" type="line"/>
      <point x="349" y="363" type="line"/>
      <point x="320" y="346" type="line"/>
      <point x="367" y="428"/>
      <point x="418" y="476"/>
      <point x="497" y="476" type="curve" smooth="yes"/>
      <point x="584" y="476"/>
      <point x="646" y="417"/>
      <point x="646" y="316" type="curve" smooth="yes"/>
      <point x="646" y="197"/>
      <point x="512" y="14"/>
      <point x="325" y="14" type="curve" smooth="yes"/>
      <point x="222" y="14"/>
      <point x="186" y="76"/>
      <point x="186" y="126" type="curve" smooth="yes"/>
      <point x="186" y="175"/>
      <point x="222" y="239"/>
      <point x="324" y="239" type="curve" smooth="yes"/>
      <point x="428" y="239"/>
      <point x="535" y="158"/>
      <point x="591" y="-8" type="curve" smooth="yes"/>
      <point x="597" y="-25"/>
      <point x="587" y="-45"/>
      <point x="571" y="-50" type="curve" smooth="yes"/>
      <point x="554" y="-56"/>
      <point x="534" y="-46"/>
    </contour>
  </outline>
</glyph>
<glyph name="knII" format="1">
  <advance width="953"/>
  <unicode hex="0C88"/>
  <outline>
    <contour>
      <point x="130" y="222" type="curve" smooth="yes"/>
      <point x="130" y="347"/>
      <point x="237" y="470"/>
      <point x="372" y="470" type="curve" smooth="yes"/>
      <point x="508" y="470"/>
      <point x="613" y="345"/>
      <point x="613" y="222" type="curve" smooth="yes"/>
      <point x="613" y="86"/>
      <point x="517" y="-10"/>
      <point x="372" y="-10" type="curve" smooth="yes"/>
      <point x="227" y="-10"/>
      <point x="130" y="84"/>
    </contour>
    <contour>
      <point x="762" y="28" type="curve" smooth="yes"/>
      <point x="762" y="80"/>
      <point x="746" y="119"/>
      <point x="728" y="152" type="curve" smooth="yes"/>
      <point x="705" y="195"/>
      <point x="680" y="258"/>
      <point x="680" y="301" type="curve" smooth="yes"/>
      <point x="680" y="391"/>
      <point x="738" y="437"/>
      <point x="800" y="437" type="curve" smooth="yes"/>
      <point x="868" y="437"/>
      <point x="917" y="381"/>
      <point x="917" y="314" type="curve" smooth="yes"/>
      <point x="917" y="248"/>
      <point x="876" y="190"/>
      <point x="783" y="190" type="curve" smooth="yes"/>
      <point x="61" y="190" type="line" smooth="yes"/>
      <point x="43" y="190"/>
      <point x="28" y="205"/>
      <point x="28" y="223" type="curve" smooth="yes"/>
      <point x="28" y="241"/>
      <point x="43" y="256"/>
      <point x="61" y="256" type="curve" smooth="yes"/>
      <point x="783" y="256" type="line" smooth="yes"/>
      <point x="826" y="256"/>
      <point x="851" y="280"/>
      <point x="851" y="314" type="curve" smooth="yes"/>
      <point x="851" y="343"/>
      <point x="832" y="371"/>
      <point x="800" y="371" type="curve" smooth="yes"/>
      <point x="768" y="371"/>
      <point x="746" y="341"/>
      <point x="746" y="301" type="curve" smooth="yes"/>
      <point x="746" y="266"/>
      <point x="769" y="217"/>
      <point x="786" y="184" type="curve" smooth="yes"/>
      <point x="808" y="143"/>
      <point x="828" y="92"/>
      <point x="828" y="28" type="curve" smooth="yes"/>
      <point x="828" y="10"/>
      <point x="813" y="-5"/>
      <point x="795" y="-5" type="curve" smooth="yes"/>
      <point x="777" y="-5"/>
      <point x="762" y="10"/>
    </contour>
    <contour>
      <point x="141" y="470" type="curve" smooth="yes"/>
      <point x="484" y="470" type="line" smooth="yes"/>
      <point x="543" y="470"/>
      <point x="578" y="490"/>
      <point x="604" y="532" type="curve" smooth="yes"/>
      <point x="613" y="547"/>
      <point x="634" y="552"/>
      <point x="649" y="543" type="curve" smooth="yes"/>
      <point x="664" y="534"/>
      <point x="669" y="513"/>
      <point x="660" y="498" type="curve" smooth="yes"/>
      <point x="622" y="436"/>
      <point x="571" y="404"/>
      <point x="484" y="404" type="curve" smooth="yes"/>
      <point x="141" y="404" type="line" smooth="yes"/>
      <point x="123" y="404"/>
      <point x="108" y="419"/>
      <point x="108" y="437" type="curve" smooth="yes"/>
      <point x="108" y="455"/>
      <point x="123" y="470"/>
    </contour>
    <contour>
      <point x="196" y="222" type="curve" smooth="yes"/>
      <point x="196" y="122"/>
      <point x="269" y="56"/>
      <point x="372" y="56" type="curve" smooth="yes"/>
      <point x="475" y="56"/>
      <point x="547" y="124"/>
      <point x="547" y="222" type="curve" smooth="yes"/>
      <point x="547" y="311"/>
      <point x="472" y="404"/>
      <point x="372" y="404" type="curve" smooth="yes"/>
      <point x="273" y="404"/>
      <point x="196" y="313"/>
    </contour>
  </outline>
</glyph>
<glyph name="knU" format="1">
  <advance width="1037"/>
  <unicode hex="0C89"/>
  <outline>
    <contour>
      <point x="135" y="366" type="curve" smooth="yes"/>
      <point x="160" y="334"/>
      <point x="189" y="313"/>
      <point x="222" y="313" type="curve" smooth="yes"/>
      <point x="253" y="313"/>
      <point x="279" y="331"/>
      <point x="279" y="363" type="curve" smooth="yes"/>
      <point x="279" y="394"/>
      <point x="256" y="419"/>
      <point x="220" y="419" type="curve" smooth="yes"/>
      <point x="159" y="419"/>
      <point x="123" y="335"/>
      <point x="123" y="240" type="curve" smooth="yes"/>
      <point x="123" y="138"/>
      <point x="179" y="60"/>
      <point x="257" y="60" type="curve" smooth="yes"/>
      <point x="285" y="60"/>
      <point x="314" y="70"/>
      <point x="333" y="89" type="curve" smooth="yes"/>
      <point x="357" y="114"/>
      <point x="383" y="164"/>
      <point x="407" y="270" type="curve" smooth="yes"/>
      <point x="437" y="405"/>
      <point x="486" y="448"/>
      <point x="547" y="448" type="curve" smooth="yes"/>
      <point x="622" y="448"/>
      <point x="668" y="402"/>
      <point x="684" y="255" type="curve" smooth="yes"/>
      <point x="695" y="151"/>
      <point x="714" y="112"/>
      <point x="736" y="89" type="curve" smooth="yes"/>
      <point x="755" y="71"/>
      <point x="783" y="60"/>
      <point x="819" y="60" type="curve" smooth="yes"/>
      <point x="872" y="60"/>
      <point x="919" y="103"/>
      <point x="919" y="179" type="curve" smooth="yes"/>
      <point x="919" y="270"/>
      <point x="872" y="355"/>
      <point x="813" y="413" type="curve" smooth="yes"/>
      <point x="800" y="426"/>
      <point x="800" y="447"/>
      <point x="812" y="460" type="curve" smooth="yes"/>
      <point x="825" y="473"/>
      <point x="846" y="473"/>
      <point x="859" y="461" type="curve" smooth="yes"/>
      <point x="930" y="391"/>
      <point x="985" y="288"/>
      <point x="985" y="179" type="curve" smooth="yes"/>
      <point x="985" y="53"/>
      <point x="902" y="-6"/>
      <point x="819" y="-6" type="curve" smooth="yes"/>
      <point x="763" y="-6"/>
      <point x="719" y="13"/>
      <point x="690" y="43" type="curve" smooth="yes"/>
      <point x="662" y="70"/>
      <point x="633" y="115"/>
      <point x="618" y="247" type="curve" smooth="yes"/>
      <point x="610" y="324"/>
      <point x="598" y="382"/>
      <point x="547" y="382" type="curve" smooth="yes"/>
      <point x="506" y="382"/>
      <point x="487" y="329"/>
      <point x="471" y="256" type="curve" smooth="yes"/>
      <point x="443" y="128"/>
      <point x="409" y="72"/>
      <point x="379" y="43" type="curve" smooth="yes"/>
      <point x="348" y="12"/>
      <point x="303" y="-6"/>
      <point x="257" y="-6" type="curve" smooth="yes"/>
      <point x="151" y="-6"/>
      <point x="57" y="88"/>
      <point x="57" y="240" type="curve"/>
      <point x="57" y="399"/>
      <point x="137" y="485"/>
      <point x="220" y="485" type="curve" smooth="yes"/>
      <point x="300" y="485"/>
      <point x="345" y="430"/>
      <point x="345" y="363" type="curve" smooth="yes"/>
      <point x="345" y="295"/>
      <point x="293" y="247"/>
      <point x="222" y="247" type="curve" smooth="yes"/>
      <point x="171" y="247"/>
      <point x="122" y="274"/>
      <point x="83" y="326" type="curve" smooth="yes"/>
      <point x="72" y="340"/>
      <point x="75" y="361"/>
      <point x="89" y="372" type="curve" smooth="yes"/>
      <point x="103" y="383"/>
      <point x="124" y="380"/>
    </contour>
  </outline>
</glyph>
<glyph name="knUU" format="1">
  <advance width="1304"/>
  <unicode hex="0C8A"/>
  <outline>
    <contour>
      <point x="130" y="366" type="curve" smooth="yes"/>
      <point x="155" y="334"/>
      <point x="184" y="313"/>
      <point x="217" y="313" type="curve" smooth="yes"/>
      <point x="248" y="313"/>
      <point x="274" y="331"/>
      <point x="274" y="363" type="curve" smooth="yes"/>
      <point x="274" y="394"/>
      <point x="251" y="419"/>
      <point x="215" y="419" type="curve" smooth="yes"/>
      <point x="154" y="419"/>
      <point x="118" y="335"/>
      <point x="118" y="240" type="curve" smooth="yes"/>
      <point x="118" y="138"/>
      <point x="174" y="60"/>
      <point x="252" y="60" type="curve" smooth="yes"/>
      <point x="280" y="60"/>
      <point x="309" y="70"/>
      <point x="328" y="89" type="curve" smooth="yes"/>
      <point x="352" y="114"/>
      <point x="378" y="164"/>
      <point x="402" y="270" type="curve" smooth="yes"/>
      <point x="432" y="407"/>
      <point x="477" y="448"/>
      <point x="535" y="448" type="curve" smooth="yes"/>
      <point x="610" y="448"/>
      <point x="660" y="404"/>
      <point x="664" y="252" type="curve" smooth="yes"/>
      <point x="667" y="149"/>
      <point x="688" y="109"/>
      <point x="710" y="87" type="curve" smooth="yes"/>
      <point x="729" y="69"/>
      <point x="751" y="60"/>
      <point x="784" y="60" type="curve" smooth="yes"/>
      <point x="824" y="60"/>
      <point x="843" y="90"/>
      <point x="843" y="129" type="curve" smooth="yes"/>
      <point x="843" y="182"/>
      <point x="818" y="232"/>
      <point x="818" y="292" type="curve" smooth="yes"/>
      <point x="818" y="375"/>
      <point x="878" y="470"/>
      <point x="993" y="470" type="curve" smooth="yes"/>
      <point x="1107" y="470"/>
      <point x="1252" y="366"/>
      <point x="1252" y="171" type="curve" smooth="yes"/>
      <point x="1252" y="50"/>
      <point x="1186" y="-10"/>
      <point x="1109" y="-10" type="curve" smooth="yes"/>
      <point x="1028" y="-10"/>
      <point x="984" y="48"/>
      <point x="983" y="110" type="curve" smooth="yes"/>
      <point x="982" y="180"/>
      <point x="1032" y="250"/>
      <point x="1130" y="250" type="curve" smooth="yes"/>
      <point x="1162" y="250"/>
      <point x="1196" y="245"/>
      <point x="1224" y="236" type="curve" smooth="yes"/>
      <point x="1241" y="231"/>
      <point x="1251" y="212"/>
      <point x="1245" y="195" type="curve" smooth="yes"/>
      <point x="1240" y="178"/>
      <point x="1221" y="168"/>
      <point x="1204" y="174" type="curve" smooth="yes"/>
      <point x="1182" y="181"/>
      <point x="1156" y="184"/>
      <point x="1130" y="184" type="curve" smooth="yes"/>
      <point x="1080" y="184"/>
      <point x="1048" y="150"/>
      <point x="1049" y="112" type="curve" smooth="yes"/>
      <point x="1050" y="82"/>
      <point x="1072" y="56"/>
      <point x="1109" y="56" type="curve" smooth="yes"/>
      <point x="1158" y="56"/>
      <point x="1186" y="106"/>
      <point x="1186" y="171" type="curve" smooth="yes"/>
      <point x="1186" y="316"/>
      <point x="1081" y="404"/>
      <point x="993" y="404" type="curve" smooth="yes"/>
      <point x="920" y="404"/>
      <point x="884" y="343"/>
      <point x="884" y="292" type="curve" smooth="yes"/>
      <point x="884" y="232"/>
      <point x="909" y="182"/>
      <point x="909" y="129" type="curve" smooth="yes"/>
      <point x="909" y="46"/>
      <point x="862" y="-6"/>
      <point x="784" y="-6" type="curve" smooth="yes"/>
      <point x="729" y="-6"/>
      <point x="693" y="11"/>
      <point x="664" y="41" type="curve" smooth="yes"/>
      <point x="636" y="69"/>
      <point x="601" y="117"/>
      <point x="598" y="250" type="curve" smooth="yes"/>
      <point x="596" y="324"/>
      <point x="586" y="382"/>
      <point x="535" y="382" type="curve" smooth="yes"/>
      <point x="495" y="382"/>
      <point x="482" y="327"/>
      <point x="466" y="256" type="curve" smooth="yes"/>
      <point x="438" y="128"/>
      <point x="404" y="72"/>
      <point x="374" y="43" type="curve" smooth="yes"/>
      <point x="343" y="12"/>
      <point x="298" y="-6"/>
      <point x="252" y="-6" type="curve" smooth="yes"/>
      <point x="146" y="-6"/>
      <point x="52" y="88"/>
      <point x="52" y="240" type="curve"/>
      <point x="52" y="399"/>
      <point x="132" y="485"/>
      <point x="215" y="485" type="curve" smooth="yes"/>
      <point x="295" y="485"/>
      <point x="340" y="430"/>
      <point x="340" y="363" type="curve" smooth="yes"/>
      <point x="340" y="295"/>
      <point x="288" y="247"/>
      <point x="217" y="247" type="curve" smooth="yes"/>
      <point x="166" y="247"/>
      <point x="117" y="274"/>
      <point x="78" y="326" type="curve" smooth="yes"/>
      <point x="67" y="340"/>
      <point x="70" y="361"/>
      <point x="84" y="372" type="curve" smooth="yes"/>
      <point x="98" y="383"/>
      <point x="119" y="380"/>
    </contour>
  </outline>
</glyph>
<glyph name="knvR" format="1">
  <advance width="1056"/>
  <unicode hex="0C8B"/>
  <outline>
    <contour>
      <point x="479" y="470" type="curve" smooth="yes"/>
      <point x="561" y="470" type="line" smooth="yes"/>
      <point x="620" y="470"/>
      <point x="655" y="490"/>
      <point x="681" y="532" type="curve" smooth="yes"/>
      <point x="690" y="547"/>
      <point x="711" y="552"/>
      <point x="726" y="543" type="curve" smooth="yes"/>
      <point x="741" y="534"/>
      <point x="746" y="513"/>
      <point x="737" y="498" type="curve" smooth="yes"/>
      <point x="699" y="436"/>
      <point x="648" y="404"/>
      <point x="561" y="404" type="curve" smooth="yes"/>
      <point x="479" y="404" type="line" smooth="yes"/>
      <point x="461" y="404"/>
      <point x="446" y="419"/>
      <point x="446" y="437" type="curve" smooth="yes"/>
      <point x="446" y="455"/>
      <point x="461" y="470"/>
    </contour>
    <component base="knKha" xOffset="-54" yOffset="-142"/>
    <component base="knUsign" xOffset="1020" yOffset="-512"/>
    <component base="knKHA"/>
    <component base="knsignU" xOffset="755"/>
    <component base="knKha" xOffset="-54" yOffset="-142"/>
    <component base="knUsign" xOffset="1020" yOffset="-512"/>
    <component base="knKHA"/>
    <component base="knsignU" xOffset="755"/>
  </outline>
</glyph>
<glyph name="knvL" format="1">
  <advance width="892"/>
  <unicode hex="0C8C"/>
  <outline>
    <contour>
      <point x="77" y="241" type="curve" smooth="yes"/>
      <point x="57" y="272"/>
      <point x="49" y="302"/>
      <point x="49" y="338" type="curve" smooth="yes"/>
      <point x="49" y="410"/>
      <point x="99" y="477"/>
      <point x="189" y="477" type="curve" smooth="yes"/>
      <point x="263" y="477"/>
      <point x="321" y="426"/>
      <point x="365" y="346" type="curve"/>
      <point x="336" y="363" type="line"/>
      <point x="341" y="363" type="line"/>
      <point x="312" y="346" type="line"/>
      <point x="359" y="427"/>
      <point x="417" y="476"/>
      <point x="493" y="476" type="curve" smooth="yes"/>
      <point x="578" y="476"/>
      <point x="629" y="411"/>
      <point x="629" y="342" type="curve" smooth="yes"/>
      <point x="629" y="295"/>
      <point x="611" y="262"/>
      <point x="587" y="239" type="curve" smooth="yes"/>
      <point x="568" y="220"/>
      <point x="531" y="195"/>
      <point x="457" y="172" type="curve" smooth="yes"/>
      <point x="429" y="164"/>
      <point x="409" y="156"/>
      <point x="396" y="143" type="curve" smooth="yes"/>
      <point x="389" y="135"/>
      <point x="385" y="124"/>
      <point x="385" y="114" type="curve" smooth="yes"/>
      <point x="385" y="102"/>
      <point x="392" y="91"/>
      <point x="404" y="83" type="curve" smooth="yes"/>
      <point x="430" y="66"/>
      <point x="479" y="56"/>
      <point x="567" y="56" type="curve" smooth="yes"/>
      <point x="656" y="56"/>
      <point x="705" y="71"/>
      <point x="735" y="101" type="curve" smooth="yes"/>
      <point x="759" y="126"/>
      <point x="771" y="161"/>
      <point x="771" y="213" type="curve" smooth="yes"/>
      <point x="771" y="265"/>
      <point x="754" y="354"/>
      <point x="715" y="420" type="curve" smooth="yes"/>
      <point x="706" y="435"/>
      <point x="711" y="456"/>
      <point x="726" y="465" type="curve" smooth="yes"/>
      <point x="741" y="474"/>
      <point x="762" y="469"/>
      <point x="771" y="454" type="curve" smooth="yes"/>
      <point x="818" y="376"/>
      <point x="837" y="273"/>
      <point x="837" y="213" type="curve" smooth="yes"/>
      <point x="837" y="137"/>
      <point x="817" y="90"/>
      <point x="781" y="55" type="curve" smooth="yes"/>
      <point x="743" y="17"/>
      <point x="684" y="-10"/>
      <point x="567" y="-10" type="curve" smooth="yes"/>
      <point x="457" y="-10"/>
      <point x="400" y="6"/>
      <point x="368" y="27" type="curve" smooth="yes"/>
      <point x="334" y="49"/>
      <point x="319" y="82"/>
      <point x="319" y="114" type="curve" smooth="yes"/>
      <point x="319" y="142"/>
      <point x="329" y="169"/>
      <point x="350" y="189" type="curve" smooth="yes"/>
      <point x="369" y="208"/>
      <point x="397" y="224"/>
      <point x="437" y="236" type="curve" smooth="yes"/>
      <point x="495" y="253"/>
      <point x="526" y="270"/>
      <point x="541" y="285" type="curve" smooth="yes"/>
      <point x="553" y="298"/>
      <point x="563" y="317"/>
      <point x="563" y="342" type="curve" smooth="yes"/>
      <point x="563" y="377"/>
      <point x="536" y="410"/>
      <point x="493" y="410" type="curve" smooth="yes"/>
      <point x="439" y="410"/>
      <point x="401" y="369"/>
      <point x="370" y="314" type="curve" smooth="yes"/>
      <point x="364" y="304"/>
      <point x="352" y="297"/>
      <point x="341" y="297" type="curve" smooth="yes"/>
      <point x="336" y="297" type="line" smooth="yes"/>
      <point x="325" y="297"/>
      <point x="312" y="305"/>
      <point x="307" y="314" type="curve" smooth="yes"/>
      <point x="277" y="368"/>
      <point x="241" y="411"/>
      <point x="189" y="411" type="curve" smooth="yes"/>
      <point x="141" y="411"/>
      <point x="115" y="376"/>
      <point x="115" y="338" type="curve" smooth="yes"/>
      <point x="115" y="314"/>
      <point x="121" y="296"/>
      <point x="133" y="275" type="curve" smooth="yes"/>
      <point x="142" y="260"/>
      <point x="137" y="239"/>
      <point x="122" y="230" type="curve" smooth="yes"/>
      <point x="107" y="221"/>
      <point x="86" y="226"/>
    </contour>
  </outline>
</glyph>
<glyph name="knE" format="1">
  <advance width="715"/>
  <unicode hex="0C8E"/>
  <outline>
    <contour>
      <point x="183" y="187" type="curve" smooth="yes"/>
      <point x="141" y="181"/>
      <point x="115" y="156"/>
      <point x="115" y="122" type="curve" smooth="yes"/>
      <point x="115" y="85"/>
      <point x="149" y="60"/>
      <point x="193" y="60" type="curve" smooth="yes"/>
      <point x="255" y="60"/>
      <point x="291" y="87"/>
      <point x="321" y="144" type="curve" smooth="yes"/>
      <point x="326" y="153"/>
      <point x="339" y="161"/>
      <point x="350" y="161" type="curve" smooth="yes"/>
      <point x="355" y="161" type="line" smooth="yes"/>
      <point x="366" y="161"/>
      <point x="378" y="154"/>
      <point x="384" y="145" type="curve" smooth="yes"/>
      <point x="416" y="87"/>
      <point x="448" y="60"/>
      <point x="500" y="60" type="curve" smooth="yes"/>
      <point x="555" y="60"/>
      <point x="599" y="101"/>
      <point x="598" y="172" type="curve" smooth="yes"/>
      <point x="597" y="310"/>
      <point x="460" y="430"/>
      <point x="207" y="430" type="curve" smooth="yes"/>
      <point x="189" y="430"/>
      <point x="174" y="445"/>
      <point x="174" y="463" type="curve" smooth="yes"/>
      <point x="174" y="481"/>
      <point x="189" y="496"/>
      <point x="207" y="496" type="curve" smooth="yes"/>
      <point x="524" y="496"/>
      <point x="663" y="334"/>
      <point x="664" y="172" type="curve" smooth="yes"/>
      <point x="665" y="55"/>
      <point x="587" y="-6"/>
      <point x="500" y="-6" type="curve" smooth="yes"/>
      <point x="426" y="-6"/>
      <point x="376" y="27"/>
      <point x="326" y="111" type="curve"/>
      <point x="355" y="95" type="line"/>
      <point x="350" y="95" type="line"/>
      <point x="379" y="112" type="line"/>
      <point x="335" y="31"/>
      <point x="283" y="-6"/>
      <point x="193" y="-6" type="curve" smooth="yes"/>
      <point x="101" y="-6"/>
      <point x="49" y="53"/>
      <point x="49" y="122" type="curve"/>
      <point x="49" y="184"/>
      <point x="91" y="241"/>
      <point x="173" y="253" type="curve" smooth="yes"/>
      <point x="191" y="255"/>
      <point x="208" y="242"/>
      <point x="211" y="225" type="curve" smooth="yes"/>
      <point x="213" y="207"/>
      <point x="200" y="190"/>
    </contour>
  </outline>
</glyph>
<glyph name="knEE" format="1">
  <advance width="715"/>
  <unicode hex="0C8F"/>
  <outline>
    <contour>
      <point x="195" y="477" type="curve" smooth="yes"/>
      <point x="195" y="422"/>
      <point x="223" y="385"/>
      <point x="266" y="385" type="curve" smooth="yes"/>
      <point x="305" y="385"/>
      <point x="329" y="413"/>
      <point x="335" y="456" type="curve" smooth="yes"/>
      <point x="338" y="473"/>
      <point x="355" y="486"/>
      <point x="373" y="484" type="curve" smooth="yes"/>
      <point x="390" y="481"/>
      <point x="403" y="464"/>
      <point x="401" y="446" type="curve" smooth="yes"/>
      <point x="389" y="363"/>
      <point x="337" y="319"/>
      <point x="266" y="319" type="curve" smooth="yes"/>
      <point x="191" y="319"/>
      <point x="129" y="370"/>
      <point x="129" y="477" type="curve" smooth="yes"/>
      <point x="129" y="495"/>
      <point x="144" y="510"/>
      <point x="162" y="510" type="curve" smooth="yes"/>
      <point x="180" y="510"/>
      <point x="195" y="495"/>
    </contour>
    <contour>
      <point x="183" y="187" type="curve" smooth="yes"/>
      <point x="141" y="181"/>
      <point x="115" y="156"/>
      <point x="115" y="122" type="curve" smooth="yes"/>
      <point x="115" y="85"/>
      <point x="149" y="60"/>
      <point x="193" y="60" type="curve" smooth="yes"/>
      <point x="255" y="60"/>
      <point x="291" y="87"/>
      <point x="321" y="144" type="curve" smooth="yes"/>
      <point x="326" y="153"/>
      <point x="339" y="161"/>
      <point x="350" y="161" type="curve" smooth="yes"/>
      <point x="355" y="161" type="line" smooth="yes"/>
      <point x="366" y="161"/>
      <point x="378" y="154"/>
      <point x="384" y="145" type="curve" smooth="yes"/>
      <point x="416" y="87"/>
      <point x="448" y="60"/>
      <point x="500" y="60" type="curve" smooth="yes"/>
      <point x="555" y="60"/>
      <point x="599" y="101"/>
      <point x="598" y="172" type="curve" smooth="yes"/>
      <point x="597" y="280"/>
      <point x="524" y="386"/>
      <point x="363" y="423" type="curve" smooth="yes"/>
      <point x="345" y="427"/>
      <point x="334" y="445"/>
      <point x="338" y="462" type="curve" smooth="yes"/>
      <point x="342" y="480"/>
      <point x="360" y="491"/>
      <point x="377" y="487" type="curve" smooth="yes"/>
      <point x="580" y="442"/>
      <point x="663" y="304"/>
      <point x="664" y="172" type="curve" smooth="yes"/>
      <point x="665" y="55"/>
      <point x="587" y="-6"/>
      <point x="500" y="-6" type="curve" smooth="yes"/>
      <point x="426" y="-6"/>
      <point x="376" y="27"/>
      <point x="326" y="111" type="curve"/>
      <point x="355" y="95" type="line"/>
      <point x="350" y="95" type="line"/>
      <point x="379" y="112" type="line"/>
      <point x="335" y="31"/>
      <point x="283" y="-6"/>
      <point x="193" y="-6" type="curve" smooth="yes"/>
      <point x="101" y="-6"/>
      <point x="49" y="53"/>
      <point x="49" y="122" type="curve"/>
      <point x="49" y="184"/>
      <point x="91" y="241"/>
      <point x="173" y="253" type="curve" smooth="yes"/>
      <point x="191" y="255"/>
      <point x="208" y="242"/>
      <point x="211" y="225" type="curve" smooth="yes"/>
      <point x="213" y="207"/>
      <point x="200" y="190"/>
    </contour>
  </outline>
</glyph>
<glyph name="knAI" format="1">
  <advance width="716"/>
  <unicode hex="0C90"/>
  <outline>
    <contour>
      <point x="179" y="187" type="curve" smooth="yes"/>
      <point x="137" y="181"/>
      <point x="111" y="156"/>
      <point x="111" y="122" type="curve" smooth="yes"/>
      <point x="111" y="85"/>
      <point x="145" y="60"/>
      <point x="189" y="60" type="curve" smooth="yes"/>
      <point x="251" y="60"/>
      <point x="287" y="87"/>
      <point x="317" y="144" type="curve" smooth="yes"/>
      <point x="322" y="153"/>
      <point x="335" y="161"/>
      <point x="346" y="161" type="curve" smooth="yes"/>
      <point x="351" y="161" type="line" smooth="yes"/>
      <point x="362" y="161"/>
      <point x="374" y="154"/>
      <point x="380" y="145" type="curve" smooth="yes"/>
      <point x="413" y="87"/>
      <point x="448" y="60"/>
      <point x="499" y="60" type="curve" smooth="yes"/>
      <point x="562" y="60"/>
      <point x="604" y="113"/>
      <point x="604" y="226" type="curve" smooth="yes"/>
      <point x="604" y="347"/>
      <point x="549" y="404"/>
      <point x="491" y="404" type="curve" smooth="yes"/>
      <point x="447" y="404"/>
      <point x="419" y="375"/>
      <point x="382" y="317" type="curve" smooth="yes"/>
      <point x="377" y="308"/>
      <point x="364" y="301"/>
      <point x="354" y="301" type="curve" smooth="yes"/>
      <point x="349" y="301" type="line" smooth="yes"/>
      <point x="339" y="301"/>
      <point x="326" y="308"/>
      <point x="321" y="317" type="curve" smooth="yes"/>
      <point x="286" y="375"/>
      <point x="258" y="405"/>
      <point x="210" y="405" type="curve" smooth="yes"/>
      <point x="168" y="405"/>
      <point x="137" y="375"/>
      <point x="123" y="327" type="curve" smooth="yes"/>
      <point x="118" y="310"/>
      <point x="99" y="299"/>
      <point x="82" y="304" type="curve" smooth="yes"/>
      <point x="65" y="309"/>
      <point x="54" y="328"/>
      <point x="59" y="345" type="curve" smooth="yes"/>
      <point x="83" y="429"/>
      <point x="140" y="471"/>
      <point x="210" y="471" type="curve" smooth="yes"/>
      <point x="278" y="471"/>
      <point x="324" y="439"/>
      <point x="377" y="351" type="curve"/>
      <point x="349" y="367" type="line"/>
      <point x="354" y="367" type="line"/>
      <point x="326" y="351" type="line"/>
      <point x="381" y="441"/>
      <point x="429" y="470"/>
      <point x="491" y="470" type="curve" smooth="yes"/>
      <point x="571" y="470"/>
      <point x="670" y="417"/>
      <point x="670" y="226" type="curve" smooth="yes"/>
      <point x="670" y="43"/>
      <point x="586" y="-6"/>
      <point x="499" y="-6" type="curve" smooth="yes"/>
      <point x="426" y="-6"/>
      <point x="371" y="27"/>
      <point x="322" y="111" type="curve"/>
      <point x="351" y="95" type="line"/>
      <point x="346" y="95" type="line"/>
      <point x="375" y="112" type="line"/>
      <point x="331" y="31"/>
      <point x="279" y="-6"/>
      <point x="189" y="-6" type="curve" smooth="yes"/>
      <point x="97" y="-6"/>
      <point x="45" y="53"/>
      <point x="45" y="122" type="curve"/>
      <point x="45" y="184"/>
      <point x="87" y="241"/>
      <point x="169" y="253" type="curve" smooth="yes"/>
      <point x="187" y="255"/>
      <point x="204" y="242"/>
      <point x="207" y="225" type="curve" smooth="yes"/>
      <point x="209" y="207"/>
      <point x="196" y="190"/>
    </contour>
  </outline>
</glyph>
<glyph name="knO" format="1">
  <advance width="713"/>
  <unicode hex="0C92"/>
  <outline>
    <contour>
      <point x="52" y="428" type="curve" smooth="yes"/>
      <point x="84" y="464"/>
      <point x="123" y="485"/>
      <point x="168" y="485" type="curve" smooth="yes"/>
      <point x="242" y="485"/>
      <point x="286" y="435"/>
      <point x="286" y="375" type="curve" smooth="yes"/>
      <point x="286" y="329"/>
      <point x="264" y="287"/>
      <point x="195" y="231" type="curve" smooth="yes"/>
      <point x="156" y="200"/>
      <point x="128" y="168"/>
      <point x="128" y="129" type="curve" smooth="yes"/>
      <point x="128" y="90"/>
      <point x="158" y="60"/>
      <point x="207" y="60" type="curve" smooth="yes"/>
      <point x="263" y="60"/>
      <point x="299" y="86"/>
      <point x="336" y="145" type="curve" smooth="yes"/>
      <point x="341" y="154"/>
      <point x="354" y="161"/>
      <point x="364" y="161" type="curve" smooth="yes"/>
      <point x="369" y="161" type="line" smooth="yes"/>
      <point x="379" y="161"/>
      <point x="391" y="154"/>
      <point x="397" y="146" type="curve" smooth="yes"/>
      <point x="431" y="92"/>
      <point x="469" y="60"/>
      <point x="530" y="60" type="curve" smooth="yes"/>
      <point x="580" y="60"/>
      <point x="612" y="93"/>
      <point x="612" y="134" type="curve" smooth="yes"/>
      <point x="612" y="166"/>
      <point x="601" y="193"/>
      <point x="578" y="213" type="curve" smooth="yes"/>
      <point x="565" y="225"/>
      <point x="563" y="246"/>
      <point x="575" y="260" type="curve" smooth="yes"/>
      <point x="587" y="273"/>
      <point x="608" y="275"/>
      <point x="622" y="263" type="curve" smooth="yes"/>
      <point x="659" y="231"/>
      <point x="678" y="188"/>
      <point x="678" y="134" type="curve" smooth="yes"/>
      <point x="678" y="59"/>
      <point x="624" y="-6"/>
      <point x="530" y="-6" type="curve" smooth="yes"/>
      <point x="445" y="-6"/>
      <point x="391" y="34"/>
      <point x="341" y="110" type="curve"/>
      <point x="369" y="95" type="line"/>
      <point x="364" y="95" type="line"/>
      <point x="392" y="111" type="line"/>
      <point x="339" y="26"/>
      <point x="285" y="-6"/>
      <point x="207" y="-6" type="curve" smooth="yes"/>
      <point x="110" y="-6"/>
      <point x="62" y="58"/>
      <point x="62" y="129" type="curve"/>
      <point x="62" y="186"/>
      <point x="96" y="236"/>
      <point x="153" y="283" type="curve" smooth="yes"/>
      <point x="198" y="319"/>
      <point x="220" y="343"/>
      <point x="220" y="375" type="curve" smooth="yes"/>
      <point x="220" y="401"/>
      <point x="198" y="419"/>
      <point x="168" y="419" type="curve" smooth="yes"/>
      <point x="141" y="419"/>
      <point x="120" y="404"/>
      <point x="102" y="384" type="curve" smooth="yes"/>
      <point x="90" y="371"/>
      <point x="68" y="370"/>
      <point x="55" y="381" type="curve" smooth="yes"/>
      <point x="42" y="393"/>
      <point x="41" y="415"/>
    </contour>
  </outline>
</glyph>
<glyph name="knOO" format="1">
  <advance width="713"/>
  <unicode hex="0C93"/>
  <outline>
    <contour>
      <point x="281" y="571" type="curve" smooth="yes"/>
      <point x="268" y="576"/>
      <point x="256" y="582"/>
      <point x="237" y="582" type="curve" smooth="yes"/>
      <point x="208" y="582"/>
      <point x="189" y="560"/>
      <point x="189" y="533" type="curve" smooth="yes"/>
      <point x="189" y="507"/>
      <point x="195" y="489"/>
      <point x="199" y="471" type="curve" smooth="yes"/>
      <point x="203" y="454"/>
      <point x="192" y="435"/>
      <point x="175" y="431" type="curve" smooth="yes"/>
      <point x="158" y="427"/>
      <point x="139" y="438"/>
      <point x="135" y="455" type="curve" smooth="yes"/>
      <point x="129" y="477"/>
      <point x="123" y="501"/>
      <point x="123" y="533" type="curve" smooth="yes"/>
      <point x="123" y="596"/>
      <point x="170" y="648"/>
      <point x="237" y="648" type="curve" smooth="yes"/>
      <point x="268" y="648"/>
      <point x="288" y="640"/>
      <point x="307" y="631" type="curve" smooth="yes"/>
      <point x="324" y="624"/>
      <point x="331" y="604"/>
      <point x="324" y="588" type="curve" smooth="yes"/>
      <point x="317" y="571"/>
      <point x="297" y="564"/>
    </contour>
    <component base="knO"/>
    <component base="knO"/>
  </outline>
</glyph>
<glyph name="knAU" format="1">
  <advance width="713"/>
  <unicode hex="0C94"/>
  <outline>
    <contour>
      <point x="83" y="670" type="curve" smooth="yes"/>
      <point x="432" y="670" type="line" smooth="yes"/>
      <point x="609" y="670"/>
      <point x="676" y="584"/>
      <point x="676" y="480" type="curve" smooth="yes"/>
      <point x="676" y="370"/>
      <point x="614" y="315"/>
      <point x="541" y="315" type="curve" smooth="yes"/>
      <point x="463" y="315"/>
      <point x="422" y="369"/>
      <point x="421" y="425" type="curve" smooth="yes"/>
      <point x="420" y="490"/>
      <point x="466" y="554"/>
      <point x="560" y="554" type="curve" smooth="yes"/>
      <point x="591" y="554"/>
      <point x="623" y="550"/>
      <point x="649" y="541" type="curve" smooth="yes"/>
      <point x="666" y="535"/>
      <point x="675" y="516"/>
      <point x="669" y="499" type="curve" smooth="yes"/>
      <point x="663" y="482"/>
      <point x="644" y="473"/>
      <point x="627" y="479" type="curve" smooth="yes"/>
      <point x="607" y="486"/>
      <point x="583" y="488"/>
      <point x="560" y="488" type="curve" smooth="yes"/>
      <point x="516" y="488"/>
      <point x="486" y="460"/>
      <point x="487" y="427" type="curve" smooth="yes"/>
      <point x="488" y="401"/>
      <point x="509" y="381"/>
      <point x="541" y="381" type="curve" smooth="yes"/>
      <point x="585" y="381"/>
      <point x="610" y="424"/>
      <point x="610" y="480" type="curve" smooth="yes"/>
      <point x="610" y="556"/>
      <point x="547" y="604"/>
      <point x="432" y="604" type="curve" smooth="yes"/>
      <point x="83" y="604" type="line" smooth="yes"/>
      <point x="65" y="604"/>
      <point x="50" y="619"/>
      <point x="50" y="637" type="curve" smooth="yes"/>
      <point x="50" y="655"/>
      <point x="65" y="670"/>
    </contour>
    <contour>
      <point x="88" y="509" type="curve" smooth="yes"/>
      <point x="164" y="509" type="line" smooth="yes"/>
      <point x="241" y="509"/>
      <point x="289" y="551"/>
      <point x="288" y="629" type="curve" smooth="yes"/>
      <point x="288" y="646"/>
      <point x="303" y="662"/>
      <point x="321" y="662" type="curve" smooth="yes"/>
      <point x="338" y="662"/>
      <point x="354" y="647"/>
      <point x="354" y="629" type="curve" smooth="yes"/>
      <point x="355" y="511"/>
      <point x="285" y="443"/>
      <point x="164" y="443" type="curve" smooth="yes"/>
      <point x="88" y="443" type="line" smooth="yes"/>
      <point x="70" y="443"/>
      <point x="55" y="458"/>
      <point x="55" y="476" type="curve" smooth="yes"/>
      <point x="55" y="494"/>
      <point x="70" y="509"/>
    </contour>
    <component base="knO"/>
    <component base="knO"/>
  </outline>
</glyph>
<glyph name="knKHA" format="1">
  <advance width="748"/>
  <unicode hex="0C96"/>
  <outline>
    <contour>
      <point x="285" y="450" type="curve" smooth="yes"/>
      <point x="292" y="432"/>
      <point x="301" y="406"/>
      <point x="301" y="377" type="curve" smooth="yes"/>
      <point x="301" y="310"/>
      <point x="254" y="259"/>
      <point x="173" y="259" type="curve" smooth="yes"/>
      <point x="107" y="259"/>
      <point x="58" y="309"/>
      <point x="58" y="369" type="curve" smooth="yes"/>
      <point x="58" y="421"/>
      <point x="95" y="484"/>
      <point x="188" y="484" type="curve" smooth="yes"/>
      <point x="333" y="484"/>
      <point x="432" y="375"/>
      <point x="432" y="242" type="curve" smooth="yes"/>
      <point x="432" y="130"/>
      <point x="342" y="-10"/>
      <point x="188" y="-10" type="curve" smooth="yes"/>
      <point x="77" y="-10"/>
      <point x="47" y="51"/>
      <point x="47" y="101" type="curve" smooth="yes"/>
      <point x="47" y="148"/>
      <point x="87" y="212"/>
      <point x="177" y="212" type="curve" smooth="yes"/>
      <point x="249" y="212"/>
      <point x="319" y="177"/>
      <point x="380" y="125" type="curve" smooth="yes"/>
      <point x="433" y="80"/>
      <point x="480" y="60"/>
      <point x="536" y="60" type="curve" smooth="yes"/>
      <point x="592" y="60"/>
      <point x="631" y="104"/>
      <point x="631" y="179" type="curve" smooth="yes"/>
      <point x="631" y="270"/>
      <point x="584" y="355"/>
      <point x="525" y="413" type="curve" smooth="yes"/>
      <point x="512" y="426"/>
      <point x="512" y="447"/>
      <point x="524" y="460" type="curve" smooth="yes"/>
      <point x="537" y="473"/>
      <point x="558" y="473"/>
      <point x="571" y="461" type="curve" smooth="yes"/>
      <point x="642" y="391"/>
      <point x="697" y="288"/>
      <point x="697" y="179" type="curve" smooth="yes"/>
      <point x="697" y="52"/>
      <point x="624" y="-6"/>
      <point x="536" y="-6" type="curve" smooth="yes"/>
      <point x="464" y="-6"/>
      <point x="405" y="18"/>
      <point x="338" y="75" type="curve" smooth="yes"/>
      <point x="289" y="115"/>
      <point x="235" y="146"/>
      <point x="177" y="146" type="curve" smooth="yes"/>
      <point x="141" y="146"/>
      <point x="113" y="124"/>
      <point x="113" y="101" type="curve" smooth="yes"/>
      <point x="113" y="75"/>
      <point x="143" y="56"/>
      <point x="188" y="56" type="curve" smooth="yes"/>
      <point x="302" y="56"/>
      <point x="366" y="160"/>
      <point x="366" y="242" type="curve" smooth="yes"/>
      <point x="366" y="339"/>
      <point x="293" y="418"/>
      <point x="188" y="418" type="curve" smooth="yes"/>
      <point x="149" y="418"/>
      <point x="124" y="395"/>
      <point x="124" y="369" type="curve" smooth="yes"/>
      <point x="124" y="343"/>
      <point x="147" y="325"/>
      <point x="173" y="325" type="curve" smooth="yes"/>
      <point x="208" y="325"/>
      <point x="235" y="344"/>
      <point x="235" y="377" type="curve" smooth="yes"/>
      <point x="235" y="396"/>
      <point x="228" y="414"/>
      <point x="223" y="426" type="curve" smooth="yes"/>
      <point x="217" y="442"/>
      <point x="225" y="462"/>
      <point x="242" y="469" type="curve" smooth="yes"/>
      <point x="258" y="475"/>
      <point x="278" y="467"/>
    </contour>
  </outline>
</glyph>
<glyph name="knGA" format="1">
  <advance width="644"/>
  <unicode hex="0C97"/>
  <outline>
    <contour>
      <point x="82" y="470" type="curve" smooth="yes"/>
      <point x="443" y="470" type="line" smooth="yes"/>
      <point x="502" y="470"/>
      <point x="537" y="490"/>
      <point x="563" y="532" type="curve" smooth="yes"/>
      <point x="572" y="547"/>
      <point x="593" y="552"/>
      <point x="608" y="543" type="curve" smooth="yes"/>
      <point x="623" y="534"/>
      <point x="628" y="513"/>
      <point x="619" y="498" type="curve" smooth="yes"/>
      <point x="581" y="436"/>
      <point x="530" y="404"/>
      <point x="443" y="404" type="curve" smooth="yes"/>
      <point x="82" y="404" type="line" smooth="yes"/>
      <point x="64" y="404"/>
      <point x="49" y="419"/>
      <point x="49" y="437" type="curve" smooth="yes"/>
      <point x="49" y="455"/>
      <point x="64" y="470"/>
    </contour>
    <contour>
      <point x="463" y="41" type="curve" smooth="yes"/>
      <point x="483" y="83"/>
      <point x="495" y="124"/>
      <point x="495" y="180" type="curve" smooth="yes"/>
      <point x="495" y="263"/>
      <point x="448" y="356"/>
      <point x="337" y="407" type="curve" smooth="yes"/>
      <point x="321" y="415"/>
      <point x="314" y="435"/>
      <point x="321" y="451" type="curve" smooth="yes"/>
      <point x="329" y="467"/>
      <point x="349" y="474"/>
      <point x="365" y="467" type="curve" smooth="yes"/>
      <point x="504" y="402"/>
      <point x="561" y="283"/>
      <point x="561" y="180" type="curve" smooth="yes"/>
      <point x="561" y="112"/>
      <point x="547" y="63"/>
      <point x="523" y="13" type="curve" smooth="yes"/>
      <point x="515" y="-3"/>
      <point x="495" y="-10"/>
      <point x="479" y="-3" type="curve" smooth="yes"/>
      <point x="463" y="5"/>
      <point x="456" y="25"/>
    </contour>
    <contour>
      <point x="307" y="407" type="curve" smooth="yes"/>
      <point x="198" y="357"/>
      <point x="156" y="263"/>
      <point x="156" y="180" type="curve" smooth="yes"/>
      <point x="156" y="125"/>
      <point x="167" y="82"/>
      <point x="187" y="42" type="curve" smooth="yes"/>
      <point x="196" y="26"/>
      <point x="189" y="6"/>
      <point x="173" y="-2" type="curve" smooth="yes"/>
      <point x="157" y="-11"/>
      <point x="137" y="-4"/>
      <point x="129" y="12" type="curve" smooth="yes"/>
      <point x="103" y="60"/>
      <point x="90" y="113"/>
      <point x="90" y="180" type="curve" smooth="yes"/>
      <point x="90" y="285"/>
      <point x="142" y="403"/>
      <point x="279" y="467" type="curve" smooth="yes"/>
      <point x="295" y="474"/>
      <point x="315" y="467"/>
      <point x="323" y="451" type="curve" smooth="yes"/>
      <point x="330" y="435"/>
      <point x="323" y="415"/>
    </contour>
  </outline>
</glyph>
<glyph name="knGHA" format="1">
  <advance width="807"/>
  <unicode hex="0C98"/>
  <outline>
    <contour>
      <point x="747" y="356" type="curve" smooth="yes"/>
      <point x="760" y="334"/>
      <point x="767" y="317"/>
      <point x="767" y="282" type="curve" smooth="yes"/>
      <point x="767" y="230"/>
      <point x="721" y="177"/>
      <point x="660" y="177" type="curve" smooth="yes"/>
      <point x="628" y="177"/>
      <point x="599" y="189"/>
      <point x="573" y="209" type="curve" smooth="yes"/>
      <point x="559" y="219"/>
      <point x="556" y="241"/>
      <point x="567" y="255" type="curve" smooth="yes"/>
      <point x="577" y="269"/>
      <point x="599" y="272"/>
      <point x="613" y="261" type="curve" smooth="yes"/>
      <point x="627" y="251"/>
      <point x="642" y="243"/>
      <point x="660" y="243" type="curve" smooth="yes"/>
      <point x="683" y="243"/>
      <point x="701" y="262"/>
      <point x="701" y="282" type="curve" smooth="yes"/>
      <point x="701" y="301"/>
      <point x="698" y="310"/>
      <point x="691" y="322" type="curve" smooth="yes"/>
      <point x="682" y="338"/>
      <point x="687" y="358"/>
      <point x="702" y="367" type="curve" smooth="yes"/>
      <point x="718" y="376"/>
      <point x="738" y="371"/>
    </contour>
    <contour>
      <point x="402" y="-89" type="curve" smooth="yes"/>
      <point x="402" y="-192" type="line" smooth="yes"/>
      <point x="402" y="-210"/>
      <point x="387" y="-225"/>
      <point x="369" y="-225" type="curve" smooth="yes"/>
      <point x="351" y="-225"/>
      <point x="336" y="-210"/>
      <point x="336" y="-192" type="curve" smooth="yes"/>
      <point x="336" y="-89" type="line" smooth="yes"/>
      <point x="336" y="-71"/>
      <point x="351" y="-56"/>
      <point x="369" y="-56" type="curve" smooth="yes"/>
      <point x="387" y="-56"/>
      <point x="402" y="-71"/>
    </contour>
    <contour>
      <point x="91" y="470" type="curve" smooth="yes"/>
      <point x="526" y="470" type="line" smooth="yes"/>
      <point x="585" y="470"/>
      <point x="620" y="490"/>
      <point x="646" y="532" type="curve" smooth="yes"/>
      <point x="655" y="547"/>
      <point x="676" y="552"/>
      <point x="691" y="543" type="curve" smooth="yes"/>
      <point x="706" y="534"/>
      <point x="711" y="513"/>
      <point x="702" y="498" type="curve" smooth="yes"/>
      <point x="664" y="436"/>
      <point x="613" y="404"/>
      <point x="526" y="404" type="curve" smooth="yes"/>
      <point x="91" y="404" type="line" smooth="yes"/>
      <point x="73" y="404"/>
      <point x="58" y="419"/>
      <point x="58" y="437" type="curve" smooth="yes"/>
      <point x="58" y="455"/>
      <point x="73" y="470"/>
    </contour>
    <contour>
      <point x="189" y="187" type="curve" smooth="yes"/>
      <point x="147" y="181"/>
      <point x="121" y="156"/>
      <point x="121" y="122" type="curve" smooth="yes"/>
      <point x="121" y="84"/>
      <point x="157" y="58"/>
      <point x="207" y="58" type="curve" smooth="yes"/>
      <point x="264" y="58"/>
      <point x="300" y="89"/>
      <point x="339" y="147" type="curve" smooth="yes"/>
      <point x="344" y="155"/>
      <point x="356" y="161"/>
      <point x="366" y="161" type="curve" smooth="yes"/>
      <point x="371" y="161" type="line" smooth="yes"/>
      <point x="381" y="161"/>
      <point x="393" y="154"/>
      <point x="399" y="146" type="curve" smooth="yes"/>
      <point x="433" y="92"/>
      <point x="471" y="60"/>
      <point x="532" y="60" type="curve" smooth="yes"/>
      <point x="581" y="60"/>
      <point x="614" y="91"/>
      <point x="614" y="129" type="curve" smooth="yes"/>
      <point x="614" y="165"/>
      <point x="592" y="194"/>
      <point x="566" y="213" type="curve" smooth="yes"/>
      <point x="552" y="224"/>
      <point x="549" y="245"/>
      <point x="559" y="260" type="curve" smooth="yes"/>
      <point x="570" y="274"/>
      <point x="591" y="277"/>
      <point x="606" y="267" type="curve" smooth="yes"/>
      <point x="648" y="236"/>
      <point x="680" y="187"/>
      <point x="680" y="129" type="curve" smooth="yes"/>
      <point x="680" y="61"/>
      <point x="627" y="-6"/>
      <point x="532" y="-6" type="curve" smooth="yes"/>
      <point x="447" y="-6"/>
      <point x="393" y="34"/>
      <point x="343" y="110" type="curve"/>
      <point x="371" y="95" type="line"/>
      <point x="366" y="95" type="line"/>
      <point x="393" y="109" type="line"/>
      <point x="338" y="29"/>
      <point x="286" y="-8"/>
      <point x="207" y="-8" type="curve" smooth="yes"/>
      <point x="105" y="-8"/>
      <point x="55" y="54"/>
      <point x="55" y="122" type="curve"/>
      <point x="55" y="184"/>
      <point x="97" y="241"/>
      <point x="179" y="253" type="curve" smooth="yes"/>
      <point x="197" y="255"/>
      <point x="214" y="242"/>
      <point x="217" y="225" type="curve" smooth="yes"/>
      <point x="219" y="207"/>
      <point x="206" y="190"/>
    </contour>
    <contour>
      <point x="334" y="410" type="curve" smooth="yes"/>
      <point x="316" y="393"/>
      <point x="309" y="373"/>
      <point x="309" y="356" type="curve" smooth="yes"/>
      <point x="309" y="328"/>
      <point x="333" y="306"/>
      <point x="368" y="306" type="curve" smooth="yes"/>
      <point x="404" y="306"/>
      <point x="427" y="328"/>
      <point x="427" y="357" type="curve" smooth="yes"/>
      <point x="427" y="374"/>
      <point x="420" y="394"/>
      <point x="402" y="412" type="curve" smooth="yes"/>
      <point x="389" y="424"/>
      <point x="388" y="445"/>
      <point x="400" y="458" type="curve" smooth="yes"/>
      <point x="412" y="471"/>
      <point x="433" y="472"/>
      <point x="446" y="460" type="curve" smooth="yes"/>
      <point x="482" y="428"/>
      <point x="493" y="390"/>
      <point x="493" y="357" type="curve" smooth="yes"/>
      <point x="493" y="296"/>
      <point x="452" y="240"/>
      <point x="368" y="240" type="curve" smooth="yes"/>
      <point x="287" y="240"/>
      <point x="243" y="298"/>
      <point x="243" y="356" type="curve" smooth="yes"/>
      <point x="243" y="389"/>
      <point x="256" y="427"/>
      <point x="290" y="458" type="curve" smooth="yes"/>
      <point x="303" y="470"/>
      <point x="324" y="469"/>
      <point x="336" y="456" type="curve" smooth="yes"/>
      <point x="348" y="443"/>
      <point x="347" y="422"/>
    </contour>
    <component base="knPha" xOffset="10"/>
    <component base="knPha" xOffset="10"/>
  </outline>
</glyph>
<glyph name="knNGA" format="1">
  <advance width="724"/>
  <unicode hex="0C99"/>
  <outline>
    <contour>
      <point x="423" y="378" type="curve" smooth="yes"/>
      <point x="460" y="378"/>
      <point x="485" y="345"/>
      <point x="485" y="317" type="curve" smooth="yes"/>
      <point x="485" y="285"/>
      <point x="460" y="256"/>
      <point x="423" y="256" type="curve" smooth="yes"/>
      <point x="391" y="256"/>
      <point x="362" y="283"/>
      <point x="362" y="318" type="curve" smooth="yes"/>
      <point x="362" y="344"/>
      <point x="390" y="378"/>
    </contour>
    <contour>
      <point x="226" y="353" type="curve" smooth="yes"/>
      <point x="271" y="493"/>
      <point x="355" y="538"/>
      <point x="438" y="538" type="curve" smooth="yes"/>
      <point x="516" y="538"/>
      <point x="581" y="507"/>
      <point x="642" y="415" type="curve" smooth="yes"/>
      <point x="651" y="400"/>
      <point x="647" y="379"/>
      <point x="632" y="369" type="curve" smooth="yes"/>
      <point x="617" y="360"/>
      <point x="596" y="364"/>
      <point x="586" y="379" type="curve" smooth="yes"/>
      <point x="543" y="445"/>
      <point x="496" y="472"/>
      <point x="438" y="472" type="curve" smooth="yes"/>
      <point x="377" y="472"/>
      <point x="321" y="431"/>
      <point x="288" y="333" type="curve" smooth="yes"/>
      <point x="283" y="316"/>
      <point x="264" y="306"/>
      <point x="247" y="312" type="curve" smooth="yes"/>
      <point x="230" y="317"/>
      <point x="220" y="336"/>
    </contour>
    <contour>
      <point x="423" y="312" type="curve" smooth="yes"/>
      <point x="426" y="312"/>
      <point x="428" y="316"/>
      <point x="428" y="318" type="curve" smooth="yes"/>
      <point x="428" y="321"/>
      <point x="425" y="322"/>
      <point x="423" y="322" type="curve" smooth="yes"/>
      <point x="420" y="322"/>
      <point x="419" y="319"/>
      <point x="419" y="317" type="curve" smooth="yes"/>
      <point x="419" y="315"/>
      <point x="420" y="312"/>
    </contour>
    <component base="knO" yOffset="1"/>
    <component base="knO" yOffset="1"/>
  </outline>
</glyph>
<glyph name="knCA" format="1">
  <advance width="775"/>
  <unicode hex="0C9A"/>
  <outline>
    <contour>
      <point x="428" y="323" type="curve" smooth="yes"/>
      <point x="705" y="323" type="line" smooth="yes"/>
      <point x="723" y="323"/>
      <point x="738" y="308"/>
      <point x="738" y="290" type="curve" smooth="yes"/>
      <point x="738" y="272"/>
      <point x="723" y="257"/>
      <point x="705" y="257" type="curve" smooth="yes"/>
      <point x="428" y="257" type="line" smooth="yes"/>
      <point x="410" y="257"/>
      <point x="395" y="272"/>
      <point x="395" y="290" type="curve" smooth="yes"/>
      <point x="395" y="308"/>
      <point x="410" y="323"/>
    </contour>
    <contour>
      <point x="430" y="470" type="curve" smooth="yes"/>
      <point x="572" y="470" type="line" smooth="yes"/>
      <point x="631" y="470"/>
      <point x="666" y="490"/>
      <point x="692" y="532" type="curve" smooth="yes"/>
      <point x="701" y="547"/>
      <point x="722" y="552"/>
      <point x="737" y="543" type="curve" smooth="yes"/>
      <point x="752" y="534"/>
      <point x="757" y="513"/>
      <point x="748" y="498" type="curve" smooth="yes"/>
      <point x="710" y="436"/>
      <point x="659" y="404"/>
      <point x="572" y="404" type="curve" smooth="yes"/>
      <point x="430" y="404" type="line" smooth="yes"/>
      <point x="412" y="404"/>
      <point x="397" y="419"/>
      <point x="397" y="437" type="curve" smooth="yes"/>
      <point x="397" y="455"/>
      <point x="412" y="470"/>
    </contour>
    <contour>
      <point x="547" y="296" type="curve" smooth="yes"/>
      <point x="547" y="409" type="line" smooth="yes"/>
      <point x="547" y="427"/>
      <point x="562" y="442"/>
      <point x="580" y="442" type="curve" smooth="yes"/>
      <point x="598" y="442"/>
      <point x="613" y="427"/>
      <point x="613" y="409" type="curve" smooth="yes"/>
      <point x="613" y="296" type="line" smooth="yes"/>
      <point x="613" y="278"/>
      <point x="598" y="263"/>
      <point x="580" y="263" type="curve" smooth="yes"/>
      <point x="562" y="263"/>
      <point x="547" y="278"/>
    </contour>
    <contour>
      <point x="57" y="428" type="curve" smooth="yes"/>
      <point x="89" y="464"/>
      <point x="128" y="485"/>
      <point x="173" y="485" type="curve" smooth="yes"/>
      <point x="247" y="485"/>
      <point x="291" y="435"/>
      <point x="291" y="375" type="curve" smooth="yes"/>
      <point x="291" y="329"/>
      <point x="269" y="287"/>
      <point x="200" y="231" type="curve" smooth="yes"/>
      <point x="161" y="200"/>
      <point x="133" y="168"/>
      <point x="133" y="129" type="curve" smooth="yes"/>
      <point x="133" y="90"/>
      <point x="163" y="60"/>
      <point x="212" y="60" type="curve" smooth="yes"/>
      <point x="268" y="60"/>
      <point x="304" y="86"/>
      <point x="341" y="145" type="curve" smooth="yes"/>
      <point x="346" y="154"/>
      <point x="359" y="161"/>
      <point x="369" y="161" type="curve" smooth="yes"/>
      <point x="374" y="161" type="line" smooth="yes"/>
      <point x="384" y="161"/>
      <point x="396" y="154"/>
      <point x="402" y="146" type="curve" smooth="yes"/>
      <point x="436" y="92"/>
      <point x="474" y="60"/>
      <point x="535" y="60" type="curve" smooth="yes"/>
      <point x="585" y="60"/>
      <point x="617" y="96"/>
      <point x="617" y="137" type="curve" smooth="yes"/>
      <point x="617" y="180"/>
      <point x="596" y="215"/>
      <point x="551" y="251" type="curve" smooth="yes"/>
      <point x="537" y="262"/>
      <point x="534" y="283"/>
      <point x="545" y="297" type="curve" smooth="yes"/>
      <point x="556" y="311"/>
      <point x="577" y="314"/>
      <point x="591" y="303" type="curve" smooth="yes"/>
      <point x="658" y="251"/>
      <point x="683" y="198"/>
      <point x="683" y="137" type="curve" smooth="yes"/>
      <point x="683" y="62"/>
      <point x="629" y="-6"/>
      <point x="535" y="-6" type="curve" smooth="yes"/>
      <point x="450" y="-6"/>
      <point x="396" y="34"/>
      <point x="346" y="110" type="curve"/>
      <point x="374" y="95" type="line"/>
      <point x="369" y="95" type="line"/>
      <point x="397" y="111" type="line"/>
      <point x="344" y="26"/>
      <point x="290" y="-6"/>
      <point x="212" y="-6" type="curve" smooth="yes"/>
      <point x="115" y="-6"/>
      <point x="67" y="58"/>
      <point x="67" y="129" type="curve" smooth="yes"/>
      <point x="67" y="186"/>
      <point x="101" y="236"/>
      <point x="158" y="283" type="curve" smooth="yes"/>
      <point x="203" y="319"/>
      <point x="225" y="343"/>
      <point x="225" y="375" type="curve" smooth="yes"/>
      <point x="225" y="401"/>
      <point x="203" y="419"/>
      <point x="173" y="419" type="curve" smooth="yes"/>
      <point x="146" y="419"/>
      <point x="125" y="404"/>
      <point x="107" y="384" type="curve" smooth="yes"/>
      <point x="95" y="371"/>
      <point x="73" y="370"/>
      <point x="60" y="381" type="curve" smooth="yes"/>
      <point x="47" y="393"/>
      <point x="46" y="415"/>
    </contour>
  </outline>
</glyph>
<glyph name="knJA" format="1">
  <advance width="713"/>
  <unicode hex="0C9C"/>
  <outline>
    <contour>
      <point x="585" y="448" type="curve" smooth="yes"/>
      <point x="591" y="431"/>
      <point x="596" y="408"/>
      <point x="596" y="391" type="curve" smooth="yes"/>
      <point x="596" y="325"/>
      <point x="551" y="265"/>
      <point x="460" y="265" type="curve" smooth="yes"/>
      <point x="370" y="265"/>
      <point x="302" y="310"/>
      <point x="225" y="392" type="curve" smooth="yes"/>
      <point x="213" y="406"/>
      <point x="213" y="427"/>
      <point x="226" y="439" type="curve" smooth="yes"/>
      <point x="240" y="451"/>
      <point x="261" y="451"/>
      <point x="273" y="438" type="curve" smooth="yes"/>
      <point x="334" y="372"/>
      <point x="388" y="331"/>
      <point x="460" y="331" type="curve" smooth="yes"/>
      <point x="503" y="331"/>
      <point x="530" y="357"/>
      <point x="530" y="391" type="curve" smooth="yes"/>
      <point x="530" y="402"/>
      <point x="527" y="415"/>
      <point x="523" y="426" type="curve" smooth="yes"/>
      <point x="517" y="443"/>
      <point x="526" y="462"/>
      <point x="543" y="468" type="curve" smooth="yes"/>
      <point x="560" y="474"/>
      <point x="579" y="465"/>
    </contour>
    <component base="knO"/>
    <component base="knO"/>
  </outline>
</glyph>
<glyph name="knJHA" format="1">
  <advance width="1219"/>
  <unicode hex="0C9D"/>
  <outline>
    <contour>
      <point x="75" y="227" type="curve" smooth="yes"/>
      <point x="75" y="355"/>
      <point x="180" y="470"/>
      <point x="318" y="470" type="curve" smooth="yes"/>
      <point x="458" y="470"/>
      <point x="557" y="353"/>
      <point x="557" y="227" type="curve" smooth="yes"/>
      <point x="557" y="94"/>
      <point x="464" y="-10"/>
      <point x="316" y="-10" type="curve" smooth="yes"/>
      <point x="171" y="-10"/>
      <point x="75" y="91"/>
    </contour>
    <contour>
      <point x="860" y="-89" type="curve" smooth="yes"/>
      <point x="860" y="-192" type="line" smooth="yes"/>
      <point x="860" y="-210"/>
      <point x="845" y="-225"/>
      <point x="827" y="-225" type="curve" smooth="yes"/>
      <point x="809" y="-225"/>
      <point x="794" y="-210"/>
      <point x="794" y="-192" type="curve" smooth="yes"/>
      <point x="794" y="-89" type="line" smooth="yes"/>
      <point x="794" y="-71"/>
      <point x="809" y="-56"/>
      <point x="827" y="-56" type="curve" smooth="yes"/>
      <point x="845" y="-56"/>
      <point x="860" y="-71"/>
    </contour>
    <contour>
      <point x="79" y="470" type="curve" smooth="yes"/>
      <point x="437" y="470" type="line" smooth="yes"/>
      <point x="496" y="470"/>
      <point x="531" y="490"/>
      <point x="557" y="532" type="curve" smooth="yes"/>
      <point x="566" y="547"/>
      <point x="587" y="552"/>
      <point x="602" y="543" type="curve" smooth="yes"/>
      <point x="617" y="534"/>
      <point x="622" y="513"/>
      <point x="613" y="498" type="curve" smooth="yes"/>
      <point x="575" y="436"/>
      <point x="524" y="404"/>
      <point x="437" y="404" type="curve" smooth="yes"/>
      <point x="79" y="404" type="line" smooth="yes"/>
      <point x="61" y="404"/>
      <point x="46" y="419"/>
      <point x="46" y="437" type="curve" smooth="yes"/>
      <point x="46" y="455"/>
      <point x="61" y="470"/>
    </contour>
    <contour>
      <point x="141" y="227" type="curve" smooth="yes"/>
      <point x="141" y="129"/>
      <point x="211" y="56"/>
      <point x="316" y="56" type="curve" smooth="yes"/>
      <point x="422" y="56"/>
      <point x="491" y="130"/>
      <point x="491" y="227" type="curve" smooth="yes"/>
      <point x="491" y="319"/>
      <point x="420" y="404"/>
      <point x="318" y="404" type="curve" smooth="yes"/>
      <point x="218" y="404"/>
      <point x="141" y="321"/>
    </contour>
    <component base="knRa" xOffset="58" yOffset="-132"/>
    <component base="knsignU" xOffset="612"/>
    <component base="knsignU" xOffset="923"/>
    <component base="knRa" xOffset="58" yOffset="-132"/>
    <component base="knsignU" xOffset="612"/>
    <component base="knsignU" xOffset="923"/>
  </outline>
</glyph>
<glyph name="knNYA" format="1">
  <advance width="906"/>
  <unicode hex="0C9E"/>
  <outline>
    <contour>
      <point x="590" y="366" type="curve" smooth="yes"/>
      <point x="627" y="427"/>
      <point x="676" y="470"/>
      <point x="742" y="470" type="curve" smooth="yes"/>
      <point x="833" y="470"/>
      <point x="865" y="402"/>
      <point x="865" y="350" type="curve" smooth="yes"/>
      <point x="865" y="312"/>
      <point x="852" y="276"/>
      <point x="835" y="241" type="curve" smooth="yes"/>
      <point x="827" y="225"/>
      <point x="807" y="218"/>
      <point x="791" y="225" type="curve" smooth="yes"/>
      <point x="775" y="233"/>
      <point x="768" y="253"/>
      <point x="775" y="269" type="curve" smooth="yes"/>
      <point x="788" y="296"/>
      <point x="799" y="322"/>
      <point x="799" y="350" type="curve" smooth="yes"/>
      <point x="799" y="374"/>
      <point x="783" y="404"/>
      <point x="742" y="404" type="curve" smooth="yes"/>
      <point x="698" y="404"/>
      <point x="669" y="371"/>
      <point x="646" y="332" type="curve" smooth="yes"/>
      <point x="637" y="317"/>
      <point x="616" y="312"/>
      <point x="601" y="321" type="curve" smooth="yes"/>
      <point x="586" y="330"/>
      <point x="581" y="351"/>
    </contour>
    <component base="knI"/>
    <component base="knI"/>
  </outline>
</glyph>
<glyph name="knTTA" format="1">
  <advance width="733"/>
  <unicode hex="0C9F"/>
  <outline>
    <contour>
      <point x="510" y="317" type="curve" smooth="yes"/>
      <point x="569" y="325"/>
      <point x="591" y="353"/>
      <point x="591" y="386" type="curve" smooth="yes"/>
      <point x="591" y="419"/>
      <point x="562" y="442"/>
      <point x="523" y="460" type="curve" smooth="yes"/>
      <point x="507" y="468"/>
      <point x="500" y="488"/>
      <point x="507" y="504" type="curve" smooth="yes"/>
      <point x="515" y="520"/>
      <point x="535" y="527"/>
      <point x="551" y="520" type="curve" smooth="yes"/>
      <point x="622" y="486"/>
      <point x="657" y="439"/>
      <point x="657" y="386" type="curve" smooth="yes"/>
      <point x="657" y="329"/>
      <point x="633" y="269"/>
      <point x="520" y="251" type="curve" smooth="yes"/>
      <point x="502" y="249"/>
      <point x="485" y="261"/>
      <point x="482" y="279" type="curve" smooth="yes"/>
      <point x="480" y="297"/>
      <point x="492" y="314"/>
    </contour>
    <contour>
      <point x="208" y="460" type="curve" smooth="yes"/>
      <point x="181" y="453"/>
      <point x="167" y="435"/>
      <point x="166" y="417" type="curve" smooth="yes"/>
      <point x="165" y="400"/>
      <point x="175" y="379"/>
      <point x="208" y="371" type="curve" smooth="yes"/>
      <point x="225" y="367"/>
      <point x="236" y="348"/>
      <point x="232" y="331" type="curve" smooth="yes"/>
      <point x="228" y="314"/>
      <point x="209" y="303"/>
      <point x="192" y="307" type="curve" smooth="yes"/>
      <point x="111" y="327"/>
      <point x="99" y="380"/>
      <point x="100" y="419" type="curve" smooth="yes"/>
      <point x="101" y="459"/>
      <point x="127" y="507"/>
      <point x="190" y="524" type="curve" smooth="yes"/>
      <point x="208" y="528"/>
      <point x="226" y="518"/>
      <point x="231" y="501" type="curve" smooth="yes"/>
      <point x="235" y="483"/>
      <point x="225" y="465"/>
    </contour>
    <contour>
      <point x="130" y="266" type="curve" smooth="yes"/>
      <point x="149" y="239"/>
      <point x="171" y="221"/>
      <point x="196" y="221" type="curve" smooth="yes"/>
      <point x="220" y="221"/>
      <point x="243" y="236"/>
      <point x="243" y="264" type="curve" smooth="yes"/>
      <point x="243" y="289"/>
      <point x="224" y="306"/>
      <point x="199" y="306" type="curve" smooth="yes"/>
      <point x="156" y="306"/>
      <point x="117" y="244"/>
      <point x="117" y="178" type="curve" smooth="yes"/>
      <point x="117" y="102"/>
      <point x="158" y="60"/>
      <point x="223" y="60" type="curve" smooth="yes"/>
      <point x="281" y="60"/>
      <point x="318" y="92"/>
      <point x="344" y="143" type="curve" smooth="yes"/>
      <point x="349" y="153"/>
      <point x="362" y="161"/>
      <point x="373" y="161" type="curve" smooth="yes"/>
      <point x="378" y="161" type="line" smooth="yes"/>
      <point x="388" y="161"/>
      <point x="401" y="154"/>
      <point x="406" y="145" type="curve" smooth="yes"/>
      <point x="438" y="93"/>
      <point x="477" y="60"/>
      <point x="538" y="60" type="curve" smooth="yes"/>
      <point x="590" y="60"/>
      <point x="621" y="92"/>
      <point x="621" y="141" type="curve" smooth="yes"/>
      <point x="621" y="170"/>
      <point x="613" y="192"/>
      <point x="592" y="213" type="curve" smooth="yes"/>
      <point x="574" y="231"/>
      <point x="535" y="250"/>
      <point x="507" y="250" type="curve" smooth="yes"/>
      <point x="489" y="250"/>
      <point x="474" y="265"/>
      <point x="474" y="283" type="curve" smooth="yes"/>
      <point x="474" y="301"/>
      <point x="489" y="316"/>
      <point x="507" y="316" type="curve" smooth="yes"/>
      <point x="549" y="316"/>
      <point x="610" y="287"/>
      <point x="638" y="259" type="curve" smooth="yes"/>
      <point x="673" y="224"/>
      <point x="687" y="188"/>
      <point x="687" y="141" type="curve" smooth="yes"/>
      <point x="687" y="52"/>
      <point x="632" y="-6"/>
      <point x="538" y="-6" type="curve" smooth="yes"/>
      <point x="453" y="-6"/>
      <point x="394" y="37"/>
      <point x="350" y="111" type="curve"/>
      <point x="378" y="95" type="line"/>
      <point x="373" y="95" type="line"/>
      <point x="402" y="113" type="line"/>
      <point x="364" y="38"/>
      <point x="307" y="-6"/>
      <point x="223" y="-6" type="curve" smooth="yes"/>
      <point x="122" y="-6"/>
      <point x="51" y="54"/>
      <point x="51" y="178" type="curve"/>
      <point x="51" y="296"/>
      <point x="134" y="372"/>
      <point x="199" y="372" type="curve" smooth="yes"/>
      <point x="264" y="372"/>
      <point x="309" y="325"/>
      <point x="309" y="264" type="curve" smooth="yes"/>
      <point x="309" y="198"/>
      <point x="258" y="155"/>
      <point x="196" y="155" type="curve" smooth="yes"/>
      <point x="153" y="155"/>
      <point x="109" y="179"/>
      <point x="76" y="230" type="curve" smooth="yes"/>
      <point x="66" y="245"/>
      <point x="70" y="266"/>
      <point x="85" y="275" type="curve" smooth="yes"/>
      <point x="100" y="285"/>
      <point x="121" y="281"/>
    </contour>
  </outline>
</glyph>
<glyph name="knTTHA" format="1">
  <advance width="654"/>
  <unicode hex="0CA0"/>
  <outline>
    <contour>
      <point x="75" y="224" type="curve" smooth="yes"/>
      <point x="75" y="348"/>
      <point x="181" y="470"/>
      <point x="333" y="470" type="curve" smooth="yes"/>
      <point x="488" y="470"/>
      <point x="588" y="346"/>
      <point x="588" y="224" type="curve" smooth="yes"/>
      <point x="588" y="93"/>
      <point x="493" y="-16"/>
      <point x="332" y="-16" type="curve" smooth="yes"/>
      <point x="173" y="-16"/>
      <point x="75" y="91"/>
    </contour>
    <contour>
      <point x="330" y="293" type="curve" smooth="yes"/>
      <point x="367" y="293"/>
      <point x="392" y="260"/>
      <point x="392" y="232" type="curve" smooth="yes"/>
      <point x="392" y="200"/>
      <point x="367" y="171"/>
      <point x="330" y="171" type="curve" smooth="yes"/>
      <point x="298" y="171"/>
      <point x="269" y="198"/>
      <point x="269" y="233" type="curve" smooth="yes"/>
      <point x="269" y="259"/>
      <point x="297" y="293"/>
    </contour>
    <contour>
      <point x="88" y="470" type="curve" smooth="yes"/>
      <point x="458" y="470" type="line" smooth="yes"/>
      <point x="517" y="470"/>
      <point x="551" y="490"/>
      <point x="577" y="532" type="curve" smooth="yes"/>
      <point x="586" y="547"/>
      <point x="607" y="552"/>
      <point x="622" y="543" type="curve" smooth="yes"/>
      <point x="637" y="534"/>
      <point x="642" y="513"/>
      <point x="633" y="498" type="curve" smooth="yes"/>
      <point x="595" y="436"/>
      <point x="545" y="404"/>
      <point x="458" y="404" type="curve" smooth="yes"/>
      <point x="88" y="404" type="line" smooth="yes"/>
      <point x="70" y="404"/>
      <point x="55" y="419"/>
      <point x="55" y="437" type="curve" smooth="yes"/>
      <point x="55" y="455"/>
      <point x="70" y="470"/>
    </contour>
    <contour>
      <point x="141" y="224" type="curve" smooth="yes"/>
      <point x="141" y="125"/>
      <point x="217" y="50"/>
      <point x="332" y="50" type="curve" smooth="yes"/>
      <point x="449" y="50"/>
      <point x="522" y="127"/>
      <point x="522" y="224" type="curve" smooth="yes"/>
      <point x="522" y="314"/>
      <point x="446" y="404"/>
      <point x="333" y="404" type="curve" smooth="yes"/>
      <point x="221" y="404"/>
      <point x="141" y="316"/>
    </contour>
    <contour>
      <point x="330" y="227" type="curve" smooth="yes"/>
      <point x="333" y="227"/>
      <point x="335" y="231"/>
      <point x="335" y="233" type="curve" smooth="yes"/>
      <point x="335" y="236"/>
      <point x="332" y="237"/>
      <point x="330" y="237" type="curve" smooth="yes"/>
      <point x="327" y="237"/>
      <point x="326" y="234"/>
      <point x="326" y="232" type="curve" smooth="yes"/>
      <point x="326" y="230"/>
      <point x="327" y="227"/>
    </contour>
  </outline>
</glyph>
<glyph name="knDDA" format="1">
  <advance width="750"/>
  <unicode hex="0CA1"/>
  <outline>
    <contour>
      <point x="98" y="470" type="curve" smooth="yes"/>
      <point x="518" y="470" type="line" smooth="yes"/>
      <point x="577" y="470"/>
      <point x="612" y="490"/>
      <point x="638" y="532" type="curve" smooth="yes"/>
      <point x="647" y="547"/>
      <point x="668" y="552"/>
      <point x="683" y="543" type="curve" smooth="yes"/>
      <point x="698" y="534"/>
      <point x="703" y="513"/>
      <point x="694" y="498" type="curve" smooth="yes"/>
      <point x="656" y="436"/>
      <point x="605" y="404"/>
      <point x="518" y="404" type="curve" smooth="yes"/>
      <point x="98" y="404" type="line" smooth="yes"/>
      <point x="80" y="404"/>
      <point x="65" y="419"/>
      <point x="65" y="437" type="curve" smooth="yes"/>
      <point x="65" y="455"/>
      <point x="80" y="470"/>
    </contour>
    <contour>
      <point x="302" y="407" type="curve" smooth="yes"/>
      <point x="192" y="358"/>
      <point x="129" y="259"/>
      <point x="129" y="168" type="curve" smooth="yes"/>
      <point x="129" y="101"/>
      <point x="171" y="60"/>
      <point x="223" y="60" type="curve" smooth="yes"/>
      <point x="276" y="60"/>
      <point x="306" y="90"/>
      <point x="335" y="143" type="curve" smooth="yes"/>
      <point x="340" y="153"/>
      <point x="353" y="161"/>
      <point x="364" y="161" type="curve" smooth="yes"/>
      <point x="369" y="161" type="line" smooth="yes"/>
      <point x="380" y="161"/>
      <point x="393" y="153"/>
      <point x="398" y="144" type="curve" smooth="yes"/>
      <point x="429" y="87"/>
      <point x="477" y="60"/>
      <point x="523" y="60" type="curve" smooth="yes"/>
      <point x="593" y="60"/>
      <point x="635" y="105"/>
      <point x="635" y="172" type="curve" smooth="yes"/>
      <point x="635" y="235"/>
      <point x="584" y="329"/>
      <point x="451" y="409" type="curve" smooth="yes"/>
      <point x="436" y="418"/>
      <point x="431" y="439"/>
      <point x="440" y="454" type="curve" smooth="yes"/>
      <point x="449" y="469"/>
      <point x="470" y="474"/>
      <point x="485" y="465" type="curve" smooth="yes"/>
      <point x="650" y="367"/>
      <point x="701" y="247"/>
      <point x="701" y="172" type="curve" smooth="yes"/>
      <point x="701" y="65"/>
      <point x="635" y="-6"/>
      <point x="523" y="-6" type="curve" smooth="yes"/>
      <point x="457" y="-6"/>
      <point x="385" y="29"/>
      <point x="340" y="112" type="curve"/>
      <point x="369" y="95" type="line"/>
      <point x="364" y="95" type="line"/>
      <point x="393" y="113" type="line"/>
      <point x="350" y="30"/>
      <point x="300" y="-6"/>
      <point x="223" y="-6" type="curve" smooth="yes"/>
      <point x="139" y="-6"/>
      <point x="63" y="55"/>
      <point x="63" y="168" type="curve"/>
      <point x="63" y="281"/>
      <point x="138" y="406"/>
      <point x="276" y="467" type="curve" smooth="yes"/>
      <point x="292" y="474"/>
      <point x="312" y="467"/>
      <point x="319" y="450" type="curve" smooth="yes"/>
      <point x="326" y="434"/>
      <point x="319" y="414"/>
    </contour>
    <contour>
      <point x="561" y="323" type="curve" smooth="yes"/>
      <point x="516" y="323"/>
      <point x="484" y="291"/>
      <point x="484" y="261" type="curve" smooth="yes"/>
      <point x="484" y="235"/>
      <point x="508" y="214"/>
      <point x="537" y="214" type="curve" smooth="yes"/>
      <point x="572" y="214"/>
      <point x="598" y="234"/>
      <point x="614" y="269" type="curve" smooth="yes"/>
      <point x="621" y="285"/>
      <point x="642" y="292"/>
      <point x="658" y="285" type="curve" smooth="yes"/>
      <point x="674" y="278"/>
      <point x="681" y="257"/>
      <point x="674" y="241" type="curve" smooth="yes"/>
      <point x="646" y="180"/>
      <point x="598" y="148"/>
      <point x="537" y="148" type="curve" smooth="yes"/>
      <point x="466" y="148"/>
      <point x="418" y="202"/>
      <point x="418" y="261" type="curve" smooth="yes"/>
      <point x="418" y="317"/>
      <point x="468" y="389"/>
      <point x="561" y="389" type="curve" smooth="yes"/>
      <point x="579" y="389"/>
      <point x="594" y="374"/>
      <point x="594" y="356" type="curve" smooth="yes"/>
      <point x="594" y="338"/>
      <point x="579" y="323"/>
    </contour>
  </outline>
</glyph>
<glyph name="knNNA" format="1">
  <advance width="760"/>
  <unicode hex="0CA3"/>
  <outline>
    <contour>
      <point x="222" y="196" type="curve" smooth="yes"/>
      <point x="178" y="197"/>
      <point x="125" y="175"/>
      <point x="125" y="128" type="curve" smooth="yes"/>
      <point x="125" y="82"/>
      <point x="166" y="61"/>
      <point x="220" y="61" type="curve" smooth="yes"/>
      <point x="245" y="61"/>
      <point x="265" y="64"/>
      <point x="281" y="69" type="curve" smooth="yes"/>
      <point x="298" y="74"/>
      <point x="317" y="63"/>
      <point x="322" y="46" type="curve" smooth="yes"/>
      <point x="327" y="29"/>
      <point x="316" y="10"/>
      <point x="299" y="5" type="curve" smooth="yes"/>
      <point x="279" y="0"/>
      <point x="253" y="-5"/>
      <point x="220" y="-5" type="curve" smooth="yes"/>
      <point x="114" y="-5"/>
      <point x="59" y="50"/>
      <point x="59" y="128" type="curve"/>
      <point x="59" y="207"/>
      <point x="138" y="265"/>
      <point x="224" y="262" type="curve" smooth="yes"/>
      <point x="242" y="261"/>
      <point x="257" y="246"/>
      <point x="256" y="228" type="curve" smooth="yes"/>
      <point x="255" y="210"/>
      <point x="240" y="195"/>
    </contour>
    <contour>
      <point x="638" y="124" type="curve" smooth="yes"/>
      <point x="615" y="149"/>
      <point x="589" y="170"/>
      <point x="547" y="170" type="curve" smooth="yes"/>
      <point x="507" y="170"/>
      <point x="481" y="142"/>
      <point x="481" y="111" type="curve" smooth="yes"/>
      <point x="481" y="77"/>
      <point x="509" y="55"/>
      <point x="542" y="55" type="curve" smooth="yes"/>
      <point x="609" y="55"/>
      <point x="642" y="110"/>
      <point x="642" y="230" type="curve" smooth="yes"/>
      <point x="642" y="345"/>
      <point x="603" y="412"/>
      <point x="534" y="412" type="curve" smooth="yes"/>
      <point x="481" y="412"/>
      <point x="440" y="374"/>
      <point x="411" y="319" type="curve" smooth="yes"/>
      <point x="406" y="309"/>
      <point x="393" y="301"/>
      <point x="382" y="301" type="curve" smooth="yes"/>
      <point x="378" y="301" type="line" smooth="yes"/>
      <point x="367" y="301"/>
      <point x="353" y="309"/>
      <point x="348" y="320" type="curve" smooth="yes"/>
      <point x="322" y="375"/>
      <point x="281" y="412"/>
      <point x="220" y="412" type="curve" smooth="yes"/>
      <point x="169" y="412"/>
      <point x="137" y="379"/>
      <point x="137" y="340" type="curve" smooth="yes"/>
      <point x="137" y="296"/>
      <point x="179" y="262"/>
      <point x="236" y="262" type="curve" smooth="yes"/>
      <point x="240" y="262"/>
      <point x="242" y="262"/>
      <point x="246" y="262" type="curve" smooth="yes"/>
      <point x="264" y="262"/>
      <point x="279" y="247"/>
      <point x="279" y="229" type="curve" smooth="yes"/>
      <point x="279" y="211"/>
      <point x="264" y="196"/>
      <point x="246" y="196" type="curve" smooth="yes"/>
      <point x="242" y="196"/>
      <point x="240" y="196"/>
      <point x="236" y="196" type="curve" smooth="yes"/>
      <point x="131" y="196"/>
      <point x="71" y="266"/>
      <point x="71" y="340" type="curve" smooth="yes"/>
      <point x="71" y="411"/>
      <point x="123" y="478"/>
      <point x="220" y="478" type="curve" smooth="yes"/>
      <point x="307" y="478"/>
      <point x="368" y="429"/>
      <point x="408" y="348" type="curve"/>
      <point x="378" y="367" type="line"/>
      <point x="382" y="367" type="line"/>
      <point x="353" y="349" type="line"/>
      <point x="396" y="430"/>
      <point x="459" y="478"/>
      <point x="534" y="478" type="curve" smooth="yes"/>
      <point x="629" y="478"/>
      <point x="708" y="415"/>
      <point x="708" y="230" type="curve" smooth="yes"/>
      <point x="708" y="32"/>
      <point x="635" y="-11"/>
      <point x="542" y="-11" type="curve" smooth="yes"/>
      <point x="471" y="-11"/>
      <point x="415" y="41"/>
      <point x="415" y="111" type="curve" smooth="yes"/>
      <point x="415" y="174"/>
      <point x="461" y="236"/>
      <point x="547" y="236" type="curve" smooth="yes"/>
      <point x="609" y="236"/>
      <point x="651" y="207"/>
      <point x="686" y="170" type="curve" smooth="yes"/>
      <point x="698" y="157"/>
      <point x="698" y="135"/>
      <point x="685" y="123" type="curve" smooth="yes"/>
      <point x="672" y="111"/>
      <point x="650" y="111"/>
    </contour>
  </outline>
</glyph>
<glyph name="knTA" format="1">
  <advance width="638"/>
  <unicode hex="0CA4"/>
  <outline>
    <contour>
      <point x="90" y="470" type="curve" smooth="yes"/>
      <point x="428" y="470" type="line" smooth="yes"/>
      <point x="487" y="470"/>
      <point x="522" y="490"/>
      <point x="548" y="532" type="curve" smooth="yes"/>
      <point x="557" y="547"/>
      <point x="578" y="552"/>
      <point x="593" y="543" type="curve" smooth="yes"/>
      <point x="608" y="534"/>
      <point x="613" y="513"/>
      <point x="604" y="498" type="curve" smooth="yes"/>
      <point x="566" y="436"/>
      <point x="515" y="404"/>
      <point x="428" y="404" type="curve" smooth="yes"/>
      <point x="90" y="404" type="line" smooth="yes"/>
      <point x="72" y="404"/>
      <point x="57" y="419"/>
      <point x="57" y="437" type="curve" smooth="yes"/>
      <point x="57" y="455"/>
      <point x="72" y="470"/>
    </contour>
    <contour>
      <point x="118" y="102" type="curve" smooth="yes"/>
      <point x="163" y="74"/>
      <point x="229" y="51"/>
      <point x="324" y="51" type="curve" smooth="yes"/>
      <point x="445" y="51"/>
      <point x="519" y="100"/>
      <point x="519" y="174" type="curve" smooth="yes"/>
      <point x="519" y="238"/>
      <point x="443" y="287"/>
      <point x="327" y="287" type="curve" smooth="yes"/>
      <point x="279" y="287"/>
      <point x="233" y="273"/>
      <point x="233" y="245" type="curve" smooth="yes"/>
      <point x="233" y="220"/>
      <point x="264" y="208"/>
      <point x="301" y="207" type="curve" smooth="yes"/>
      <point x="365" y="206"/>
      <point x="408" y="245"/>
      <point x="408" y="293" type="curve" smooth="yes"/>
      <point x="408" y="333"/>
      <point x="403" y="378"/>
      <point x="381" y="422" type="curve" smooth="yes"/>
      <point x="374" y="438"/>
      <point x="380" y="459"/>
      <point x="396" y="467" type="curve" smooth="yes"/>
      <point x="412" y="474"/>
      <point x="433" y="468"/>
      <point x="441" y="452" type="curve" smooth="yes"/>
      <point x="467" y="398"/>
      <point x="474" y="343"/>
      <point x="474" y="293" type="curve" smooth="yes"/>
      <point x="474" y="215"/>
      <point x="413" y="140"/>
      <point x="301" y="141" type="curve" smooth="yes"/>
      <point x="198" y="142"/>
      <point x="167" y="196"/>
      <point x="167" y="245" type="curve" smooth="yes"/>
      <point x="167" y="293"/>
      <point x="203" y="353"/>
      <point x="327" y="353" type="curve" smooth="yes"/>
      <point x="511" y="353"/>
      <point x="585" y="260"/>
      <point x="585" y="174" type="curve" smooth="yes"/>
      <point x="585" y="76"/>
      <point x="511" y="-15"/>
      <point x="324" y="-15" type="curve" smooth="yes"/>
      <point x="213" y="-15"/>
      <point x="135" y="14"/>
      <point x="84" y="46" type="curve" smooth="yes"/>
      <point x="68" y="55"/>
      <point x="64" y="76"/>
      <point x="73" y="91" type="curve" smooth="yes"/>
      <point x="82" y="107"/>
      <point x="103" y="111"/>
    </contour>
  </outline>
</glyph>
<glyph name="knDA" format="1">
  <advance width="731"/>
  <unicode hex="0CA6"/>
  <outline>
    <contour>
      <point x="101" y="470" type="curve" smooth="yes"/>
      <point x="504" y="470" type="line" smooth="yes"/>
      <point x="563" y="470"/>
      <point x="598" y="490"/>
      <point x="624" y="532" type="curve" smooth="yes"/>
      <point x="633" y="547"/>
      <point x="654" y="552"/>
      <point x="669" y="543" type="curve" smooth="yes"/>
      <point x="684" y="534"/>
      <point x="689" y="513"/>
      <point x="680" y="498" type="curve" smooth="yes"/>
      <point x="642" y="436"/>
      <point x="591" y="404"/>
      <point x="504" y="404" type="curve" smooth="yes"/>
      <point x="101" y="404" type="line" smooth="yes"/>
      <point x="83" y="404"/>
      <point x="68" y="419"/>
      <point x="68" y="437" type="curve" smooth="yes"/>
      <point x="68" y="455"/>
      <point x="83" y="470"/>
    </contour>
    <contour>
      <point x="321" y="407" type="curve" smooth="yes"/>
      <point x="211" y="358"/>
      <point x="129" y="264"/>
      <point x="129" y="172" type="curve" smooth="yes"/>
      <point x="129" y="104"/>
      <point x="165" y="60"/>
      <point x="221" y="60" type="curve" smooth="yes"/>
      <point x="274" y="60"/>
      <point x="303" y="90"/>
      <point x="331" y="143" type="curve" smooth="yes"/>
      <point x="336" y="153"/>
      <point x="349" y="161"/>
      <point x="360" y="161" type="curve" smooth="yes"/>
      <point x="365" y="161" type="line" smooth="yes"/>
      <point x="376" y="161"/>
      <point x="389" y="153"/>
      <point x="394" y="144" type="curve" smooth="yes"/>
      <point x="424" y="88"/>
      <point x="453" y="60"/>
      <point x="509" y="60" type="curve" smooth="yes"/>
      <point x="565" y="60"/>
      <point x="602" y="104"/>
      <point x="602" y="172" type="curve" smooth="yes"/>
      <point x="602" y="263"/>
      <point x="515" y="357"/>
      <point x="403" y="407" type="curve" smooth="yes"/>
      <point x="386" y="414"/>
      <point x="379" y="434"/>
      <point x="386" y="450" type="curve" smooth="yes"/>
      <point x="393" y="467"/>
      <point x="413" y="474"/>
      <point x="429" y="467" type="curve" smooth="yes"/>
      <point x="571" y="405"/>
      <point x="668" y="283"/>
      <point x="668" y="172" type="curve" smooth="yes"/>
      <point x="668" y="56"/>
      <point x="597" y="-6"/>
      <point x="509" y="-6" type="curve" smooth="yes"/>
      <point x="427" y="-6"/>
      <point x="382" y="28"/>
      <point x="336" y="112" type="curve"/>
      <point x="365" y="95" type="line"/>
      <point x="360" y="95" type="line"/>
      <point x="389" y="113" type="line"/>
      <point x="347" y="32"/>
      <point x="298" y="-6"/>
      <point x="221" y="-6" type="curve" smooth="yes"/>
      <point x="131" y="-6"/>
      <point x="63" y="56"/>
      <point x="63" y="172" type="curve"/>
      <point x="63" y="284"/>
      <point x="157" y="406"/>
      <point x="295" y="467" type="curve" smooth="yes"/>
      <point x="311" y="474"/>
      <point x="331" y="467"/>
      <point x="338" y="450" type="curve" smooth="yes"/>
      <point x="345" y="434"/>
      <point x="338" y="414"/>
    </contour>
  </outline>
</glyph>
<glyph name="knNA" format="1">
  <advance width="638"/>
  <unicode hex="0CA8"/>
  <outline>
    <contour>
      <point x="91" y="470" type="curve" smooth="yes"/>
      <point x="415" y="470" type="line" smooth="yes"/>
      <point x="474" y="470"/>
      <point x="509" y="490"/>
      <point x="535" y="532" type="curve" smooth="yes"/>
      <point x="544" y="547"/>
      <point x="565" y="552"/>
      <point x="580" y="543" type="curve" smooth="yes"/>
      <point x="595" y="534"/>
      <point x="600" y="513"/>
      <point x="591" y="498" type="curve" smooth="yes"/>
      <point x="553" y="436"/>
      <point x="502" y="404"/>
      <point x="415" y="404" type="curve" smooth="yes"/>
      <point x="91" y="404" type="line" smooth="yes"/>
      <point x="73" y="404"/>
      <point x="58" y="419"/>
      <point x="58" y="437" type="curve" smooth="yes"/>
      <point x="58" y="455"/>
      <point x="73" y="470"/>
    </contour>
    <contour>
      <point x="67" y="17" type="curve" smooth="yes"/>
      <point x="67" y="106"/>
      <point x="86" y="173"/>
      <point x="118" y="205" type="curve" smooth="yes"/>
      <point x="138" y="226"/>
      <point x="167" y="242"/>
      <point x="205" y="242" type="curve" smooth="yes"/>
      <point x="252" y="242"/>
      <point x="305" y="219"/>
      <point x="351" y="143" type="curve" smooth="yes"/>
      <point x="380" y="96"/>
      <point x="400" y="60"/>
      <point x="448" y="60" type="curve" smooth="yes"/>
      <point x="488" y="60"/>
      <point x="526" y="100"/>
      <point x="526" y="172" type="curve" smooth="yes"/>
      <point x="526" y="262"/>
      <point x="449" y="350"/>
      <point x="354" y="409" type="curve" smooth="yes"/>
      <point x="339" y="418"/>
      <point x="334" y="439"/>
      <point x="343" y="454" type="curve" smooth="yes"/>
      <point x="352" y="469"/>
      <point x="373" y="474"/>
      <point x="388" y="465" type="curve" smooth="yes"/>
      <point x="507" y="392"/>
      <point x="592" y="280"/>
      <point x="592" y="172" type="curve" smooth="yes"/>
      <point x="592" y="40"/>
      <point x="512" y="-6"/>
      <point x="448" y="-6" type="curve" smooth="yes"/>
      <point x="378" y="-6"/>
      <point x="340" y="34"/>
      <point x="295" y="109" type="curve" smooth="yes"/>
      <point x="267" y="155"/>
      <point x="236" y="176"/>
      <point x="205" y="176" type="curve" smooth="yes"/>
      <point x="187" y="176"/>
      <point x="174" y="168"/>
      <point x="164" y="159" type="curve" smooth="yes"/>
      <point x="140" y="135"/>
      <point x="133" y="82"/>
      <point x="133" y="17" type="curve" smooth="yes"/>
      <point x="133" y="-1"/>
      <point x="118" y="-16"/>
      <point x="100" y="-16" type="curve" smooth="yes"/>
      <point x="82" y="-16"/>
      <point x="67" y="-1"/>
    </contour>
  </outline>
</glyph>
<glyph name="knBA" format="1">
  <advance width="723"/>
  <unicode hex="0CAC"/>
  <outline>
    <contour>
      <point x="52" y="428" type="curve" smooth="yes"/>
      <point x="84" y="464"/>
      <point x="123" y="485"/>
      <point x="168" y="485" type="curve" smooth="yes"/>
      <point x="242" y="485"/>
      <point x="286" y="435"/>
      <point x="286" y="375" type="curve" smooth="yes"/>
      <point x="286" y="329"/>
      <point x="264" y="287"/>
      <point x="195" y="231" type="curve" smooth="yes"/>
      <point x="156" y="200"/>
      <point x="128" y="168"/>
      <point x="128" y="129" type="curve" smooth="yes"/>
      <point x="128" y="90"/>
      <point x="158" y="60"/>
      <point x="207" y="60" type="curve" smooth="yes"/>
      <point x="263" y="60"/>
      <point x="301" y="90"/>
      <point x="336" y="145" type="curve" smooth="yes"/>
      <point x="341" y="154"/>
      <point x="354" y="161"/>
      <point x="364" y="161" type="curve" smooth="yes"/>
      <point x="369" y="161" type="line" smooth="yes"/>
      <point x="380" y="161"/>
      <point x="392" y="154"/>
      <point x="398" y="144" type="curve" smooth="yes"/>
      <point x="429" y="89"/>
      <point x="467" y="60"/>
      <point x="521" y="60" type="curve" smooth="yes"/>
      <point x="574" y="60"/>
      <point x="612" y="106"/>
      <point x="612" y="179" type="curve" smooth="yes"/>
      <point x="612" y="269"/>
      <point x="565" y="353"/>
      <point x="489" y="411" type="curve" smooth="yes"/>
      <point x="475" y="421"/>
      <point x="472" y="443"/>
      <point x="483" y="457" type="curve" smooth="yes"/>
      <point x="493" y="471"/>
      <point x="515" y="474"/>
      <point x="529" y="463" type="curve" smooth="yes"/>
      <point x="623" y="393"/>
      <point x="678" y="289"/>
      <point x="678" y="179" type="curve" smooth="yes"/>
      <point x="678" y="54"/>
      <point x="604" y="-6"/>
      <point x="521" y="-6" type="curve" smooth="yes"/>
      <point x="443" y="-6"/>
      <point x="387" y="31"/>
      <point x="340" y="112" type="curve"/>
      <point x="369" y="95" type="line"/>
      <point x="364" y="95" type="line"/>
      <point x="392" y="111" type="line"/>
      <point x="343" y="30"/>
      <point x="285" y="-6"/>
      <point x="207" y="-6" type="curve" smooth="yes"/>
      <point x="110" y="-6"/>
      <point x="62" y="58"/>
      <point x="62" y="129" type="curve"/>
      <point x="62" y="186"/>
      <point x="96" y="236"/>
      <point x="153" y="283" type="curve" smooth="yes"/>
      <point x="198" y="319"/>
      <point x="220" y="343"/>
      <point x="220" y="375" type="curve" smooth="yes"/>
      <point x="220" y="401"/>
      <point x="198" y="419"/>
      <point x="168" y="419" type="curve" smooth="yes"/>
      <point x="141" y="419"/>
      <point x="120" y="404"/>
      <point x="102" y="384" type="curve" smooth="yes"/>
      <point x="90" y="371"/>
      <point x="68" y="370"/>
      <point x="55" y="381" type="curve" smooth="yes"/>
      <point x="42" y="393"/>
      <point x="41" y="415"/>
    </contour>
  </outline>
</glyph>
<glyph name="knBHA" format="1">
  <advance width="731"/>
  <unicode hex="0CAD"/>
  <outline>
    <contour>
      <point x="406" y="-89" type="curve" smooth="yes"/>
      <point x="406" y="-192" type="line" smooth="yes"/>
      <point x="406" y="-210"/>
      <point x="391" y="-225"/>
      <point x="373" y="-225" type="curve" smooth="yes"/>
      <point x="355" y="-225"/>
      <point x="340" y="-210"/>
      <point x="340" y="-192" type="curve" smooth="yes"/>
      <point x="340" y="-89" type="line" smooth="yes"/>
      <point x="340" y="-71"/>
      <point x="355" y="-56"/>
      <point x="373" y="-56" type="curve" smooth="yes"/>
      <point x="391" y="-56"/>
      <point x="406" y="-71"/>
    </contour>
    <contour>
      <point x="429" y="470" type="curve" smooth="yes"/>
      <point x="518" y="470" type="line" smooth="yes"/>
      <point x="577" y="470"/>
      <point x="612" y="490"/>
      <point x="638" y="532" type="curve" smooth="yes"/>
      <point x="647" y="547"/>
      <point x="668" y="552"/>
      <point x="683" y="543" type="curve" smooth="yes"/>
      <point x="698" y="534"/>
      <point x="703" y="513"/>
      <point x="694" y="498" type="curve" smooth="yes"/>
      <point x="656" y="436"/>
      <point x="605" y="404"/>
      <point x="518" y="404" type="curve" smooth="yes"/>
      <point x="429" y="404" type="line" smooth="yes"/>
      <point x="411" y="404"/>
      <point x="396" y="419"/>
      <point x="396" y="437" type="curve" smooth="yes"/>
      <point x="396" y="455"/>
      <point x="411" y="470"/>
    </contour>
    <contour>
      <point x="57" y="428" type="curve" smooth="yes"/>
      <point x="89" y="464"/>
      <point x="128" y="485"/>
      <point x="173" y="485" type="curve" smooth="yes"/>
      <point x="247" y="485"/>
      <point x="291" y="435"/>
      <point x="291" y="375" type="curve" smooth="yes"/>
      <point x="291" y="329"/>
      <point x="269" y="287"/>
      <point x="200" y="231" type="curve" smooth="yes"/>
      <point x="161" y="200"/>
      <point x="133" y="168"/>
      <point x="133" y="129" type="curve" smooth="yes"/>
      <point x="133" y="90"/>
      <point x="163" y="60"/>
      <point x="212" y="60" type="curve" smooth="yes"/>
      <point x="268" y="60"/>
      <point x="306" y="90"/>
      <point x="341" y="145" type="curve" smooth="yes"/>
      <point x="346" y="154"/>
      <point x="359" y="161"/>
      <point x="369" y="161" type="curve" smooth="yes"/>
      <point x="374" y="161" type="line" smooth="yes"/>
      <point x="385" y="161"/>
      <point x="397" y="154"/>
      <point x="403" y="144" type="curve" smooth="yes"/>
      <point x="434" y="89"/>
      <point x="472" y="60"/>
      <point x="526" y="60" type="curve" smooth="yes"/>
      <point x="579" y="60"/>
      <point x="614" y="105"/>
      <point x="614" y="172" type="curve" smooth="yes"/>
      <point x="614" y="260"/>
      <point x="555" y="352"/>
      <point x="470" y="410" type="curve" smooth="yes"/>
      <point x="455" y="420"/>
      <point x="451" y="441"/>
      <point x="461" y="455" type="curve" smooth="yes"/>
      <point x="471" y="470"/>
      <point x="492" y="474"/>
      <point x="506" y="464" type="curve" smooth="yes"/>
      <point x="611" y="394"/>
      <point x="680" y="278"/>
      <point x="680" y="172" type="curve" smooth="yes"/>
      <point x="680" y="55"/>
      <point x="609" y="-6"/>
      <point x="526" y="-6" type="curve" smooth="yes"/>
      <point x="448" y="-6"/>
      <point x="392" y="31"/>
      <point x="345" y="112" type="curve"/>
      <point x="374" y="95" type="line"/>
      <point x="369" y="95" type="line"/>
      <point x="397" y="111" type="line"/>
      <point x="348" y="30"/>
      <point x="290" y="-6"/>
      <point x="212" y="-6" type="curve" smooth="yes"/>
      <point x="115" y="-6"/>
      <point x="67" y="58"/>
      <point x="67" y="129" type="curve" smooth="yes"/>
      <point x="67" y="186"/>
      <point x="101" y="236"/>
      <point x="158" y="283" type="curve" smooth="yes"/>
      <point x="203" y="319"/>
      <point x="225" y="343"/>
      <point x="225" y="375" type="curve" smooth="yes"/>
      <point x="225" y="401"/>
      <point x="203" y="419"/>
      <point x="173" y="419" type="curve" smooth="yes"/>
      <point x="146" y="419"/>
      <point x="125" y="404"/>
      <point x="107" y="384" type="curve" smooth="yes"/>
      <point x="95" y="371"/>
      <point x="73" y="370"/>
      <point x="60" y="381" type="curve" smooth="yes"/>
      <point x="47" y="393"/>
      <point x="46" y="415"/>
    </contour>
  </outline>
</glyph>
<glyph name="knYA" format="1">
  <advance width="1204"/>
  <unicode hex="0CAF"/>
  <outline>
    <contour>
      <point x="47" y="227" type="curve"/>
      <point x="47" y="348"/>
      <point x="154" y="470"/>
      <point x="291" y="470" type="curve" smooth="yes"/>
      <point x="430" y="470"/>
      <point x="535" y="346"/>
      <point x="535" y="227" type="curve" smooth="yes"/>
      <point x="535" y="94"/>
      <point x="441" y="-10"/>
      <point x="291" y="-10" type="curve" smooth="yes"/>
      <point x="139" y="-10"/>
      <point x="47" y="92"/>
    </contour>
    <contour>
      <point x="113" y="227" type="curve" smooth="yes"/>
      <point x="113" y="128"/>
      <point x="181" y="56"/>
      <point x="291" y="56" type="curve" smooth="yes"/>
      <point x="399" y="56"/>
      <point x="469" y="130"/>
      <point x="469" y="227" type="curve" smooth="yes"/>
      <point x="469" y="314"/>
      <point x="392" y="404"/>
      <point x="291" y="404" type="curve" smooth="yes"/>
      <point x="192" y="404"/>
      <point x="113" y="316"/>
    </contour>
    <contour>
      <point x="579" y="470" type="curve" smooth="yes"/>
      <point x="691" y="470" type="line" smooth="yes"/>
      <point x="750" y="470"/>
      <point x="785" y="490"/>
      <point x="811" y="532" type="curve" smooth="yes"/>
      <point x="820" y="547"/>
      <point x="841" y="552"/>
      <point x="856" y="543" type="curve" smooth="yes"/>
      <point x="871" y="534"/>
      <point x="876" y="513"/>
      <point x="867" y="498" type="curve" smooth="yes"/>
      <point x="829" y="436"/>
      <point x="778" y="404"/>
      <point x="691" y="404" type="curve" smooth="yes"/>
      <point x="579" y="404" type="line" smooth="yes"/>
      <point x="561" y="404"/>
      <point x="546" y="419"/>
      <point x="546" y="437" type="curve" smooth="yes"/>
      <point x="546" y="455"/>
      <point x="561" y="470"/>
    </contour>
    <component base="knsignU" xOffset="593"/>
    <component base="knsignU" xOffset="904"/>
    <component base="knsignU" xOffset="593"/>
    <component base="knsignU" xOffset="904"/>
  </outline>
</glyph>
<glyph name="knRRA" format="1">
  <advance width="741"/>
  <unicode hex="0CB1"/>
  <outline>
    <contour>
      <point x="132" y="359" type="curve" smooth="yes"/>
      <point x="153" y="328"/>
      <point x="177" y="306"/>
      <point x="209" y="306" type="curve" smooth="yes"/>
      <point x="238" y="306"/>
      <point x="264" y="324"/>
      <point x="264" y="355" type="curve" smooth="yes"/>
      <point x="264" y="386"/>
      <point x="242" y="406"/>
      <point x="209" y="406" type="curve" smooth="yes"/>
      <point x="151" y="406"/>
      <point x="112" y="321"/>
      <point x="112" y="229" type="curve" smooth="yes"/>
      <point x="112" y="139"/>
      <point x="155" y="60"/>
      <point x="226" y="60" type="curve" smooth="yes"/>
      <point x="279" y="60"/>
      <point x="309" y="89"/>
      <point x="339" y="144" type="curve" smooth="yes"/>
      <point x="344" y="153"/>
      <point x="357" y="161"/>
      <point x="368" y="161" type="curve" smooth="yes"/>
      <point x="373" y="161" type="line" smooth="yes"/>
      <point x="384" y="161"/>
      <point x="397" y="153"/>
      <point x="402" y="144" type="curve" smooth="yes"/>
      <point x="432" y="89"/>
      <point x="462" y="60"/>
      <point x="515" y="60" type="curve" smooth="yes"/>
      <point x="586" y="60"/>
      <point x="629" y="139"/>
      <point x="629" y="229" type="curve" smooth="yes"/>
      <point x="629" y="321"/>
      <point x="590" y="406"/>
      <point x="532" y="406" type="curve" smooth="yes"/>
      <point x="499" y="406"/>
      <point x="477" y="386"/>
      <point x="477" y="355" type="curve" smooth="yes"/>
      <point x="477" y="324"/>
      <point x="503" y="306"/>
      <point x="532" y="306" type="curve" smooth="yes"/>
      <point x="564" y="306"/>
      <point x="588" y="328"/>
      <point x="609" y="359" type="curve" smooth="yes"/>
      <point x="618" y="374"/>
      <point x="639" y="378"/>
      <point x="654" y="368" type="curve" smooth="yes"/>
      <point x="669" y="359"/>
      <point x="673" y="338"/>
      <point x="663" y="323" type="curve" smooth="yes"/>
      <point x="628" y="270"/>
      <point x="584" y="240"/>
      <point x="532" y="240" type="curve" smooth="yes"/>
      <point x="465" y="240"/>
      <point x="411" y="286"/>
      <point x="411" y="355" type="curve" smooth="yes"/>
      <point x="411" y="422"/>
      <point x="455" y="472"/>
      <point x="532" y="472" type="curve" smooth="yes"/>
      <point x="612" y="472"/>
      <point x="695" y="383"/>
      <point x="695" y="229" type="curve" smooth="yes"/>
      <point x="695" y="87"/>
      <point x="614" y="-6"/>
      <point x="515" y="-6" type="curve" smooth="yes"/>
      <point x="438" y="-6"/>
      <point x="388" y="29"/>
      <point x="344" y="112" type="curve"/>
      <point x="373" y="95" type="line"/>
      <point x="368" y="95" type="line"/>
      <point x="397" y="112" type="line"/>
      <point x="353" y="29"/>
      <point x="303" y="-6"/>
      <point x="226" y="-6" type="curve" smooth="yes"/>
      <point x="127" y="-6"/>
      <point x="46" y="87"/>
      <point x="46" y="229" type="curve"/>
      <point x="46" y="383"/>
      <point x="129" y="472"/>
      <point x="209" y="472" type="curve" smooth="yes"/>
      <point x="286" y="472"/>
      <point x="330" y="422"/>
      <point x="330" y="355" type="curve" smooth="yes"/>
      <point x="330" y="286"/>
      <point x="276" y="240"/>
      <point x="209" y="240" type="curve" smooth="yes"/>
      <point x="157" y="240"/>
      <point x="113" y="270"/>
      <point x="78" y="323" type="curve" smooth="yes"/>
      <point x="68" y="338"/>
      <point x="72" y="359"/>
      <point x="87" y="368" type="curve" smooth="yes"/>
      <point x="102" y="378"/>
      <point x="123" y="374"/>
    </contour>
    <contour>
      <point x="211" y="306" type="curve" smooth="yes"/>
      <point x="531" y="306" type="line" smooth="yes"/>
      <point x="549" y="306"/>
      <point x="564" y="291"/>
      <point x="564" y="273" type="curve" smooth="yes"/>
      <point x="564" y="255"/>
      <point x="549" y="240"/>
      <point x="531" y="240" type="curve" smooth="yes"/>
      <point x="211" y="240" type="line" smooth="yes"/>
      <point x="193" y="240"/>
      <point x="178" y="255"/>
      <point x="178" y="273" type="curve" smooth="yes"/>
      <point x="178" y="291"/>
      <point x="193" y="306"/>
    </contour>
  </outline>
</glyph>
<glyph name="knLA" format="1">
  <advance width="693"/>
  <unicode hex="0CB2"/>
  <outline>
    <contour>
      <point x="127" y="366" type="curve" smooth="yes"/>
      <point x="152" y="334"/>
      <point x="181" y="313"/>
      <point x="214" y="313" type="curve" smooth="yes"/>
      <point x="245" y="313"/>
      <point x="271" y="331"/>
      <point x="271" y="363" type="curve" smooth="yes"/>
      <point x="271" y="394"/>
      <point x="248" y="419"/>
      <point x="212" y="419" type="curve" smooth="yes"/>
      <point x="152" y="419"/>
      <point x="116" y="330"/>
      <point x="116" y="253" type="curve" smooth="yes"/>
      <point x="116" y="145"/>
      <point x="205" y="60"/>
      <point x="359" y="60" type="curve" smooth="yes"/>
      <point x="519" y="60"/>
      <point x="584" y="155"/>
      <point x="584" y="249" type="curve" smooth="yes"/>
      <point x="584" y="318"/>
      <point x="548" y="374"/>
      <point x="499" y="410" type="curve" smooth="yes"/>
      <point x="484" y="421"/>
      <point x="481" y="442"/>
      <point x="491" y="456" type="curve" smooth="yes"/>
      <point x="502" y="471"/>
      <point x="523" y="474"/>
      <point x="537" y="464" type="curve" smooth="yes"/>
      <point x="604" y="416"/>
      <point x="650" y="340"/>
      <point x="650" y="249" type="curve" smooth="yes"/>
      <point x="650" y="127"/>
      <point x="575" y="-6"/>
      <point x="359" y="-6" type="curve" smooth="yes"/>
      <point x="153" y="-6"/>
      <point x="50" y="115"/>
      <point x="50" y="253" type="curve"/>
      <point x="50" y="382"/>
      <point x="128" y="485"/>
      <point x="212" y="485" type="curve" smooth="yes"/>
      <point x="292" y="485"/>
      <point x="337" y="430"/>
      <point x="337" y="363" type="curve" smooth="yes"/>
      <point x="337" y="295"/>
      <point x="285" y="247"/>
      <point x="214" y="247" type="curve" smooth="yes"/>
      <point x="163" y="247"/>
      <point x="114" y="274"/>
      <point x="75" y="326" type="curve" smooth="yes"/>
      <point x="64" y="340"/>
      <point x="67" y="361"/>
      <point x="81" y="372" type="curve" smooth="yes"/>
      <point x="95" y="383"/>
      <point x="116" y="380"/>
    </contour>
  </outline>
</glyph>
<glyph name="knLLA" format="1">
  <advance width="700"/>
  <unicode hex="0CB3"/>
  <outline>
    <contour>
      <point x="337" y="199" type="curve" smooth="yes"/>
      <point x="337" y="199" type="line" smooth="yes"/>
      <point x="455" y="200"/>
      <point x="480" y="140"/>
      <point x="480" y="88" type="curve" smooth="yes"/>
      <point x="480" y="39"/>
      <point x="446" y="-22"/>
      <point x="337" y="-22" type="curve" smooth="yes"/>
      <point x="233" y="-22"/>
      <point x="195" y="38"/>
      <point x="195" y="89" type="curve" smooth="yes"/>
      <point x="195" y="140"/>
      <point x="225" y="198"/>
    </contour>
    <contour>
      <point x="90" y="352" type="curve" smooth="yes"/>
      <point x="115" y="339"/>
      <point x="145" y="331"/>
      <point x="177" y="331" type="curve" smooth="yes"/>
      <point x="211" y="331"/>
      <point x="238" y="346"/>
      <point x="238" y="375" type="curve" smooth="yes"/>
      <point x="238" y="401"/>
      <point x="214" y="419"/>
      <point x="183" y="419" type="curve" smooth="yes"/>
      <point x="138" y="419"/>
      <point x="107" y="378"/>
      <point x="107" y="333" type="curve" smooth="yes"/>
      <point x="107" y="305"/>
      <point x="112" y="274"/>
      <point x="129" y="256" type="curve" smooth="yes"/>
      <point x="165" y="220"/>
      <point x="217" y="201"/>
      <point x="345" y="201" type="curve" smooth="yes"/>
      <point x="443" y="201"/>
      <point x="508" y="219"/>
      <point x="539" y="250" type="curve" smooth="yes"/>
      <point x="556" y="265"/>
      <point x="565" y="287"/>
      <point x="565" y="308" type="curve" smooth="yes"/>
      <point x="565" y="341"/>
      <point x="541" y="387"/>
      <point x="493" y="407" type="curve" smooth="yes"/>
      <point x="477" y="413"/>
      <point x="469" y="433"/>
      <point x="476" y="450" type="curve" smooth="yes"/>
      <point x="482" y="466"/>
      <point x="502" y="474"/>
      <point x="519" y="467" type="curve" smooth="yes"/>
      <point x="595" y="435"/>
      <point x="631" y="361"/>
      <point x="631" y="308" type="curve" smooth="yes"/>
      <point x="631" y="269"/>
      <point x="614" y="231"/>
      <point x="585" y="202" type="curve" smooth="yes"/>
      <point x="546" y="165"/>
      <point x="469" y="135"/>
      <point x="345" y="135" type="curve" smooth="yes"/>
      <point x="185" y="135"/>
      <point x="127" y="166"/>
      <point x="83" y="210" type="curve" smooth="yes"/>
      <point x="54" y="238"/>
      <point x="41" y="287"/>
      <point x="41" y="333" type="curve"/>
      <point x="41" y="416"/>
      <point x="104" y="485"/>
      <point x="183" y="485" type="curve" smooth="yes"/>
      <point x="262" y="485"/>
      <point x="304" y="433"/>
      <point x="304" y="375" type="curve" smooth="yes"/>
      <point x="304" y="316"/>
      <point x="263" y="265"/>
      <point x="177" y="265" type="curve" smooth="yes"/>
      <point x="134" y="265"/>
      <point x="95" y="275"/>
      <point x="60" y="292" type="curve" smooth="yes"/>
      <point x="44" y="300"/>
      <point x="38" y="321"/>
      <point x="45" y="337" type="curve" smooth="yes"/>
      <point x="53" y="353"/>
      <point x="74" y="359"/>
    </contour>
    <contour>
      <point x="413" y="470" type="curve" smooth="yes"/>
      <point x="515" y="470" type="line" smooth="yes"/>
      <point x="574" y="470"/>
      <point x="609" y="490"/>
      <point x="635" y="532" type="curve" smooth="yes"/>
      <point x="644" y="547"/>
      <point x="665" y="552"/>
      <point x="680" y="543" type="curve" smooth="yes"/>
      <point x="695" y="534"/>
      <point x="700" y="513"/>
      <point x="691" y="498" type="curve" smooth="yes"/>
      <point x="653" y="436"/>
      <point x="602" y="404"/>
      <point x="515" y="404" type="curve" smooth="yes"/>
      <point x="413" y="404" type="line" smooth="yes"/>
      <point x="395" y="404"/>
      <point x="380" y="419"/>
      <point x="380" y="437" type="curve" smooth="yes"/>
      <point x="380" y="455"/>
      <point x="395" y="470"/>
    </contour>
    <contour>
      <point x="337" y="133" type="line"/>
      <point x="293" y="132"/>
      <point x="261" y="116"/>
      <point x="261" y="89" type="curve" smooth="yes"/>
      <point x="261" y="62"/>
      <point x="295" y="44"/>
      <point x="337" y="44" type="curve" smooth="yes"/>
      <point x="380" y="44"/>
      <point x="414" y="61"/>
      <point x="414" y="88" type="curve" smooth="yes"/>
      <point x="414" y="116"/>
      <point x="385" y="134"/>
      <point x="337" y="133" type="curve"/>
    </contour>
  </outline>
</glyph>
<glyph name="knVA" format="1">
  <advance width="696"/>
  <unicode hex="0CB5"/>
  <outline>
    <contour>
      <point x="103" y="470" type="curve" smooth="yes"/>
      <point x="468" y="470" type="line" smooth="yes"/>
      <point x="527" y="470"/>
      <point x="562" y="490"/>
      <point x="588" y="532" type="curve" smooth="yes"/>
      <point x="597" y="547"/>
      <point x="618" y="552"/>
      <point x="633" y="543" type="curve" smooth="yes"/>
      <point x="648" y="534"/>
      <point x="653" y="513"/>
      <point x="644" y="498" type="curve" smooth="yes"/>
      <point x="606" y="436"/>
      <point x="555" y="404"/>
      <point x="468" y="404" type="curve" smooth="yes"/>
      <point x="103" y="404" type="line" smooth="yes"/>
      <point x="85" y="404"/>
      <point x="70" y="419"/>
      <point x="70" y="437" type="curve" smooth="yes"/>
      <point x="70" y="455"/>
      <point x="85" y="470"/>
    </contour>
    <contour>
      <point x="179" y="187" type="curve" smooth="yes"/>
      <point x="137" y="181"/>
      <point x="111" y="156"/>
      <point x="111" y="122" type="curve" smooth="yes"/>
      <point x="111" y="85"/>
      <point x="145" y="60"/>
      <point x="189" y="60" type="curve" smooth="yes"/>
      <point x="251" y="60"/>
      <point x="287" y="87"/>
      <point x="317" y="144" type="curve" smooth="yes"/>
      <point x="322" y="153"/>
      <point x="335" y="161"/>
      <point x="346" y="161" type="curve" smooth="yes"/>
      <point x="351" y="161" type="line" smooth="yes"/>
      <point x="361" y="161"/>
      <point x="373" y="154"/>
      <point x="379" y="146" type="curve" smooth="yes"/>
      <point x="413" y="93"/>
      <point x="446" y="60"/>
      <point x="503" y="60" type="curve" smooth="yes"/>
      <point x="552" y="60"/>
      <point x="590" y="100"/>
      <point x="590" y="158" type="curve" smooth="yes"/>
      <point x="590" y="238"/>
      <point x="529" y="332"/>
      <point x="398" y="405" type="curve" smooth="yes"/>
      <point x="382" y="414"/>
      <point x="377" y="435"/>
      <point x="385" y="450" type="curve" smooth="yes"/>
      <point x="394" y="466"/>
      <point x="415" y="471"/>
      <point x="430" y="463" type="curve" smooth="yes"/>
      <point x="591" y="372"/>
      <point x="656" y="254"/>
      <point x="656" y="158" type="curve" smooth="yes"/>
      <point x="656" y="56"/>
      <point x="586" y="-6"/>
      <point x="503" y="-6" type="curve" smooth="yes"/>
      <point x="424" y="-6"/>
      <point x="373" y="33"/>
      <point x="323" y="110" type="curve"/>
      <point x="351" y="95" type="line"/>
      <point x="346" y="95" type="line"/>
      <point x="375" y="112" type="line"/>
      <point x="331" y="31"/>
      <point x="279" y="-6"/>
      <point x="189" y="-6" type="curve" smooth="yes"/>
      <point x="97" y="-6"/>
      <point x="45" y="53"/>
      <point x="45" y="122" type="curve"/>
      <point x="45" y="184"/>
      <point x="87" y="241"/>
      <point x="169" y="253" type="curve" smooth="yes"/>
      <point x="187" y="255"/>
      <point x="204" y="242"/>
      <point x="207" y="225" type="curve" smooth="yes"/>
      <point x="209" y="207"/>
      <point x="196" y="190"/>
    </contour>
  </outline>
</glyph>
<glyph name="knSHA" format="1">
  <advance width="629"/>
  <unicode hex="0CB6"/>
  <outline>
    <contour>
      <point x="79" y="470" type="curve" smooth="yes"/>
      <point x="428" y="470" type="line" smooth="yes"/>
      <point x="487" y="470"/>
      <point x="522" y="490"/>
      <point x="548" y="532" type="curve" smooth="yes"/>
      <point x="557" y="547"/>
      <point x="578" y="552"/>
      <point x="593" y="543" type="curve" smooth="yes"/>
      <point x="608" y="534"/>
      <point x="613" y="513"/>
      <point x="604" y="498" type="curve" smooth="yes"/>
      <point x="566" y="436"/>
      <point x="515" y="404"/>
      <point x="428" y="404" type="curve" smooth="yes"/>
      <point x="79" y="404" type="line" smooth="yes"/>
      <point x="61" y="404"/>
      <point x="46" y="419"/>
      <point x="46" y="437" type="curve" smooth="yes"/>
      <point x="46" y="455"/>
      <point x="61" y="470"/>
    </contour>
    <contour>
      <point x="139" y="362" type="curve" smooth="yes"/>
      <point x="165" y="422"/>
      <point x="213" y="456"/>
      <point x="264" y="456" type="curve" smooth="yes"/>
      <point x="327" y="456"/>
      <point x="385" y="408"/>
      <point x="385" y="335" type="curve" smooth="yes"/>
      <point x="385" y="265"/>
      <point x="345" y="208"/>
      <point x="250" y="197" type="curve" smooth="yes"/>
      <point x="178" y="190"/>
      <point x="153" y="181"/>
      <point x="138" y="167" type="curve" smooth="yes"/>
      <point x="129" y="157"/>
      <point x="125" y="145"/>
      <point x="125" y="130" type="curve" smooth="yes"/>
      <point x="125" y="91"/>
      <point x="183" y="60"/>
      <point x="284" y="60" type="curve" smooth="yes"/>
      <point x="373" y="60"/>
      <point x="434" y="90"/>
      <point x="457" y="113" type="curve" smooth="yes"/>
      <point x="479" y="135"/>
      <point x="495" y="165"/>
      <point x="495" y="201" type="curve" smooth="yes"/>
      <point x="495" y="273"/>
      <point x="442" y="358"/>
      <point x="332" y="407" type="curve" smooth="yes"/>
      <point x="315" y="414"/>
      <point x="308" y="434"/>
      <point x="315" y="450" type="curve" smooth="yes"/>
      <point x="322" y="467"/>
      <point x="342" y="474"/>
      <point x="358" y="467" type="curve" smooth="yes"/>
      <point x="502" y="404"/>
      <point x="561" y="291"/>
      <point x="561" y="201" type="curve" smooth="yes"/>
      <point x="561" y="145"/>
      <point x="537" y="101"/>
      <point x="503" y="67" type="curve" smooth="yes"/>
      <point x="474" y="38"/>
      <point x="399" y="-6"/>
      <point x="284" y="-6" type="curve" smooth="yes"/>
      <point x="87" y="-6"/>
      <point x="59" y="75"/>
      <point x="59" y="130" type="curve"/>
      <point x="59" y="165"/>
      <point x="71" y="193"/>
      <point x="92" y="213" type="curve" smooth="yes"/>
      <point x="111" y="233"/>
      <point x="142" y="252"/>
      <point x="242" y="263" type="curve" smooth="yes"/>
      <point x="293" y="268"/>
      <point x="319" y="295"/>
      <point x="319" y="335" type="curve" smooth="yes"/>
      <point x="319" y="368"/>
      <point x="293" y="390"/>
      <point x="264" y="390" type="curve" smooth="yes"/>
      <point x="235" y="390"/>
      <point x="213" y="366"/>
      <point x="199" y="336" type="curve" smooth="yes"/>
      <point x="192" y="319"/>
      <point x="172" y="312"/>
      <point x="156" y="319" type="curve" smooth="yes"/>
      <point x="139" y="326"/>
      <point x="132" y="346"/>
    </contour>
  </outline>
</glyph>
<glyph name="knSSA" format="1">
  <advance width="716"/>
  <unicode hex="0CB7"/>
  <outline>
    <contour>
      <point x="526" y="212" type="curve" smooth="yes"/>
      <point x="681" y="-28" type="line" smooth="yes"/>
      <point x="690" y="-43"/>
      <point x="686" y="-64"/>
      <point x="671" y="-74" type="curve" smooth="yes"/>
      <point x="656" y="-83"/>
      <point x="635" y="-79"/>
      <point x="625" y="-64" type="curve" smooth="yes"/>
      <point x="470" y="176" type="line" smooth="yes"/>
      <point x="461" y="191"/>
      <point x="465" y="212"/>
      <point x="480" y="222" type="curve" smooth="yes"/>
      <point x="495" y="231"/>
      <point x="516" y="227"/>
    </contour>
    <component base="knPa"/>
    <component base="knPA"/>
    <component base="knPa"/>
    <component base="knPA"/>
  </outline>
</glyph>
<glyph name="knSA" format="1">
  <advance width="668"/>
  <unicode hex="0CB8"/>
  <outline>
    <contour>
      <point x="83" y="470" type="curve" smooth="yes"/>
      <point x="464" y="470" type="line" smooth="yes"/>
      <point x="523" y="470"/>
      <point x="558" y="490"/>
      <point x="584" y="532" type="curve" smooth="yes"/>
      <point x="593" y="547"/>
      <point x="614" y="552"/>
      <point x="629" y="543" type="curve" smooth="yes"/>
      <point x="644" y="534"/>
      <point x="649" y="513"/>
      <point x="640" y="498" type="curve" smooth="yes"/>
      <point x="602" y="436"/>
      <point x="551" y="404"/>
      <point x="464" y="404" type="curve" smooth="yes"/>
      <point x="83" y="404" type="line" smooth="yes"/>
      <point x="65" y="404"/>
      <point x="50" y="419"/>
      <point x="50" y="437" type="curve" smooth="yes"/>
      <point x="50" y="455"/>
      <point x="65" y="470"/>
    </contour>
    <contour>
      <point x="75" y="17" type="curve" smooth="yes"/>
      <point x="75" y="99"/>
      <point x="96" y="154"/>
      <point x="127" y="184" type="curve" smooth="yes"/>
      <point x="148" y="206"/>
      <point x="180" y="222"/>
      <point x="219" y="222" type="curve" smooth="yes"/>
      <point x="264" y="222"/>
      <point x="317" y="201"/>
      <point x="364" y="137" type="curve" smooth="yes"/>
      <point x="395" y="95"/>
      <point x="417" y="60"/>
      <point x="466" y="60" type="curve" smooth="yes"/>
      <point x="515" y="60"/>
      <point x="548" y="100"/>
      <point x="548" y="172" type="curve" smooth="yes"/>
      <point x="548" y="197"/>
      <point x="543" y="231"/>
      <point x="534" y="257" type="curve" smooth="yes"/>
      <point x="529" y="274"/>
      <point x="539" y="293"/>
      <point x="556" y="299" type="curve" smooth="yes"/>
      <point x="573" y="304"/>
      <point x="592" y="294"/>
      <point x="598" y="277" type="curve" smooth="yes"/>
      <point x="607" y="245"/>
      <point x="614" y="203"/>
      <point x="614" y="172" type="curve" smooth="yes"/>
      <point x="614" y="42"/>
      <point x="545" y="-6"/>
      <point x="466" y="-6" type="curve" smooth="yes"/>
      <point x="395" y="-6"/>
      <point x="357" y="35"/>
      <point x="310" y="99" type="curve" smooth="yes"/>
      <point x="281" y="139"/>
      <point x="248" y="156"/>
      <point x="219" y="156" type="curve" smooth="yes"/>
      <point x="200" y="156"/>
      <point x="184" y="148"/>
      <point x="173" y="138" type="curve" smooth="yes"/>
      <point x="152" y="116"/>
      <point x="141" y="75"/>
      <point x="141" y="17" type="curve" smooth="yes"/>
      <point x="141" y="-1"/>
      <point x="126" y="-16"/>
      <point x="108" y="-16" type="curve" smooth="yes"/>
      <point x="90" y="-16"/>
      <point x="75" y="-1"/>
    </contour>
    <contour>
      <point x="309" y="410" type="curve" smooth="yes"/>
      <point x="291" y="393"/>
      <point x="284" y="373"/>
      <point x="284" y="356" type="curve" smooth="yes"/>
      <point x="284" y="328"/>
      <point x="308" y="306"/>
      <point x="343" y="306" type="curve" smooth="yes"/>
      <point x="379" y="306"/>
      <point x="402" y="328"/>
      <point x="402" y="357" type="curve" smooth="yes"/>
      <point x="402" y="374"/>
      <point x="395" y="394"/>
      <point x="377" y="412" type="curve" smooth="yes"/>
      <point x="364" y="424"/>
      <point x="363" y="445"/>
      <point x="375" y="458" type="curve" smooth="yes"/>
      <point x="387" y="471"/>
      <point x="408" y="472"/>
      <point x="421" y="460" type="curve" smooth="yes"/>
      <point x="457" y="428"/>
      <point x="468" y="390"/>
      <point x="468" y="357" type="curve" smooth="yes"/>
      <point x="468" y="296"/>
      <point x="427" y="240"/>
      <point x="343" y="240" type="curve" smooth="yes"/>
      <point x="262" y="240"/>
      <point x="218" y="298"/>
      <point x="218" y="356" type="curve" smooth="yes"/>
      <point x="218" y="389"/>
      <point x="231" y="427"/>
      <point x="265" y="458" type="curve" smooth="yes"/>
      <point x="278" y="470"/>
      <point x="299" y="469"/>
      <point x="311" y="456" type="curve" smooth="yes"/>
      <point x="323" y="443"/>
      <point x="322" y="422"/>
    </contour>
  </outline>
</glyph>
<glyph name="knHA" format="1">
  <advance width="770"/>
  <unicode hex="0CB9"/>
  <outline>
    <contour>
      <point x="405" y="154" type="curve" smooth="yes"/>
      <point x="405" y="68"/>
      <point x="336" y="-10"/>
      <point x="225" y="-10" type="curve" smooth="yes"/>
      <point x="119" y="-10"/>
      <point x="54" y="67"/>
      <point x="54" y="154" type="curve"/>
      <point x="54" y="238"/>
      <point x="120" y="317"/>
      <point x="225" y="317" type="curve" smooth="yes"/>
      <point x="339" y="317"/>
      <point x="405" y="237"/>
    </contour>
    <contour>
      <point x="716" y="154" type="curve" smooth="yes"/>
      <point x="716" y="68"/>
      <point x="654" y="-10"/>
      <point x="543" y="-10" type="curve" smooth="yes"/>
      <point x="437" y="-10"/>
      <point x="365" y="68"/>
      <point x="365" y="154" type="curve" smooth="yes"/>
      <point x="365" y="237"/>
      <point x="435" y="317"/>
      <point x="543" y="317" type="curve" smooth="yes"/>
      <point x="653" y="317"/>
      <point x="716" y="238"/>
    </contour>
    <contour>
      <point x="339" y="154" type="curve" smooth="yes"/>
      <point x="339" y="207"/>
      <point x="293" y="251"/>
      <point x="225" y="251" type="curve" smooth="yes"/>
      <point x="162" y="251"/>
      <point x="120" y="206"/>
      <point x="120" y="154" type="curve" smooth="yes"/>
      <point x="120" y="101"/>
      <point x="161" y="56"/>
      <point x="225" y="56" type="curve" smooth="yes"/>
      <point x="292" y="56"/>
      <point x="339" y="100"/>
    </contour>
    <contour>
      <point x="650" y="154" type="curve" smooth="yes"/>
      <point x="650" y="206"/>
      <point x="609" y="251"/>
      <point x="543" y="251" type="curve" smooth="yes"/>
      <point x="479" y="251"/>
      <point x="431" y="207"/>
      <point x="431" y="154" type="curve" smooth="yes"/>
      <point x="431" y="100"/>
      <point x="479" y="56"/>
      <point x="543" y="56" type="curve" smooth="yes"/>
      <point x="610" y="56"/>
      <point x="650" y="101"/>
    </contour>
    <contour>
      <point x="104" y="470" type="curve" smooth="yes"/>
      <point x="545" y="470" type="line" smooth="yes"/>
      <point x="604" y="470"/>
      <point x="639" y="490"/>
      <point x="665" y="532" type="curve" smooth="yes"/>
      <point x="674" y="547"/>
      <point x="695" y="552"/>
      <point x="710" y="543" type="curve" smooth="yes"/>
      <point x="725" y="534"/>
      <point x="730" y="513"/>
      <point x="721" y="498" type="curve" smooth="yes"/>
      <point x="683" y="436"/>
      <point x="632" y="404"/>
      <point x="545" y="404" type="curve" smooth="yes"/>
      <point x="104" y="404" type="line" smooth="yes"/>
      <point x="86" y="404"/>
      <point x="71" y="419"/>
      <point x="71" y="437" type="curve" smooth="yes"/>
      <point x="71" y="455"/>
      <point x="86" y="470"/>
    </contour>
    <contour>
      <point x="352" y="248" type="curve" smooth="yes"/>
      <point x="352" y="409" type="line" smooth="yes"/>
      <point x="352" y="427"/>
      <point x="367" y="442"/>
      <point x="385" y="442" type="curve" smooth="yes"/>
      <point x="403" y="442"/>
      <point x="418" y="427"/>
      <point x="418" y="409" type="curve" smooth="yes"/>
      <point x="418" y="248" type="line" smooth="yes"/>
      <point x="418" y="230"/>
      <point x="403" y="215"/>
      <point x="385" y="215" type="curve" smooth="yes"/>
      <point x="367" y="215"/>
      <point x="352" y="230"/>
    </contour>
  </outline>
</glyph>
<glyph name="knsignI" format="1">
  <advance width="0"/>
  <unicode hex="0CBF"/>
  <outline>
    <contour>
      <point x="-368" y="343" type="curve" smooth="yes"/>
      <point x="-274" y="343"/>
      <point x="-218" y="397"/>
      <point x="-218" y="473" type="curve" smooth="yes"/>
      <point x="-218" y="525"/>
      <point x="-253" y="582"/>
      <point x="-307" y="582" type="curve" smooth="yes"/>
      <point x="-341" y="582"/>
      <point x="-365" y="559"/>
      <point x="-365" y="530" type="curve" smooth="yes"/>
      <point x="-365" y="502"/>
      <point x="-341" y="482"/>
      <point x="-313" y="482" type="curve" smooth="yes"/>
      <point x="-276" y="482"/>
      <point x="-250" y="501"/>
      <point x="-221" y="538" type="curve" smooth="yes"/>
      <point x="-210" y="552"/>
      <point x="-189" y="555"/>
      <point x="-175" y="544" type="curve" smooth="yes"/>
      <point x="-161" y="533"/>
      <point x="-158" y="512"/>
      <point x="-169" y="498" type="curve" smooth="yes"/>
      <point x="-214" y="439"/>
      <point x="-258" y="416"/>
      <point x="-313" y="416" type="curve" smooth="yes"/>
      <point x="-381" y="416"/>
      <point x="-431" y="466"/>
      <point x="-431" y="530" type="curve" smooth="yes"/>
      <point x="-431" y="591"/>
      <point x="-385" y="648"/>
      <point x="-307" y="648" type="curve" smooth="yes"/>
      <point x="-221" y="648"/>
      <point x="-152" y="563"/>
      <point x="-152" y="473" type="curve" smooth="yes"/>
      <point x="-152" y="363"/>
      <point x="-226" y="277"/>
      <point x="-368" y="277" type="curve" smooth="yes"/>
      <point x="-386" y="277"/>
      <point x="-401" y="292"/>
      <point x="-401" y="310" type="curve" smooth="yes"/>
      <point x="-401" y="328"/>
      <point x="-386" y="343"/>
    </contour>
  </outline>
</glyph>
<glyph name="knsignII" format="1">
  <advance width="579"/>
  <unicode hex="0CC0"/>
  <outline>
    <contour>
      <point x="-68" y="343" type="curve" smooth="yes"/>
      <point x="26" y="343"/>
      <point x="82" y="397"/>
      <point x="82" y="473" type="curve" smooth="yes"/>
      <point x="82" y="525"/>
      <point x="47" y="582"/>
      <point x="-7" y="582" type="curve" smooth="yes"/>
      <point x="-41" y="582"/>
      <point x="-65" y="559"/>
      <point x="-65" y="530" type="curve" smooth="yes"/>
      <point x="-65" y="502"/>
      <point x="-41" y="482"/>
      <point x="-13" y="482" type="curve" smooth="yes"/>
      <point x="24" y="482"/>
      <point x="50" y="501"/>
      <point x="79" y="538" type="curve" smooth="yes"/>
      <point x="90" y="552"/>
      <point x="111" y="555"/>
      <point x="125" y="544" type="curve" smooth="yes"/>
      <point x="139" y="533"/>
      <point x="142" y="512"/>
      <point x="131" y="498" type="curve" smooth="yes"/>
      <point x="86" y="439"/>
      <point x="42" y="416"/>
      <point x="-13" y="416" type="curve" smooth="yes"/>
      <point x="-81" y="416"/>
      <point x="-131" y="466"/>
      <point x="-131" y="530" type="curve" smooth="yes"/>
      <point x="-131" y="591"/>
      <point x="-85" y="648"/>
      <point x="-7" y="648" type="curve" smooth="yes"/>
      <point x="79" y="648"/>
      <point x="148" y="563"/>
      <point x="148" y="473" type="curve" smooth="yes"/>
      <point x="148" y="363"/>
      <point x="74" y="277"/>
      <point x="-68" y="277" type="curve" smooth="yes"/>
      <point x="-86" y="277"/>
      <point x="-101" y="292"/>
      <point x="-101" y="310" type="curve" smooth="yes"/>
      <point x="-101" y="328"/>
      <point x="-86" y="343"/>
    </contour>
    <contour>
      <point x="303" y="372" type="curve" smooth="yes"/>
      <point x="326" y="339"/>
      <point x="356" y="321"/>
      <point x="384" y="321" type="curve" smooth="yes"/>
      <point x="411" y="321"/>
      <point x="437" y="341"/>
      <point x="437" y="370" type="curve" smooth="yes"/>
      <point x="437" y="399"/>
      <point x="414" y="419"/>
      <point x="383" y="419" type="curve" smooth="yes"/>
      <point x="322" y="419"/>
      <point x="296" y="340"/>
      <point x="296" y="260" type="curve" smooth="yes"/>
      <point x="296" y="164"/>
      <point x="356" y="87"/>
      <point x="452" y="59" type="curve" smooth="yes"/>
      <point x="469" y="54"/>
      <point x="480" y="35"/>
      <point x="475" y="18" type="curve" smooth="yes"/>
      <point x="470" y="1"/>
      <point x="451" y="-10"/>
      <point x="434" y="-5" type="curve" smooth="yes"/>
      <point x="308" y="33"/>
      <point x="230" y="134"/>
      <point x="230" y="260" type="curve" smooth="yes"/>
      <point x="230" y="400"/>
      <point x="296" y="485"/>
      <point x="383" y="485" type="curve" smooth="yes"/>
      <point x="456" y="485"/>
      <point x="503" y="435"/>
      <point x="503" y="370" type="curve" smooth="yes"/>
      <point x="503" y="305"/>
      <point x="449" y="255"/>
      <point x="384" y="255" type="curve" smooth="yes"/>
      <point x="338" y="255"/>
      <point x="288" y="279"/>
      <point x="249" y="334" type="curve" smooth="yes"/>
      <point x="239" y="349"/>
      <point x="242" y="370"/>
      <point x="257" y="380" type="curve" smooth="yes"/>
      <point x="272" y="390"/>
      <point x="293" y="387"/>
    </contour>
    <component base="knIsign"/>
    <component base="knLength" xOffset="365" yOffset="-174"/>
    <component base="knIsign"/>
    <component base="knLength" xOffset="365" yOffset="-174"/>
  </outline>
</glyph>
<glyph name="knsignvR" format="1">
  <advance width="145"/>
  <unicode hex="0CC3"/>
  <outline>
    <contour>
      <point x="-215" y="-208" type="curve" smooth="yes"/>
      <point x="-201" y="-219"/>
      <point x="-185" y="-230"/>
      <point x="-154" y="-230" type="curve" smooth="yes"/>
      <point x="-132" y="-230"/>
      <point x="-110" y="-213"/>
      <point x="-110" y="-185" type="curve" smooth="yes"/>
      <point x="-110" y="-165"/>
      <point x="-126" y="-143"/>
      <point x="-154" y="-143" type="curve" smooth="yes"/>
      <point x="-188" y="-143"/>
      <point x="-205" y="-181"/>
      <point x="-205" y="-216" type="curve" smooth="yes"/>
      <point x="-205" y="-259"/>
      <point x="-192" y="-292"/>
      <point x="-163" y="-320" type="curve" smooth="yes"/>
      <point x="-138" y="-346"/>
      <point x="-98" y="-358"/>
      <point x="-57" y="-358" type="curve" smooth="yes"/>
      <point x="-13" y="-358"/>
      <point x="22" y="-345"/>
      <point x="47" y="-319" type="curve" smooth="yes"/>
      <point x="76" y="-291"/>
      <point x="89" y="-248"/>
      <point x="89" y="-193" type="curve" smooth="yes"/>
      <point x="89" y="-134"/>
      <point x="71" y="-33"/>
      <point x="33" y="65" type="curve" smooth="yes"/>
      <point x="27" y="80"/>
      <point x="35" y="97"/>
      <point x="49" y="103" type="curve" smooth="yes"/>
      <point x="64" y="109"/>
      <point x="81" y="101"/>
      <point x="87" y="87" type="curve" smooth="yes"/>
      <point x="129" y="-19"/>
      <point x="147" y="-130"/>
      <point x="147" y="-193" type="curve" smooth="yes"/>
      <point x="147" y="-268"/>
      <point x="126" y="-323"/>
      <point x="89" y="-361" type="curve" smooth="yes"/>
      <point x="54" y="-395"/>
      <point x="5" y="-416"/>
      <point x="-57" y="-416" type="curve" smooth="yes"/>
      <point x="-114" y="-416"/>
      <point x="-170" y="-396"/>
      <point x="-205" y="-362" type="curve" smooth="yes"/>
      <point x="-244" y="-322"/>
      <point x="-263" y="-275"/>
      <point x="-263" y="-216" type="curve" smooth="yes"/>
      <point x="-263" y="-141"/>
      <point x="-216" y="-85"/>
      <point x="-154" y="-85" type="curve" smooth="yes"/>
      <point x="-86" y="-85"/>
      <point x="-52" y="-137"/>
      <point x="-52" y="-185" type="curve" smooth="yes"/>
      <point x="-52" y="-251"/>
      <point x="-103" y="-288"/>
      <point x="-154" y="-288" type="curve" smooth="yes"/>
      <point x="-203" y="-288"/>
      <point x="-227" y="-271"/>
      <point x="-249" y="-256" type="curve" smooth="yes"/>
      <point x="-262" y="-246"/>
      <point x="-265" y="-228"/>
      <point x="-256" y="-215" type="curve" smooth="yes"/>
      <point x="-246" y="-202"/>
      <point x="-228" y="-199"/>
    </contour>
  </outline>
</glyph>
<glyph name="knsignvRR" format="1">
  <advance width="466"/>
  <unicode hex="0CC4"/>
  <outline>
    <contour>
      <point x="70" y="105" type="curve" smooth="yes"/>
      <point x="216" y="105" type="line" smooth="yes"/>
      <point x="365" y="105"/>
      <point x="421" y="32"/>
      <point x="421" y="-55" type="curve" smooth="yes"/>
      <point x="421" y="-148"/>
      <point x="368" y="-194"/>
      <point x="307" y="-194" type="curve" smooth="yes"/>
      <point x="241" y="-194"/>
      <point x="206" y="-148"/>
      <point x="205" y="-101" type="curve" smooth="yes"/>
      <point x="205" y="-46"/>
      <point x="244" y="8"/>
      <point x="323" y="8" type="curve" smooth="yes"/>
      <point x="348" y="8"/>
      <point x="376" y="5"/>
      <point x="398" y="-3" type="curve" smooth="yes"/>
      <point x="413" y="-8"/>
      <point x="421" y="-25"/>
      <point x="415" y="-40" type="curve" smooth="yes"/>
      <point x="410" y="-55"/>
      <point x="393" y="-63"/>
      <point x="378" y="-57" type="curve" smooth="yes"/>
      <point x="362" y="-51"/>
      <point x="342" y="-50"/>
      <point x="323" y="-50" type="curve" smooth="yes"/>
      <point x="286" y="-50"/>
      <point x="263" y="-72"/>
      <point x="263" y="-99" type="curve" smooth="yes"/>
      <point x="264" y="-120"/>
      <point x="281" y="-136"/>
      <point x="307" y="-136" type="curve" smooth="yes"/>
      <point x="342" y="-136"/>
      <point x="363" y="-100"/>
      <point x="363" y="-55" type="curve" smooth="yes"/>
      <point x="363" y="8"/>
      <point x="311" y="47"/>
      <point x="216" y="47" type="curve" smooth="yes"/>
      <point x="70" y="47" type="line" smooth="yes"/>
      <point x="54" y="47"/>
      <point x="41" y="60"/>
      <point x="41" y="76" type="curve" smooth="yes"/>
      <point x="41" y="92"/>
      <point x="54" y="105"/>
    </contour>
    <contour>
      <point x="-215" y="-208" type="curve" smooth="yes"/>
      <point x="-201" y="-219"/>
      <point x="-185" y="-230"/>
      <point x="-154" y="-230" type="curve" smooth="yes"/>
      <point x="-132" y="-230"/>
      <point x="-110" y="-213"/>
      <point x="-110" y="-185" type="curve" smooth="yes"/>
      <point x="-110" y="-165"/>
      <point x="-126" y="-143"/>
      <point x="-154" y="-143" type="curve" smooth="yes"/>
      <point x="-188" y="-143"/>
      <point x="-205" y="-181"/>
      <point x="-205" y="-216" type="curve" smooth="yes"/>
      <point x="-205" y="-259"/>
      <point x="-192" y="-292"/>
      <point x="-163" y="-320" type="curve" smooth="yes"/>
      <point x="-138" y="-346"/>
      <point x="-98" y="-358"/>
      <point x="-57" y="-358" type="curve" smooth="yes"/>
      <point x="-13" y="-358"/>
      <point x="22" y="-345"/>
      <point x="47" y="-319" type="curve" smooth="yes"/>
      <point x="76" y="-291"/>
      <point x="89" y="-248"/>
      <point x="89" y="-193" type="curve" smooth="yes"/>
      <point x="89" y="-134"/>
      <point x="71" y="-33"/>
      <point x="33" y="65" type="curve" smooth="yes"/>
      <point x="27" y="80"/>
      <point x="35" y="97"/>
      <point x="49" y="103" type="curve" smooth="yes"/>
      <point x="64" y="109"/>
      <point x="81" y="101"/>
      <point x="87" y="87" type="curve" smooth="yes"/>
      <point x="129" y="-19"/>
      <point x="147" y="-130"/>
      <point x="147" y="-193" type="curve" smooth="yes"/>
      <point x="147" y="-268"/>
      <point x="126" y="-323"/>
      <point x="89" y="-361" type="curve" smooth="yes"/>
      <point x="54" y="-395"/>
      <point x="5" y="-416"/>
      <point x="-57" y="-416" type="curve" smooth="yes"/>
      <point x="-114" y="-416"/>
      <point x="-170" y="-396"/>
      <point x="-205" y="-362" type="curve" smooth="yes"/>
      <point x="-244" y="-322"/>
      <point x="-263" y="-275"/>
      <point x="-263" y="-216" type="curve" smooth="yes"/>
      <point x="-263" y="-141"/>
      <point x="-216" y="-85"/>
      <point x="-154" y="-85" type="curve" smooth="yes"/>
      <point x="-86" y="-85"/>
      <point x="-52" y="-137"/>
      <point x="-52" y="-185" type="curve" smooth="yes"/>
      <point x="-52" y="-251"/>
      <point x="-103" y="-288"/>
      <point x="-154" y="-288" type="curve" smooth="yes"/>
      <point x="-203" y="-288"/>
      <point x="-227" y="-271"/>
      <point x="-249" y="-256" type="curve" smooth="yes"/>
      <point x="-262" y="-246"/>
      <point x="-265" y="-228"/>
      <point x="-256" y="-215" type="curve" smooth="yes"/>
      <point x="-246" y="-202"/>
      <point x="-228" y="-199"/>
    </contour>
  </outline>
</glyph>
<glyph name="knsignE" format="1">
  <advance width="0"/>
  <unicode hex="0CC6"/>
  <outline>
    <contour>
      <point x="-279" y="470" type="curve" smooth="yes"/>
      <point x="-207" y="470" type="line" smooth="yes"/>
      <point x="-129" y="470"/>
      <point x="-81" y="494"/>
      <point x="-81" y="536" type="curve" smooth="yes"/>
      <point x="-81" y="562"/>
      <point x="-103" y="583"/>
      <point x="-133" y="583" type="curve" smooth="yes"/>
      <point x="-169" y="583"/>
      <point x="-192" y="550"/>
      <point x="-192" y="512" type="curve" smooth="yes"/>
      <point x="-192" y="488"/>
      <point x="-186" y="464"/>
      <point x="-182" y="450" type="curve" smooth="yes"/>
      <point x="-178" y="433"/>
      <point x="-189" y="414"/>
      <point x="-206" y="410" type="curve" smooth="yes"/>
      <point x="-223" y="406"/>
      <point x="-242" y="417"/>
      <point x="-246" y="434" type="curve" smooth="yes"/>
      <point x="-250" y="452"/>
      <point x="-258" y="482"/>
      <point x="-258" y="512" type="curve" smooth="yes"/>
      <point x="-258" y="594"/>
      <point x="-203" y="649"/>
      <point x="-133" y="649" type="curve" smooth="yes"/>
      <point x="-61" y="649"/>
      <point x="-15" y="596"/>
      <point x="-15" y="536" type="curve" smooth="yes"/>
      <point x="-15" y="472"/>
      <point x="-51" y="404"/>
      <point x="-207" y="404" type="curve" smooth="yes"/>
      <point x="-279" y="404" type="line" smooth="yes"/>
      <point x="-297" y="404"/>
      <point x="-312" y="419"/>
      <point x="-312" y="437" type="curve" smooth="yes"/>
      <point x="-312" y="455"/>
      <point x="-297" y="470"/>
    </contour>
  </outline>
</glyph>
<glyph name="knVirama" format="1">
  <advance width="239"/>
  <unicode hex="0CCD"/>
  <outline>
    <contour>
      <point x="-218" y="470" type="curve" smooth="yes"/>
      <point x="59" y="470" type="line" smooth="yes"/>
      <point x="178" y="470"/>
      <point x="220" y="400"/>
      <point x="220" y="333" type="curve" smooth="yes"/>
      <point x="220" y="267"/>
      <point x="176" y="214"/>
      <point x="105" y="214" type="curve" smooth="yes"/>
      <point x="40" y="214"/>
      <point x="-13" y="260"/>
      <point x="-13" y="345" type="curve" smooth="yes"/>
      <point x="-13" y="424"/>
      <point x="32" y="513"/>
      <point x="133" y="580" type="curve" smooth="yes"/>
      <point x="148" y="589"/>
      <point x="169" y="585"/>
      <point x="179" y="570" type="curve" smooth="yes"/>
      <point x="188" y="555"/>
      <point x="184" y="534"/>
      <point x="169" y="524" type="curve" smooth="yes"/>
      <point x="92" y="473"/>
      <point x="53" y="406"/>
      <point x="53" y="345" type="curve" smooth="yes"/>
      <point x="53" y="308"/>
      <point x="73" y="280"/>
      <point x="105" y="280" type="curve" smooth="yes"/>
      <point x="136" y="280"/>
      <point x="154" y="305"/>
      <point x="154" y="333" type="curve" smooth="yes"/>
      <point x="154" y="372"/>
      <point x="120" y="404"/>
      <point x="59" y="404" type="curve" smooth="yes"/>
      <point x="-218" y="404" type="line" smooth="yes"/>
      <point x="-236" y="404"/>
      <point x="-251" y="419"/>
      <point x="-251" y="437" type="curve" smooth="yes"/>
      <point x="-251" y="455"/>
      <point x="-236" y="470"/>
    </contour>
  </outline>
</glyph>
<glyph name="knLengthmark" format="1">
  <advance width="362"/>
  <unicode hex="0CD5"/>
  <outline>
    <contour>
      <point x="118" y="372" type="curve" smooth="yes"/>
      <point x="141" y="339"/>
      <point x="171" y="321"/>
      <point x="199" y="321" type="curve" smooth="yes"/>
      <point x="226" y="321"/>
      <point x="252" y="341"/>
      <point x="252" y="370" type="curve" smooth="yes"/>
      <point x="252" y="399"/>
      <point x="229" y="419"/>
      <point x="198" y="419" type="curve" smooth="yes"/>
      <point x="137" y="419"/>
      <point x="111" y="340"/>
      <point x="111" y="260" type="curve" smooth="yes"/>
      <point x="111" y="164"/>
      <point x="171" y="87"/>
      <point x="267" y="59" type="curve" smooth="yes"/>
      <point x="284" y="54"/>
      <point x="295" y="35"/>
      <point x="290" y="18" type="curve" smooth="yes"/>
      <point x="285" y="1"/>
      <point x="266" y="-10"/>
      <point x="249" y="-5" type="curve" smooth="yes"/>
      <point x="123" y="33"/>
      <point x="45" y="134"/>
      <point x="45" y="260" type="curve"/>
      <point x="45" y="400"/>
      <point x="111" y="485"/>
      <point x="198" y="485" type="curve" smooth="yes"/>
      <point x="271" y="485"/>
      <point x="318" y="435"/>
      <point x="318" y="370" type="curve" smooth="yes"/>
      <point x="318" y="305"/>
      <point x="264" y="255"/>
      <point x="199" y="255" type="curve" smooth="yes"/>
      <point x="153" y="255"/>
      <point x="103" y="279"/>
      <point x="64" y="334" type="curve" smooth="yes"/>
      <point x="54" y="349"/>
      <point x="57" y="370"/>
      <point x="72" y="380" type="curve" smooth="yes"/>
      <point x="87" y="390"/>
      <point x="108" y="387"/>
    </contour>
  </outline>
</glyph>
<glyph name="knAIlengthmark" format="1">
  <advance width="140"/>
  <unicode hex="0CD6"/>
  <outline>
    <contour>
      <point x="-218" y="-207" type="curve" smooth="yes"/>
      <point x="-196" y="-219"/>
      <point x="-180" y="-226"/>
      <point x="-155" y="-226" type="curve" smooth="yes"/>
      <point x="-133" y="-226"/>
      <point x="-112" y="-211"/>
      <point x="-112" y="-185" type="curve" smooth="yes"/>
      <point x="-112" y="-166"/>
      <point x="-126" y="-145"/>
      <point x="-154" y="-145" type="curve" smooth="yes"/>
      <point x="-188" y="-145"/>
      <point x="-205" y="-182"/>
      <point x="-205" y="-215" type="curve" smooth="yes"/>
      <point x="-205" y="-255"/>
      <point x="-190" y="-284"/>
      <point x="-161" y="-312" type="curve" smooth="yes"/>
      <point x="-136" y="-338"/>
      <point x="-93" y="-349"/>
      <point x="-52" y="-349" type="curve" smooth="yes"/>
      <point x="-10" y="-349"/>
      <point x="27" y="-335"/>
      <point x="49" y="-312" type="curve" smooth="yes"/>
      <point x="69" y="-293"/>
      <point x="80" y="-264"/>
      <point x="80" y="-233" type="curve" smooth="yes"/>
      <point x="80" y="-199"/>
      <point x="66" y="-169"/>
      <point x="46" y="-150" type="curve" smooth="yes"/>
      <point x="32" y="-135"/>
      <point x="20" y="-127"/>
      <point x="3" y="-118" type="curve" smooth="yes"/>
      <point x="-12" y="-111"/>
      <point x="-18" y="-94"/>
      <point x="-11" y="-80" type="curve" smooth="yes"/>
      <point x="-4" y="-65"/>
      <point x="13" y="-59"/>
      <point x="27" y="-66" type="curve" smooth="yes"/>
      <point x="52" y="-77"/>
      <point x="68" y="-89"/>
      <point x="88" y="-108" type="curve" smooth="yes"/>
      <point x="116" y="-137"/>
      <point x="138" y="-183"/>
      <point x="138" y="-233" type="curve" smooth="yes"/>
      <point x="138" y="-280"/>
      <point x="121" y="-323"/>
      <point x="91" y="-354" type="curve" smooth="yes"/>
      <point x="59" y="-385"/>
      <point x="8" y="-407"/>
      <point x="-52" y="-407" type="curve" smooth="yes"/>
      <point x="-109" y="-407"/>
      <point x="-168" y="-388"/>
      <point x="-203" y="-354" type="curve" smooth="yes"/>
      <point x="-242" y="-314"/>
      <point x="-263" y="-271"/>
      <point x="-263" y="-215" type="curve" smooth="yes"/>
      <point x="-263" y="-144"/>
      <point x="-216" y="-87"/>
      <point x="-154" y="-87" type="curve" smooth="yes"/>
      <point x="-86" y="-87"/>
      <point x="-54" y="-140"/>
      <point x="-54" y="-185" type="curve" smooth="yes"/>
      <point x="-54" y="-247"/>
      <point x="-103" y="-284"/>
      <point x="-155" y="-284" type="curve" smooth="yes"/>
      <point x="-192" y="-284"/>
      <point x="-216" y="-275"/>
      <point x="-246" y="-257" type="curve" smooth="yes"/>
      <point x="-260" y="-249"/>
      <point x="-265" y="-231"/>
      <point x="-257" y="-218" type="curve" smooth="yes"/>
      <point x="-249" y="-204"/>
      <point x="-231" y="-199"/>
    </contour>
    <contour>
      <point x="12" y="-63" type="curve" smooth="yes"/>
      <point x="38" y="-55"/>
      <point x="55" y="-39"/>
      <point x="55" y="-13" type="curve" smooth="yes"/>
      <point x="55" y="11"/>
      <point x="46" y="37"/>
      <point x="33" y="64" type="curve" smooth="yes"/>
      <point x="27" y="79"/>
      <point x="34" y="96"/>
      <point x="48" y="103" type="curve" smooth="yes"/>
      <point x="63" y="109"/>
      <point x="80" y="102"/>
      <point x="87" y="88" type="curve" smooth="yes"/>
      <point x="102" y="51"/>
      <point x="113" y="17"/>
      <point x="113" y="-13" type="curve" smooth="yes"/>
      <point x="113" y="-65"/>
      <point x="84" y="-103"/>
      <point x="28" y="-119" type="curve" smooth="yes"/>
      <point x="13" y="-123"/>
      <point x="-3" y="-114"/>
      <point x="-8" y="-99" type="curve" smooth="yes"/>
      <point x="-12" y="-84"/>
      <point x="-3" y="-68"/>
    </contour>
  </outline>
</glyph>
<glyph name="knLLLA" format="1">
  <advance width="741"/>
  <unicode hex="0CDE"/>
  <outline>
    <contour>
      <point x="132" y="359" type="curve" smooth="yes"/>
      <point x="153" y="328"/>
      <point x="177" y="306"/>
      <point x="209" y="306" type="curve" smooth="yes"/>
      <point x="238" y="306"/>
      <point x="264" y="324"/>
      <point x="264" y="355" type="curve" smooth="yes"/>
      <point x="264" y="386"/>
      <point x="242" y="406"/>
      <point x="209" y="406" type="curve" smooth="yes"/>
      <point x="151" y="406"/>
      <point x="112" y="321"/>
      <point x="112" y="229" type="curve" smooth="yes"/>
      <point x="112" y="139"/>
      <point x="155" y="60"/>
      <point x="226" y="60" type="curve" smooth="yes"/>
      <point x="279" y="60"/>
      <point x="309" y="89"/>
      <point x="339" y="144" type="curve" smooth="yes"/>
      <point x="344" y="153"/>
      <point x="357" y="161"/>
      <point x="368" y="161" type="curve" smooth="yes"/>
      <point x="373" y="161" type="line" smooth="yes"/>
      <point x="384" y="161"/>
      <point x="397" y="153"/>
      <point x="402" y="144" type="curve" smooth="yes"/>
      <point x="432" y="89"/>
      <point x="462" y="60"/>
      <point x="515" y="60" type="curve" smooth="yes"/>
      <point x="586" y="60"/>
      <point x="629" y="139"/>
      <point x="629" y="229" type="curve" smooth="yes"/>
      <point x="629" y="321"/>
      <point x="590" y="406"/>
      <point x="532" y="406" type="curve" smooth="yes"/>
      <point x="499" y="406"/>
      <point x="477" y="386"/>
      <point x="477" y="355" type="curve" smooth="yes"/>
      <point x="477" y="324"/>
      <point x="503" y="306"/>
      <point x="532" y="306" type="curve" smooth="yes"/>
      <point x="564" y="306"/>
      <point x="588" y="328"/>
      <point x="609" y="359" type="curve" smooth="yes"/>
      <point x="618" y="374"/>
      <point x="639" y="378"/>
      <point x="654" y="368" type="curve" smooth="yes"/>
      <point x="669" y="359"/>
      <point x="673" y="338"/>
      <point x="663" y="323" type="curve" smooth="yes"/>
      <point x="628" y="270"/>
      <point x="584" y="240"/>
      <point x="532" y="240" type="curve" smooth="yes"/>
      <point x="465" y="240"/>
      <point x="411" y="286"/>
      <point x="411" y="355" type="curve" smooth="yes"/>
      <point x="411" y="422"/>
      <point x="455" y="472"/>
      <point x="532" y="472" type="curve" smooth="yes"/>
      <point x="612" y="472"/>
      <point x="695" y="383"/>
      <point x="695" y="229" type="curve" smooth="yes"/>
      <point x="695" y="87"/>
      <point x="614" y="-6"/>
      <point x="515" y="-6" type="curve" smooth="yes"/>
      <point x="438" y="-6"/>
      <point x="388" y="29"/>
      <point x="344" y="112" type="curve"/>
      <point x="373" y="95" type="line"/>
      <point x="368" y="95" type="line"/>
      <point x="397" y="112" type="line"/>
      <point x="353" y="29"/>
      <point x="303" y="-6"/>
      <point x="226" y="-6" type="curve" smooth="yes"/>
      <point x="127" y="-6"/>
      <point x="46" y="87"/>
      <point x="46" y="229" type="curve"/>
      <point x="46" y="383"/>
      <point x="129" y="472"/>
      <point x="209" y="472" type="curve" smooth="yes"/>
      <point x="286" y="472"/>
      <point x="330" y="422"/>
      <point x="330" y="355" type="curve" smooth="yes"/>
      <point x="330" y="286"/>
      <point x="276" y="240"/>
      <point x="209" y="240" type="curve" smooth="yes"/>
      <point x="157" y="240"/>
      <point x="113" y="270"/>
      <point x="78" y="323" type="curve" smooth="yes"/>
      <point x="68" y="338"/>
      <point x="72" y="359"/>
      <point x="87" y="368" type="curve" smooth="yes"/>
      <point x="102" y="378"/>
      <point x="123" y="374"/>
    </contour>
  </outline>
</glyph>
<glyph name="knvRR" format="1">
  <advance width="1352"/>
  <unicode hex="0CE0"/>
  <outline>
    <contour>
      <point x="479" y="470" type="curve" smooth="yes"/>
      <point x="561" y="470" type="line" smooth="yes"/>
      <point x="620" y="470"/>
      <point x="655" y="490"/>
      <point x="681" y="532" type="curve" smooth="yes"/>
      <point x="690" y="547"/>
      <point x="711" y="552"/>
      <point x="726" y="543" type="curve" smooth="yes"/>
      <point x="741" y="534"/>
      <point x="746" y="513"/>
      <point x="737" y="498" type="curve" smooth="yes"/>
      <point x="699" y="436"/>
      <point x="648" y="404"/>
      <point x="561" y="404" type="curve" smooth="yes"/>
      <point x="479" y="404" type="line" smooth="yes"/>
      <point x="461" y="404"/>
      <point x="446" y="419"/>
      <point x="446" y="437" type="curve" smooth="yes"/>
      <point x="446" y="455"/>
      <point x="461" y="470"/>
    </contour>
    <component base="knKHA"/>
    <component base="knsignUU" xOffset="765"/>
    <component base="knKHA"/>
    <component base="knsignUU" xOffset="765"/>
  </outline>
</glyph>
<glyph name="knvLL" format="1">
  <advance width="1189"/>
  <unicode hex="0CE1"/>
  <outline>
    <contour>
      <point x="736" y="470" type="curve" smooth="yes"/>
      <point x="853" y="470" type="line" smooth="yes"/>
      <point x="1017" y="470"/>
      <point x="1137" y="363"/>
      <point x="1137" y="171" type="curve" smooth="yes"/>
      <point x="1137" y="50"/>
      <point x="1071" y="-10"/>
      <point x="994" y="-10" type="curve" smooth="yes"/>
      <point x="913" y="-10"/>
      <point x="869" y="48"/>
      <point x="868" y="110" type="curve" smooth="yes"/>
      <point x="867" y="180"/>
      <point x="917" y="250"/>
      <point x="1015" y="250" type="curve" smooth="yes"/>
      <point x="1047" y="250"/>
      <point x="1081" y="245"/>
      <point x="1109" y="236" type="curve" smooth="yes"/>
      <point x="1126" y="231"/>
      <point x="1136" y="212"/>
      <point x="1130" y="195" type="curve" smooth="yes"/>
      <point x="1125" y="178"/>
      <point x="1106" y="168"/>
      <point x="1089" y="174" type="curve" smooth="yes"/>
      <point x="1067" y="181"/>
      <point x="1041" y="184"/>
      <point x="1015" y="184" type="curve" smooth="yes"/>
      <point x="965" y="184"/>
      <point x="933" y="150"/>
      <point x="934" y="112" type="curve" smooth="yes"/>
      <point x="935" y="82"/>
      <point x="957" y="56"/>
      <point x="994" y="56" type="curve" smooth="yes"/>
      <point x="1043" y="56"/>
      <point x="1071" y="106"/>
      <point x="1071" y="171" type="curve" smooth="yes"/>
      <point x="1071" y="319"/>
      <point x="981" y="404"/>
      <point x="853" y="404" type="curve" smooth="yes"/>
      <point x="736" y="404" type="line" smooth="yes"/>
      <point x="718" y="404"/>
      <point x="703" y="419"/>
      <point x="703" y="437" type="curve" smooth="yes"/>
      <point x="703" y="455"/>
      <point x="718" y="470"/>
    </contour>
    <component base="knvL"/>
    <component base="knvL"/>
  </outline>
</glyph>
